<svg xmlns="http://www.w3.org/2000/svg" xmlns:xlink="http://www.w3.org/1999/xlink" contentStyleType="text/css" data-diagram-type="CLASS" height="919px" preserveAspectRatio="none" style="width:1481px;height:919px;background:#FFFFFF;" version="1.1" viewBox="0 0 1481 919" width="1481px" zoomAndPan="magnify"><title>Runtime structures (logical class model)</title><defs/><g><g class="title" data-source-line="1"><text fill="#000000" font-family="sans-serif" font-size="14" font-weight="bold" lengthAdjust="spacing" textLength="281.6953" x="593.0781" y="24.9639">Runtime structures (logical class model)</text></g><!--class XFormsEngine--><g class="entity" data-entity="XFormsEngine" data-source-line="4" data-uid="ent0002" id="entity_XFormsEngine"><rect fill="#F1F1F1" height="194.8652" rx="2.5" ry="2.5" style="stroke:#181818;stroke-width:0.5;" width="259.3447" x="555.5" y="47.0654"/><ellipse cx="632.5845" cy="69.769" fill="#ADD1B2" rx="11" ry="11" style="stroke:#181818;stroke-width:1;"/><path d="M635.5532,75.4097 Q634.9751,75.7065 634.3345,75.8472 Q633.6938,76.0034 632.9907,76.0034 Q630.4907,76.0034 629.1626,74.3628 Q627.8501,72.7065 627.8501,69.5815 Q627.8501,66.4565 629.1626,64.8003 Q630.4907,63.144 632.9907,63.144 Q633.6938,63.144 634.3345,63.3003 Q634.9907,63.4565 635.5532,63.7534 L635.5532,66.4722 Q634.9282,65.894 634.3345,65.6284 Q633.7407,65.3472 633.1157,65.3472 Q631.772,65.3472 631.0845,66.4253 Q630.397,67.4878 630.397,69.5815 Q630.397,71.6753 631.0845,72.7534 Q631.772,73.8159 633.1157,73.8159 Q633.7407,73.8159 634.3345,73.5503 Q634.9282,73.269 635.5532,72.6909 L635.5532,75.4097 Z " fill="#000000"/><text fill="#000000" font-family="sans-serif" font-size="12" font-style="italic" lengthAdjust="spacing" textLength="100.6758" x="651.0845" y="64.8916">&#171;saxon-xforms.xsl&#187;</text><text fill="#000000" font-family="sans-serif" font-size="14" lengthAdjust="spacing" textLength="94.7324" x="654.0562" y="83.3711">XFormsEngine</text><line style="stroke:#181818;stroke-width:0.5;" x1="556.5" x2="813.8447" y1="92.4727" y2="92.4727"/><line style="stroke:#181818;stroke-width:0.5;" x1="556.5" x2="813.8447" y1="100.4727" y2="100.4727"/><text fill="#000000" font-family="sans-serif" font-size="14" lengthAdjust="spacing" textLength="182.6221" x="561.5" y="119.4365">+xformsjs-main() : template</text><text fill="#000000" font-family="sans-serif" font-size="14" lengthAdjust="spacing" textLength="247.3447" x="561.5" y="138.502">+xforms-model-construct() : template</text><text fill="#000000" font-family="sans-serif" font-size="14" lengthAdjust="spacing" textLength="185.876" x="561.5" y="157.5674">+xforms-rebuild() : template</text><text fill="#000000" font-family="sans-serif" font-size="14" lengthAdjust="spacing" textLength="210.7451" x="561.5" y="176.6328">+xforms-recalculate() : template</text><text fill="#000000" font-family="sans-serif" font-size="14" lengthAdjust="spacing" textLength="204.374" x="561.5" y="195.6982">+xforms-revalidate() : template</text><text fill="#000000" font-family="sans-serif" font-size="14" lengthAdjust="spacing" textLength="186.6348" x="561.5" y="214.7637">+xforms-refresh() : template</text><text fill="#000000" font-family="sans-serif" font-size="14" lengthAdjust="spacing" textLength="172.0537" x="561.5" y="233.8291">+applyActions() : template</text></g><!--class ModelState--><g class="entity" data-entity="ModelState" data-source-line="14" data-uid="ent0003" id="entity_ModelState"><rect fill="#F1F1F1" height="137.6689" rx="2.5" ry="2.5" style="stroke:#181818;stroke-width:0.5;" width="260.1924" x="7" y="775.0654"/><ellipse cx="95.4331" cy="797.769" fill="#ADD1B2" rx="11" ry="11" style="stroke:#181818;stroke-width:1;"/><path d="M98.4019,803.4097 Q97.8237,803.7065 97.1831,803.8472 Q96.5425,804.0034 95.8394,804.0034 Q93.3394,804.0034 92.0112,802.3628 Q90.6987,800.7065 90.6987,797.5815 Q90.6987,794.4565 92.0112,792.8003 Q93.3394,791.144 95.8394,791.144 Q96.5425,791.144 97.1831,791.3003 Q97.8394,791.4565 98.4019,791.7534 L98.4019,794.4722 Q97.7769,793.894 97.1831,793.6284 Q96.5894,793.3472 95.9644,793.3472 Q94.6206,793.3472 93.9331,794.4253 Q93.2456,795.4878 93.2456,797.5815 Q93.2456,799.6753 93.9331,800.7534 Q94.6206,801.8159 95.9644,801.8159 Q96.5894,801.8159 97.1831,801.5503 Q97.7769,801.269 98.4019,800.6909 L98.4019,803.4097 Z " fill="#000000"/><text fill="#000000" font-family="sans-serif" font-size="12" font-style="italic" lengthAdjust="spacing" textLength="69.3691" x="118.6616" y="792.8916">&#171;in-memory&#187;</text><text fill="#000000" font-family="sans-serif" font-size="14" lengthAdjust="spacing" textLength="74.8262" x="115.9331" y="811.3711">ModelState</text><line style="stroke:#181818;stroke-width:0.5;" x1="8" x2="266.1924" y1="820.4727" y2="820.4727"/><line style="stroke:#181818;stroke-width:0.5;" x1="8" x2="266.1924" y1="828.4727" y2="828.4727"/><text fill="#000000" font-family="sans-serif" font-size="14" lengthAdjust="spacing" textLength="248.1924" x="13" y="847.4365">+instances : map(xs:string, element())</text><text fill="#000000" font-family="sans-serif" font-size="14" lengthAdjust="spacing" textLength="207.6758" x="13" y="866.502">+binds : element(xforms:bind)*</text><text fill="#000000" font-family="sans-serif" font-size="14" lengthAdjust="spacing" textLength="125.9111" x="13" y="885.5674">+mipState : map(*)</text><text fill="#000000" font-family="sans-serif" font-size="14" lengthAdjust="spacing" textLength="167.1318" x="13" y="904.6328">+getNode(path) : node()?</text></g><!--class ActionContext--><g class="entity" data-entity="ActionContext" data-source-line="21" data-uid="ent0004" id="entity_ActionContext"><rect fill="#F1F1F1" height="194.8652" rx="2.5" ry="2.5" style="stroke:#181818;stroke-width:0.5;" width="194.2734" x="161" y="321.0654"/><ellipse cx="207.4741" cy="343.769" fill="#ADD1B2" rx="11" ry="11" style="stroke:#181818;stroke-width:1;"/><path d="M210.4429,349.4097 Q209.8647,349.7065 209.2241,349.8472 Q208.5835,350.0034 207.8804,350.0034 Q205.3804,350.0034 204.0522,348.3628 Q202.7397,346.7065 202.7397,343.5815 Q202.7397,340.4565 204.0522,338.8003 Q205.3804,337.144 207.8804,337.144 Q208.5835,337.144 209.2241,337.3003 Q209.8804,337.4565 210.4429,337.7534 L210.4429,340.4722 Q209.8179,339.894 209.2241,339.6284 Q208.6304,339.3472 208.0054,339.3472 Q206.6616,339.3472 205.9741,340.4253 Q205.2866,341.4878 205.2866,343.5815 Q205.2866,345.6753 205.9741,346.7534 Q206.6616,347.8159 208.0054,347.8159 Q208.6304,347.8159 209.2241,347.5503 Q209.8179,347.269 210.4429,346.6909 L210.4429,349.4097 Z " fill="#000000"/><text fill="#000000" font-family="sans-serif" font-size="12" font-style="italic" lengthAdjust="spacing" textLength="72.5039" x="238.1348" y="338.8916">&#171;action-map&#187;</text><text fill="#000000" font-family="sans-serif" font-size="14" lengthAdjust="spacing" textLength="92.8252" x="227.9741" y="357.3711">ActionContext</text><line style="stroke:#181818;stroke-width:0.5;" x1="162" x2="354.2734" y1="366.4727" y2="366.4727"/><text fill="#000000" font-family="sans-serif" font-size="14" lengthAdjust="spacing" textLength="113.251" x="167" y="385.4365">+name : xs:string</text><text fill="#000000" font-family="sans-serif" font-size="14" lengthAdjust="spacing" textLength="94.2539" x="167" y="404.502">+ref : xs:string</text><text fill="#000000" font-family="sans-serif" font-size="14" lengthAdjust="spacing" textLength="182.2734" x="167" y="423.5674">+instanceContext : xs:string</text><text fill="#000000" font-family="sans-serif" font-size="14" lengthAdjust="spacing" textLength="155.4082" x="167" y="442.6328">+ifCondition : xs:string?</text><text fill="#000000" font-family="sans-serif" font-size="14" lengthAdjust="spacing" textLength="181.7539" x="167" y="461.6982">+whileCondition : xs:string?</text><text fill="#000000" font-family="sans-serif" font-size="14" lengthAdjust="spacing" textLength="126.1436" x="167" y="480.7637">+iterate : xs:string?</text><text fill="#000000" font-family="sans-serif" font-size="14" lengthAdjust="spacing" textLength="133.916" x="167" y="499.8291">+bindRef : xs:string?</text><line style="stroke:#181818;stroke-width:0.5;" x1="162" x2="354.2734" y1="507.9307" y2="507.9307"/></g><!--class SubmissionRequest--><g class="entity" data-entity="SubmissionRequest" data-source-line="31" data-uid="ent0005" id="entity_SubmissionRequest"><rect fill="#F1F1F1" height="175.7998" rx="2.5" ry="2.5" style="stroke:#181818;stroke-width:0.5;" width="228.2734" x="390" y="330.5654"/><ellipse cx="405" cy="353.269" fill="#ADD1B2" rx="11" ry="11" style="stroke:#181818;stroke-width:1;"/><path d="M407.9688,358.9097 Q407.3906,359.2065 406.75,359.3472 Q406.1094,359.5034 405.4063,359.5034 Q402.9063,359.5034 401.5781,357.8628 Q400.2656,356.2065 400.2656,353.0815 Q400.2656,349.9565 401.5781,348.3003 Q402.9063,346.644 405.4063,346.644 Q406.1094,346.644 406.75,346.8003 Q407.4063,346.9565 407.9688,347.2534 L407.9688,349.9722 Q407.3438,349.394 406.75,349.1284 Q406.1563,348.8472 405.5313,348.8472 Q404.1875,348.8472 403.5,349.9253 Q402.8125,350.9878 402.8125,353.0815 Q402.8125,355.1753 403.5,356.2534 Q404.1875,357.3159 405.5313,357.3159 Q406.1563,357.3159 406.75,357.0503 Q407.3438,356.769 407.9688,356.1909 L407.9688,358.9097 Z " fill="#000000"/><text fill="#000000" font-family="sans-serif" font-size="12" font-style="italic" lengthAdjust="spacing" textLength="200.2734" x="417" y="348.3916">&#171;HTTPsubmit in src/saxon-xforms.xsl&#187;</text><text fill="#000000" font-family="sans-serif" font-size="14" lengthAdjust="spacing" textLength="129.3223" x="452.4756" y="366.8711">SubmissionRequest</text><line style="stroke:#181818;stroke-width:0.5;" x1="391" x2="617.2734" y1="375.9727" y2="375.9727"/><text fill="#000000" font-family="sans-serif" font-size="14" lengthAdjust="spacing" textLength="127.5313" x="396" y="394.9365">+method : xs:string</text><text fill="#000000" font-family="sans-serif" font-size="14" lengthAdjust="spacing" textLength="133.6631" x="396" y="414.002">+resource : xs:string</text><text fill="#000000" font-family="sans-serif" font-size="14" lengthAdjust="spacing" textLength="155.0459" x="396" y="433.0674">+serialization : xs:string</text><text fill="#000000" font-family="sans-serif" font-size="14" lengthAdjust="spacing" textLength="124.127" x="396" y="452.1328">+replace : xs:string</text><line style="stroke:#181818;stroke-width:0.5;" x1="391" x2="617.2734" y1="460.2344" y2="460.2344"/><text fill="#000000" font-family="sans-serif" font-size="14" lengthAdjust="spacing" textLength="120.4629" x="396" y="479.1982">+headers : map(*)</text><text fill="#000000" font-family="sans-serif" font-size="14" lengthAdjust="spacing" textLength="167.3779" x="396" y="498.2637">+body : document-node()</text></g><!--class SubmissionResponse--><g class="entity" data-entity="SubmissionResponse" data-source-line="40" data-uid="ent0006" id="entity_SubmissionResponse"><rect fill="#F1F1F1" height="118.6035" rx="2.5" ry="2.5" style="stroke:#181818;stroke-width:0.5;" width="272.2656" x="264" y="577.0654"/><ellipse cx="279" cy="599.769" fill="#ADD1B2" rx="11" ry="11" style="stroke:#181818;stroke-width:1;"/><path d="M281.9688,605.4097 Q281.3906,605.7065 280.75,605.8472 Q280.1094,606.0034 279.4063,606.0034 Q276.9063,606.0034 275.5781,604.3628 Q274.2656,602.7065 274.2656,599.5815 Q274.2656,596.4565 275.5781,594.8003 Q276.9063,593.144 279.4063,593.144 Q280.1094,593.144 280.75,593.3003 Q281.4063,593.4565 281.9688,593.7534 L281.9688,596.4722 Q281.3438,595.894 280.75,595.6284 Q280.1563,595.3472 279.5313,595.3472 Q278.1875,595.3472 277.5,596.4253 Q276.8125,597.4878 276.8125,599.5815 Q276.8125,601.6753 277.5,602.7534 Q278.1875,603.8159 279.5313,603.8159 Q280.1563,603.8159 280.75,603.5503 Q281.3438,603.269 281.9688,602.6909 L281.9688,605.4097 Z " fill="#000000"/><text fill="#000000" font-family="sans-serif" font-size="12" font-style="italic" lengthAdjust="spacing" textLength="244.2656" x="291" y="594.8916">&#171;xforms-submit-done in src/saxon-xforms.xsl&#187;</text><text fill="#000000" font-family="sans-serif" font-size="14" lengthAdjust="spacing" textLength="139.4463" x="343.4097" y="613.3711">SubmissionResponse</text><line style="stroke:#181818;stroke-width:0.5;" x1="265" x2="535.2656" y1="622.4727" y2="622.4727"/><text fill="#000000" font-family="sans-serif" font-size="14" lengthAdjust="spacing" textLength="124.8652" x="270" y="641.4365">+status : xs:integer</text><line style="stroke:#181818;stroke-width:0.5;" x1="265" x2="535.2656" y1="649.5381" y2="649.5381"/><text fill="#000000" font-family="sans-serif" font-size="14" lengthAdjust="spacing" textLength="144.9971" x="270" y="668.502">+headers : element()*</text><text fill="#000000" font-family="sans-serif" font-size="14" lengthAdjust="spacing" textLength="193.9424" x="270" y="687.5674">+payload : document-node()?</text></g><!--class FunctionLibrary--><g class="entity" data-entity="FunctionLibrary" data-source-line="46" data-uid="ent0007" id="entity_FunctionLibrary"><rect fill="#F1F1F1" height="194.8652" rx="2.5" ry="2.5" style="stroke:#181818;stroke-width:0.5;" width="252.8301" x="653.5" y="321.0654"/><ellipse cx="701.6807" cy="343.769" fill="#ADD1B2" rx="11" ry="11" style="stroke:#181818;stroke-width:1;"/><path d="M704.6494,349.4097 Q704.0713,349.7065 703.4307,349.8472 Q702.79,350.0034 702.0869,350.0034 Q699.5869,350.0034 698.2588,348.3628 Q696.9463,346.7065 696.9463,343.5815 Q696.9463,340.4565 698.2588,338.8003 Q699.5869,337.144 702.0869,337.144 Q702.79,337.144 703.4307,337.3003 Q704.0869,337.4565 704.6494,337.7534 L704.6494,340.4722 Q704.0244,339.894 703.4307,339.6284 Q702.8369,339.3472 702.2119,339.3472 Q700.8682,339.3472 700.1807,340.4253 Q699.4932,341.4878 699.4932,343.5815 Q699.4932,345.6753 700.1807,346.7534 Q700.8682,347.8159 702.2119,347.8159 Q702.8369,347.8159 703.4307,347.5503 Q704.0244,347.269 704.6494,346.6909 L704.6494,349.4097 Z " fill="#000000"/><text fill="#000000" font-family="sans-serif" font-size="12" font-style="italic" lengthAdjust="spacing" textLength="151.9688" x="720.1807" y="338.8916">&#171;xforms-function-library.xsl&#187;</text><text fill="#000000" font-family="sans-serif" font-size="14" lengthAdjust="spacing" textLength="103.1953" x="744.5674" y="357.3711">FunctionLibrary</text><line style="stroke:#181818;stroke-width:0.5;" x1="654.5" x2="905.3301" y1="366.4727" y2="366.4727"/><line style="stroke:#181818;stroke-width:0.5;" x1="654.5" x2="905.3301" y1="374.4727" y2="374.4727"/><text fill="#000000" font-family="sans-serif" font-size="14" lengthAdjust="spacing" textLength="171.6162" x="659.5" y="393.4365">+impose(xpath) : xs:string</text><text fill="#000000" font-family="sans-serif" font-size="14" lengthAdjust="spacing" textLength="211.6338" x="659.5" y="412.502">+resolve-index(xpath) : xs:string</text><text fill="#000000" font-family="sans-serif" font-size="14" lengthAdjust="spacing" textLength="174.8564" x="659.5" y="431.5674">+instance(id?) : element()?</text><text fill="#000000" font-family="sans-serif" font-size="14" lengthAdjust="spacing" textLength="240.8301" x="659.5" y="450.6328">+index(repeatId) : xs:anyAtomicType</text><text fill="#000000" font-family="sans-serif" font-size="14" lengthAdjust="spacing" textLength="176.3945" x="659.5" y="469.6982">+id(value, node?) : node()*</text><text fill="#000000" font-family="sans-serif" font-size="14" lengthAdjust="spacing" textLength="196.7725" x="659.5" y="488.7637">+min(seq) : xs:anyAtomicType</text><text fill="#000000" font-family="sans-serif" font-size="14" lengthAdjust="spacing" textLength="199.7666" x="659.5" y="507.8291">+max(seq) : xs:anyAtomicType</text></g><!--class XPathFunctions--><g class="entity" data-entity="XPathFunctions" data-source-line="56" data-uid="ent0008" id="entity_XPathFunctions"><rect fill="#F1F1F1" height="194.8652" rx="2.5" ry="2.5" style="stroke:#181818;stroke-width:0.5;" width="270.2207" x="942" y="321.0654"/><ellipse cx="998.5889" cy="343.769" fill="#ADD1B2" rx="11" ry="11" style="stroke:#181818;stroke-width:1;"/><path d="M1001.5576,349.4097 Q1000.9795,349.7065 1000.3389,349.8472 Q999.6982,350.0034 998.9951,350.0034 Q996.4951,350.0034 995.167,348.3628 Q993.8545,346.7065 993.8545,343.5815 Q993.8545,340.4565 995.167,338.8003 Q996.4951,337.144 998.9951,337.144 Q999.6982,337.144 1000.3389,337.3003 Q1000.9951,337.4565 1001.5576,337.7534 L1001.5576,340.4722 Q1000.9326,339.894 1000.3389,339.6284 Q999.7451,339.3472 999.1201,339.3472 Q997.7764,339.3472 997.0889,340.4253 Q996.4014,341.4878 996.4014,343.5815 Q996.4014,345.6753 997.0889,346.7534 Q997.7764,347.8159 999.1201,347.8159 Q999.7451,347.8159 1000.3389,347.5503 Q1000.9326,347.269 1001.5576,346.6909 L1001.5576,349.4097 Z " fill="#000000"/><text fill="#000000" font-family="sans-serif" font-size="12" font-style="italic" lengthAdjust="spacing" textLength="152.543" x="1017.0889" y="338.8916">&#171;xforms-xpath-functions.xsl&#187;</text><text fill="#000000" font-family="sans-serif" font-size="14" lengthAdjust="spacing" textLength="102.0195" x="1042.3506" y="357.3711">XPathFunctions</text><line style="stroke:#181818;stroke-width:0.5;" x1="943" x2="1211.2207" y1="366.4727" y2="366.4727"/><line style="stroke:#181818;stroke-width:0.5;" x1="943" x2="1211.2207" y1="374.4727" y2="374.4727"/><text fill="#000000" font-family="sans-serif" font-size="14" lengthAdjust="spacing" textLength="180.4961" x="948" y="393.4365">+property(name) : xs:string</text><text fill="#000000" font-family="sans-serif" font-size="14" lengthAdjust="spacing" textLength="241.1719" x="948" y="412.502">+boolean-from-string(s) : xs:boolean</text><text fill="#000000" font-family="sans-serif" font-size="14" lengthAdjust="spacing" textLength="194.9951" x="948" y="431.5674">+avg(seq) : xs:anyAtomicType</text><text fill="#000000" font-family="sans-serif" font-size="14" lengthAdjust="spacing" textLength="151.1494" x="948" y="450.6328">+event(name) : item()*</text><text fill="#000000" font-family="sans-serif" font-size="14" lengthAdjust="spacing" textLength="113.7842" x="948" y="469.6982">+now() : xs:string</text><text fill="#000000" font-family="sans-serif" font-size="14" lengthAdjust="spacing" textLength="258.2207" x="948" y="488.7637">+days-from-date(d) : xs:anyAtomicType</text><text fill="#000000" font-family="sans-serif" font-size="14" lengthAdjust="spacing" textLength="228.8535" x="948" y="507.8291">+digest(data, algo, enc?) : xs:string</text></g><!--class DomAdapter--><g class="entity" data-entity="DomAdapter" data-source-line="66" data-uid="ent0009" id="entity_DomAdapter"><rect fill="#F1F1F1" height="175.7998" rx="2.5" ry="2.5" style="stroke:#181818;stroke-width:0.5;" width="227.8516" x="1247" y="330.5654"/><ellipse cx="1313.3359" cy="353.269" fill="#ADD1B2" rx="11" ry="11" style="stroke:#181818;stroke-width:1;"/><path d="M1316.3047,358.9097 Q1315.7266,359.2065 1315.0859,359.3472 Q1314.4453,359.5034 1313.7422,359.5034 Q1311.2422,359.5034 1309.9141,357.8628 Q1308.6016,356.2065 1308.6016,353.0815 Q1308.6016,349.9565 1309.9141,348.3003 Q1311.2422,346.644 1313.7422,346.644 Q1314.4453,346.644 1315.0859,346.8003 Q1315.7422,346.9565 1316.3047,347.2534 L1316.3047,349.9722 Q1315.6797,349.394 1315.0859,349.1284 Q1314.4922,348.8472 1313.8672,348.8472 Q1312.5234,348.8472 1311.8359,349.9253 Q1311.1484,350.9878 1311.1484,353.0815 Q1311.1484,355.1753 1311.8359,356.2534 Q1312.5234,357.3159 1313.8672,357.3159 Q1314.4922,357.3159 1315.0859,357.0503 Q1315.6797,356.769 1316.3047,356.1909 L1316.3047,358.9097 Z " fill="#000000"/><text fill="#000000" font-family="sans-serif" font-size="12" font-style="italic" lengthAdjust="spacing" textLength="90.6797" x="1331.8359" y="348.3916">&#171;ixsl: extensions&#187;</text><text fill="#000000" font-family="sans-serif" font-size="14" lengthAdjust="spacing" textLength="84.54" x="1334.9058" y="366.8711">DomAdapter</text><line style="stroke:#181818;stroke-width:0.5;" x1="1248" x2="1473.8516" y1="375.9727" y2="375.9727"/><line style="stroke:#181818;stroke-width:0.5;" x1="1248" x2="1473.8516" y1="383.9727" y2="383.9727"/><text fill="#000000" font-family="sans-serif" font-size="14" lengthAdjust="spacing" textLength="202.8701" x="1253" y="402.9365">+ixsl:page() : document-node()</text><text fill="#000000" font-family="sans-serif" font-size="14" lengthAdjust="spacing" textLength="130.6074" x="1253" y="422.002">+ixsl:event() : item()</text><text fill="#000000" font-family="sans-serif" font-size="14" lengthAdjust="spacing" textLength="142.249" x="1253" y="441.0674">+ixsl:call(obj, fn, args)</text><text fill="#000000" font-family="sans-serif" font-size="14" lengthAdjust="spacing" textLength="215.8516" x="1253" y="460.1328">+ixsl:set-property(obj, name, val)</text><text fill="#000000" font-family="sans-serif" font-size="14" lengthAdjust="spacing" textLength="158.0947" x="1253" y="479.1982">+setFocus(controlId) : JS</text><text fill="#000000" font-family="sans-serif" font-size="14" lengthAdjust="spacing" textLength="201.3799" x="1253" y="498.2637">+readFileAsXML(file, instId) : JS</text></g><!--reverse link XFormsEngine to ModelState--><g class="link" data-entity-1="XFormsEngine" data-entity-2="ModelState" data-source-line="75" data-uid="lnk10" id="link_XFormsEngine_ModelState"><path codeLine="75" d="M543.5662,172.0237 C399.5062,201.6637 192.36,254.0054 143,321.0654 C44,455.5454 84.4,666.8454 114.82,774.7254" fill="none" id="XFormsEngine-backto-ModelState" style="stroke:#181818;stroke-width:1;"/><polygon fill="#181818" points="555.32,169.6054,548.637,166.8967,543.5662,172.0237,550.2492,174.7325,555.32,169.6054" style="stroke:#181818;stroke-width:1;"/></g><!--link XFormsEngine to ActionContext--><g class="link" data-entity-1="XFormsEngine" data-entity-2="ActionContext" data-source-line="76" data-uid="lnk11" id="link_XFormsEngine_ActionContext"><path codeLine="76" d="M555.3,181.0054 C495.68,201.3754 426.32,231.1854 372,272.0654 C353.8,285.7654 340.7631,298.4478 325.8831,316.2878" fill="none" id="XFormsEngine-to-ActionContext" style="stroke:#181818;stroke-width:1;"/><polygon fill="#181818" points="322.04,320.8954,330.8765,316.5461,325.2426,317.0557,324.733,311.4219,322.04,320.8954" style="stroke:#181818;stroke-width:1;"/><text fill="#000000" font-family="sans-serif" font-size="13" lengthAdjust="spacing" textLength="179.3276" x="373" y="286.9604">builds via set-action template</text></g><!--link XFormsEngine to DomAdapter--><g class="link" data-entity-1="XFormsEngine" data-entity-2="DomAdapter" data-source-line="77" data-uid="lnk12" id="link_XFormsEngine_DomAdapter"><path codeLine="77" d="M814.61,174.6954 C928.05,203.0854 1095.29,252.0954 1230,321.0654 C1235.66,323.9654 1236.149,324.0694 1241.799,327.3694" fill="none" id="XFormsEngine-to-DomAdapter" style="stroke:#181818;stroke-width:1;"/><polygon fill="#181818" points="1246.98,330.3954,1241.2259,322.4023,1242.6625,327.8737,1237.1911,329.3103,1246.98,330.3954" style="stroke:#181818;stroke-width:1;"/><text fill="#000000" font-family="sans-serif" font-size="13" lengthAdjust="spacing" textLength="138.9248" x="1161" y="286.9604">refresh/event dispatch</text></g><!--link XFormsEngine to SubmissionRequest--><g class="link" data-entity-1="XFormsEngine" data-entity-2="SubmissionRequest" data-source-line="78" data-uid="lnk13" id="link_XFormsEngine_SubmissionRequest"><path codeLine="78" d="M593.55,242.4054 C585.88,252.1354 578.57,262.1054 572,272.0654 C560.1,290.1054 551.7597,305.1431 542.3097,324.8931" fill="none" id="XFormsEngine-to-SubmissionRequest" style="stroke:#181818;stroke-width:1;"/><polygon fill="#181818" points="539.72,330.3054,547.2128,323.9134,541.8781,325.7951,539.9963,320.4604,539.72,330.3054" style="stroke:#181818;stroke-width:1;"/><text fill="#000000" font-family="sans-serif" font-size="13" lengthAdjust="spacing" textLength="148.0654" x="573" y="286.9604">xforms-submit template</text></g><!--link XFormsEngine to FunctionLibrary--><g class="link" data-entity-1="XFormsEngine" data-entity-2="FunctionLibrary" data-source-line="79" data-uid="lnk14" id="link_XFormsEngine_FunctionLibrary"><path codeLine="79" d="M718.76,242.2254 C727.67,267.7254 735.3016,289.581 744.2116,315.091" fill="none" id="XFormsEngine-to-FunctionLibrary" style="stroke:#181818;stroke-width:1;"/><polygon fill="#181818" points="746.19,320.7554,746.9986,310.9398,744.5413,316.0351,739.446,313.5777,746.19,320.7554" style="stroke:#181818;stroke-width:1;"/><text fill="#000000" font-family="sans-serif" font-size="13" lengthAdjust="spacing" textLength="102.7305" x="737" y="286.9604">XPath evaluation</text></g><!--link XFormsEngine to XPathFunctions--><g class="link" data-entity-1="XFormsEngine" data-entity-2="XPathFunctions" data-source-line="80" data-uid="lnk15" id="link_XFormsEngine_XPathFunctions"><path codeLine="80" d="M814.71,235.5754 C855.51,263.8754 895.7201,291.7855 936.8901,320.3455" fill="none" id="XFormsEngine-to-XPathFunctions" style="stroke:#181818;stroke-width:1;"/><polygon fill="#181818" points="941.82,323.7654,936.7051,315.3489,937.7117,320.9155,932.1452,321.9221,941.82,323.7654" style="stroke:#181818;stroke-width:1;"/><text fill="#000000" font-family="sans-serif" font-size="13" lengthAdjust="spacing" textLength="102.7305" x="894" y="286.9604">XPath evaluation</text></g><!--link SubmissionRequest to SubmissionResponse--><g class="link" data-entity-1="SubmissionRequest" data-entity-2="SubmissionResponse" data-source-line="81" data-uid="lnk16" id="link_SubmissionRequest_SubmissionResponse"><path codeLine="81" d="M462,506.7954 C450.67,530.3354 441.2838,549.8299 430.8938,571.3999" fill="none" id="SubmissionRequest-to-SubmissionResponse" style="stroke:#181818;stroke-width:1;"/><polygon fill="#181818" points="428.29,576.8054,435.7994,570.4329,430.4598,572.3008,428.592,566.9612,428.29,576.8054" style="stroke:#181818;stroke-width:1;"/></g><!--link SubmissionResponse to ModelState--><g class="link" data-entity-1="SubmissionResponse" data-entity-2="ModelState" data-source-line="82" data-uid="lnk17" id="link_SubmissionResponse_ModelState"><path codeLine="82" d="M324.99,696.1754 C293.56,720.7354 261.5483,745.7518 228.9183,771.2418" fill="none" id="SubmissionResponse-to-ModelState" style="stroke:#181818;stroke-width:1;"/><polygon fill="#181818" points="224.19,774.9354,233.7449,772.5471,228.1303,771.8574,228.82,766.2427,224.19,774.9354" style="stroke:#181818;stroke-width:1;"/><text fill="#000000" font-family="sans-serif" font-size="13" lengthAdjust="spacing" textLength="140.8037" x="286" y="740.9604">apply instance updates</text></g></g></svg>