<svg xmlns="http://www.w3.org/2000/svg" xmlns:xlink="http://www.w3.org/1999/xlink" contentStyleType="text/css" data-diagram-type="CLASS" height="919px" preserveAspectRatio="none" style="width:1432px;height:919px;background:#FFFFFF;" version="1.1" viewBox="0 0 1432 919" width="1432px" zoomAndPan="magnify"><title>Runtime structures (logical class model)</title><defs/><g><g class="title" data-source-line="1"><text fill="#000000" font-family="sans-serif" font-size="14" font-weight="bold" lengthAdjust="spacing" textLength="281.6953" x="568.5781" y="24.9639">Runtime structures (logical class model)</text></g><!--class XFormsEngine--><g class="entity" data-entity="XFormsEngine" data-source-line="4" data-uid="ent0002" id="entity_XFormsEngine"><rect fill="#F1F1F1" height="194.8652" rx="2.5" ry="2.5" style="stroke:#181818;stroke-width:0.5;" width="311.0586" x="485.5" y="47.0654"/><ellipse cx="588.4414" cy="69.769" fill="#ADD1B2" rx="11" ry="11" style="stroke:#181818;stroke-width:1;"/><path d="M591.4102,75.4097 Q590.832,75.7065 590.1914,75.8472 Q589.5508,76.0034 588.8477,76.0034 Q586.3477,76.0034 585.0195,74.3628 Q583.707,72.7065 583.707,69.5815 Q583.707,66.4565 585.0195,64.8003 Q586.3477,63.144 588.8477,63.144 Q589.5508,63.144 590.1914,63.3003 Q590.8477,63.4565 591.4102,63.7534 L591.4102,66.4722 Q590.7852,65.894 590.1914,65.6284 Q589.5977,65.3472 588.9727,65.3472 Q587.6289,65.3472 586.9414,66.4253 Q586.2539,67.4878 586.2539,69.5815 Q586.2539,71.6753 586.9414,72.7534 Q587.6289,73.8159 588.9727,73.8159 Q589.5977,73.8159 590.1914,73.5503 Q590.7852,73.269 591.4102,72.6909 L591.4102,75.4097 Z " fill="#000000"/><text fill="#000000" font-family="sans-serif" font-size="12" font-style="italic" lengthAdjust="spacing" textLength="100.6758" x="606.9414" y="64.8916">&#xab;saxon-xforms.xsl&#xbb;</text><text fill="#000000" font-family="sans-serif" font-size="14" lengthAdjust="spacing" textLength="94.7324" x="609.9131" y="83.3711">XFormsEngine</text><line style="stroke:#181818;stroke-width:0.5;" x1="486.5" x2="795.5586" y1="92.4727" y2="92.4727"/><line style="stroke:#181818;stroke-width:0.5;" x1="486.5" x2="795.5586" y1="100.4727" y2="100.4727"/><text fill="#000000" font-family="sans-serif" font-size="14" lengthAdjust="spacing" textLength="226.625" x="491.5" y="119.4365">+xformsjs-main() : template (L154)</text><text fill="#000000" font-family="sans-serif" font-size="14" lengthAdjust="spacing" textLength="299.0586" x="491.5" y="138.502">+xforms-model-construct() : template (L5205)</text><text fill="#000000" font-family="sans-serif" font-size="14" lengthAdjust="spacing" textLength="237.5898" x="491.5" y="157.5674">+xforms-rebuild() : template (L5296)</text><text fill="#000000" font-family="sans-serif" font-size="14" lengthAdjust="spacing" textLength="262.459" x="491.5" y="176.6328">+xforms-recalculate() : template (L5392)</text><text fill="#000000" font-family="sans-serif" font-size="14" lengthAdjust="spacing" textLength="256.0879" x="491.5" y="195.6982">+xforms-revalidate() : template (L5531)</text><text fill="#000000" font-family="sans-serif" font-size="14" lengthAdjust="spacing" textLength="238.3486" x="491.5" y="214.7637">+xforms-refresh() : template (L5622)</text><text fill="#000000" font-family="sans-serif" font-size="14" lengthAdjust="spacing" textLength="223.7676" x="491.5" y="233.8291">+applyActions() : template (L4666)</text></g><!--class ModelState--><g class="entity" data-entity="ModelState" data-source-line="14" data-uid="ent0003" id="entity_ModelState"><rect fill="#F1F1F1" height="137.6689" rx="2.5" ry="2.5" style="stroke:#181818;stroke-width:0.5;" width="260.1924" x="7" y="775.0654"/><ellipse cx="95.4331" cy="797.769" fill="#ADD1B2" rx="11" ry="11" style="stroke:#181818;stroke-width:1;"/><path d="M98.4019,803.4097 Q97.8237,803.7065 97.1831,803.8472 Q96.5425,804.0034 95.8394,804.0034 Q93.3394,804.0034 92.0112,802.3628 Q90.6987,800.7065 90.6987,797.5815 Q90.6987,794.4565 92.0112,792.8003 Q93.3394,791.144 95.8394,791.144 Q96.5425,791.144 97.1831,791.3003 Q97.8394,791.4565 98.4019,791.7534 L98.4019,794.4722 Q97.7769,793.894 97.1831,793.6284 Q96.5894,793.3472 95.9644,793.3472 Q94.6206,793.3472 93.9331,794.4253 Q93.2456,795.4878 93.2456,797.5815 Q93.2456,799.6753 93.9331,800.7534 Q94.6206,801.8159 95.9644,801.8159 Q96.5894,801.8159 97.1831,801.5503 Q97.7769,801.269 98.4019,800.6909 L98.4019,803.4097 Z " fill="#000000"/><text fill="#000000" font-family="sans-serif" font-size="12" font-style="italic" lengthAdjust="spacing" textLength="69.3691" x="118.6616" y="792.8916">&#xab;in-memory&#xbb;</text><text fill="#000000" font-family="sans-serif" font-size="14" lengthAdjust="spacing" textLength="74.8262" x="115.9331" y="811.3711">ModelState</text><line style="stroke:#181818;stroke-width:0.5;" x1="8" x2="266.1924" y1="820.4727" y2="820.4727"/><line style="stroke:#181818;stroke-width:0.5;" x1="8" x2="266.1924" y1="828.4727" y2="828.4727"/><text fill="#000000" font-family="sans-serif" font-size="14" lengthAdjust="spacing" textLength="248.1924" x="13" y="847.4365">+instances : map(xs:string, element())</text><text fill="#000000" font-family="sans-serif" font-size="14" lengthAdjust="spacing" textLength="207.6758" x="13" y="866.502">+binds : element(xforms:bind)*</text><text fill="#000000" font-family="sans-serif" font-size="14" lengthAdjust="spacing" textLength="125.9111" x="13" y="885.5674">+mipState : map(*)</text><text fill="#000000" font-family="sans-serif" font-size="14" lengthAdjust="spacing" textLength="167.1318" x="13" y="904.6328">+getNode(path) : node()?</text></g><!--class ActionContext--><g class="entity" data-entity="ActionContext" data-source-line="21" data-uid="ent0004" id="entity_ActionContext"><rect fill="#F1F1F1" height="194.8652" rx="2.5" ry="2.5" style="stroke:#181818;stroke-width:0.5;" width="194.2734" x="161" y="321.0654"/><ellipse cx="207.4741" cy="343.769" fill="#ADD1B2" rx="11" ry="11" style="stroke:#181818;stroke-width:1;"/><path d="M210.4429,349.4097 Q209.8647,349.7065 209.2241,349.8472 Q208.5835,350.0034 207.8804,350.0034 Q205.3804,350.0034 204.0522,348.3628 Q202.7397,346.7065 202.7397,343.5815 Q202.7397,340.4565 204.0522,338.8003 Q205.3804,337.144 207.8804,337.144 Q208.5835,337.144 209.2241,337.3003 Q209.8804,337.4565 210.4429,337.7534 L210.4429,340.4722 Q209.8179,339.894 209.2241,339.6284 Q208.6304,339.3472 208.0054,339.3472 Q206.6616,339.3472 205.9741,340.4253 Q205.2866,341.4878 205.2866,343.5815 Q205.2866,345.6753 205.9741,346.7534 Q206.6616,347.8159 208.0054,347.8159 Q208.6304,347.8159 209.2241,347.5503 Q209.8179,347.269 210.4429,346.6909 L210.4429,349.4097 Z " fill="#000000"/><text fill="#000000" font-family="sans-serif" font-size="12" font-style="italic" lengthAdjust="spacing" textLength="72.5039" x="238.1348" y="338.8916">&#xab;action-map&#xbb;</text><text fill="#000000" font-family="sans-serif" font-size="14" lengthAdjust="spacing" textLength="92.8252" x="227.9741" y="357.3711">ActionContext</text><line style="stroke:#181818;stroke-width:0.5;" x1="162" x2="354.2734" y1="366.4727" y2="366.4727"/><text fill="#000000" font-family="sans-serif" font-size="14" lengthAdjust="spacing" textLength="113.251" x="167" y="385.4365">+name : xs:string</text><text fill="#000000" font-family="sans-serif" font-size="14" lengthAdjust="spacing" textLength="94.2539" x="167" y="404.502">+ref : xs:string</text><text fill="#000000" font-family="sans-serif" font-size="14" lengthAdjust="spacing" textLength="182.2734" x="167" y="423.5674">+instanceContext : xs:string</text><text fill="#000000" font-family="sans-serif" font-size="14" lengthAdjust="spacing" textLength="155.4082" x="167" y="442.6328">+ifCondition : xs:string?</text><text fill="#000000" font-family="sans-serif" font-size="14" lengthAdjust="spacing" textLength="181.7539" x="167" y="461.6982">+whileCondition : xs:string?</text><text fill="#000000" font-family="sans-serif" font-size="14" lengthAdjust="spacing" textLength="126.1436" x="167" y="480.7637">+iterate : xs:string?</text><text fill="#000000" font-family="sans-serif" font-size="14" lengthAdjust="spacing" textLength="133.916" x="167" y="499.8291">+bindRef : xs:string?</text><line style="stroke:#181818;stroke-width:0.5;" x1="162" x2="354.2734" y1="507.9307" y2="507.9307"/></g><!--class SubmissionRequest--><g class="entity" data-entity="SubmissionRequest" data-source-line="31" data-uid="ent0005" id="entity_SubmissionRequest"><rect fill="#F1F1F1" height="175.7998" rx="2.5" ry="2.5" style="stroke:#181818;stroke-width:0.5;" width="179.3779" x="390.5" y="330.5654"/><ellipse cx="413.625" cy="353.269" fill="#ADD1B2" rx="11" ry="11" style="stroke:#181818;stroke-width:1;"/><path d="M416.5938,358.9097 Q416.0157,359.2065 415.375,359.3472 Q414.7344,359.5034 414.0313,359.5034 Q411.5313,359.5034 410.2032,357.8628 Q408.8907,356.2065 408.8907,353.0815 Q408.8907,349.9565 410.2032,348.3003 Q411.5313,346.644 414.0313,346.644 Q414.7344,346.644 415.375,346.8003 Q416.0313,346.9565 416.5938,347.2534 L416.5938,349.9722 Q415.9688,349.394 415.375,349.1284 Q414.7813,348.8472 414.1563,348.8472 Q412.8125,348.8472 412.125,349.9253 Q411.4375,350.9878 411.4375,353.0815 Q411.4375,355.1753 412.125,356.2534 Q412.8125,357.3159 414.1563,357.3159 Q414.7813,357.3159 415.375,357.0503 Q415.9688,356.769 416.5938,356.1909 L416.5938,358.9097 Z " fill="#000000"/><text fill="#000000" font-family="sans-serif" font-size="12" font-style="italic" lengthAdjust="spacing" textLength="117.3516" x="435.416" y="348.3916">&#xab;HTTPsubmit (L1801)&#xbb;</text><text fill="#000000" font-family="sans-serif" font-size="14" lengthAdjust="spacing" textLength="129.3223" x="429.4306" y="366.8711">SubmissionRequest</text><line style="stroke:#181818;stroke-width:0.5;" x1="391.5" x2="568.8779" y1="375.9727" y2="375.9727"/><text fill="#000000" font-family="sans-serif" font-size="14" lengthAdjust="spacing" textLength="127.5313" x="396.5" y="394.9365">+method : xs:string</text><text fill="#000000" font-family="sans-serif" font-size="14" lengthAdjust="spacing" textLength="133.6631" x="396.5" y="414.002">+resource : xs:string</text><text fill="#000000" font-family="sans-serif" font-size="14" lengthAdjust="spacing" textLength="155.0459" x="396.5" y="433.0674">+serialization : xs:string</text><text fill="#000000" font-family="sans-serif" font-size="14" lengthAdjust="spacing" textLength="124.127" x="396.5" y="452.1328">+replace : xs:string</text><line style="stroke:#181818;stroke-width:0.5;" x1="391.5" x2="568.8779" y1="460.2344" y2="460.2344"/><text fill="#000000" font-family="sans-serif" font-size="14" lengthAdjust="spacing" textLength="120.4629" x="396.5" y="479.1982">+headers : map(*)</text><text fill="#000000" font-family="sans-serif" font-size="14" lengthAdjust="spacing" textLength="167.3779" x="396.5" y="498.2637">+body : document-node()</text></g><!--class SubmissionResponse--><g class="entity" data-entity="SubmissionResponse" data-source-line="40" data-uid="ent0006" id="entity_SubmissionResponse"><rect fill="#F1F1F1" height="118.6035" rx="2.5" ry="2.5" style="stroke:#181818;stroke-width:0.5;" width="205.9424" x="269" y="577.0654"/><ellipse cx="291.4694" cy="599.769" fill="#ADD1B2" rx="11" ry="11" style="stroke:#181818;stroke-width:1;"/><path d="M294.4381,605.4097 Q293.86,605.7065 293.2194,605.8472 Q292.5788,606.0034 291.8756,606.0034 Q289.3756,606.0034 288.0475,604.3628 Q286.735,602.7065 286.735,599.5815 Q286.735,596.4565 288.0475,594.8003 Q289.3756,593.144 291.8756,593.144 Q292.5788,593.144 293.2194,593.3003 Q293.8756,593.4565 294.4381,593.7534 L294.4381,596.4722 Q293.8131,595.894 293.2194,595.6284 Q292.6256,595.3472 292.0006,595.3472 Q290.6569,595.3472 289.9694,596.4253 Q289.2819,597.4878 289.2819,599.5815 Q289.2819,601.6753 289.9694,602.7534 Q290.6569,603.8159 292.0006,603.8159 Q292.6256,603.8159 293.2194,603.5503 Q293.8131,603.269 294.4381,602.6909 L294.4381,605.4097 Z " fill="#000000"/><text fill="#000000" font-family="sans-serif" font-size="12" font-style="italic" lengthAdjust="spacing" textLength="161.3438" x="305.1292" y="594.8916">&#xab;xforms-submit-done (L6545)&#xbb;</text><text fill="#000000" font-family="sans-serif" font-size="14" lengthAdjust="spacing" textLength="139.4463" x="316.078" y="613.3711">SubmissionResponse</text><line style="stroke:#181818;stroke-width:0.5;" x1="270" x2="473.9424" y1="622.4727" y2="622.4727"/><text fill="#000000" font-family="sans-serif" font-size="14" lengthAdjust="spacing" textLength="124.8652" x="275" y="641.4365">+status : xs:integer</text><line style="stroke:#181818;stroke-width:0.5;" x1="270" x2="473.9424" y1="649.5381" y2="649.5381"/><text fill="#000000" font-family="sans-serif" font-size="14" lengthAdjust="spacing" textLength="144.9971" x="275" y="668.502">+headers : element()*</text><text fill="#000000" font-family="sans-serif" font-size="14" lengthAdjust="spacing" textLength="193.9424" x="275" y="687.5674">+payload : document-node()?</text></g><!--class FunctionLibrary--><g class="entity" data-entity="FunctionLibrary" data-source-line="46" data-uid="ent0007" id="entity_FunctionLibrary"><rect fill="#F1F1F1" height="194.8652" rx="2.5" ry="2.5" style="stroke:#181818;stroke-width:0.5;" width="252.8301" x="604.5" y="321.0654"/><ellipse cx="652.6807" cy="343.769" fill="#ADD1B2" rx="11" ry="11" style="stroke:#181818;stroke-width:1;"/><path d="M655.6494,349.4097 Q655.0713,349.7065 654.4307,349.8472 Q653.79,350.0034 653.0869,350.0034 Q650.5869,350.0034 649.2588,348.3628 Q647.9463,346.7065 647.9463,343.5815 Q647.9463,340.4565 649.2588,338.8003 Q650.5869,337.144 653.0869,337.144 Q653.79,337.144 654.4307,337.3003 Q655.0869,337.4565 655.6494,337.7534 L655.6494,340.4722 Q655.0244,339.894 654.4307,339.6284 Q653.8369,339.3472 653.2119,339.3472 Q651.8682,339.3472 651.1807,340.4253 Q650.4932,341.4878 650.4932,343.5815 Q650.4932,345.6753 651.1807,346.7534 Q651.8682,347.8159 653.2119,347.8159 Q653.8369,347.8159 654.4307,347.5503 Q655.0244,347.269 655.6494,346.6909 L655.6494,349.4097 Z " fill="#000000"/><text fill="#000000" font-family="sans-serif" font-size="12" font-style="italic" lengthAdjust="spacing" textLength="151.9688" x="671.1807" y="338.8916">&#xab;xforms-function-library.xsl&#xbb;</text><text fill="#000000" font-family="sans-serif" font-size="14" lengthAdjust="spacing" textLength="103.1953" x="695.5674" y="357.3711">FunctionLibrary</text><line style="stroke:#181818;stroke-width:0.5;" x1="605.5" x2="856.3301" y1="366.4727" y2="366.4727"/><line style="stroke:#181818;stroke-width:0.5;" x1="605.5" x2="856.3301" y1="374.4727" y2="374.4727"/><text fill="#000000" font-family="sans-serif" font-size="14" lengthAdjust="spacing" textLength="171.6162" x="610.5" y="393.4365">+impose(xpath) : xs:string</text><text fill="#000000" font-family="sans-serif" font-size="14" lengthAdjust="spacing" textLength="211.6338" x="610.5" y="412.502">+resolve-index(xpath) : xs:string</text><text fill="#000000" font-family="sans-serif" font-size="14" lengthAdjust="spacing" textLength="174.8564" x="610.5" y="431.5674">+instance(id?) : element()?</text><text fill="#000000" font-family="sans-serif" font-size="14" lengthAdjust="spacing" textLength="240.8301" x="610.5" y="450.6328">+index(repeatId) : xs:anyAtomicType</text><text fill="#000000" font-family="sans-serif" font-size="14" lengthAdjust="spacing" textLength="176.3945" x="610.5" y="469.6982">+id(value, node?) : node()*</text><text fill="#000000" font-family="sans-serif" font-size="14" lengthAdjust="spacing" textLength="196.7725" x="610.5" y="488.7637">+min(seq) : xs:anyAtomicType</text><text fill="#000000" font-family="sans-serif" font-size="14" lengthAdjust="spacing" textLength="199.7666" x="610.5" y="507.8291">+max(seq) : xs:anyAtomicType</text></g><!--class XPathFunctions--><g class="entity" data-entity="XPathFunctions" data-source-line="56" data-uid="ent0008" id="entity_XPathFunctions"><rect fill="#F1F1F1" height="194.8652" rx="2.5" ry="2.5" style="stroke:#181818;stroke-width:0.5;" width="270.2207" x="893" y="321.0654"/><ellipse cx="949.5889" cy="343.769" fill="#ADD1B2" rx="11" ry="11" style="stroke:#181818;stroke-width:1;"/><path d="M952.5576,349.4097 Q951.9795,349.7065 951.3389,349.8472 Q950.6982,350.0034 949.9951,350.0034 Q947.4951,350.0034 946.167,348.3628 Q944.8545,346.7065 944.8545,343.5815 Q944.8545,340.4565 946.167,338.8003 Q947.4951,337.144 949.9951,337.144 Q950.6982,337.144 951.3389,337.3003 Q951.9951,337.4565 952.5576,337.7534 L952.5576,340.4722 Q951.9326,339.894 951.3389,339.6284 Q950.7451,339.3472 950.1201,339.3472 Q948.7764,339.3472 948.0889,340.4253 Q947.4014,341.4878 947.4014,343.5815 Q947.4014,345.6753 948.0889,346.7534 Q948.7764,347.8159 950.1201,347.8159 Q950.7451,347.8159 951.3389,347.5503 Q951.9326,347.269 952.5576,346.6909 L952.5576,349.4097 Z " fill="#000000"/><text fill="#000000" font-family="sans-serif" font-size="12" font-style="italic" lengthAdjust="spacing" textLength="152.543" x="968.0889" y="338.8916">&#xab;xforms-xpath-functions.xsl&#xbb;</text><text fill="#000000" font-family="sans-serif" font-size="14" lengthAdjust="spacing" textLength="102.0195" x="993.3506" y="357.3711">XPathFunctions</text><line style="stroke:#181818;stroke-width:0.5;" x1="894" x2="1162.2207" y1="366.4727" y2="366.4727"/><line style="stroke:#181818;stroke-width:0.5;" x1="894" x2="1162.2207" y1="374.4727" y2="374.4727"/><text fill="#000000" font-family="sans-serif" font-size="14" lengthAdjust="spacing" textLength="180.4961" x="899" y="393.4365">+property(name) : xs:string</text><text fill="#000000" font-family="sans-serif" font-size="14" lengthAdjust="spacing" textLength="241.1719" x="899" y="412.502">+boolean-from-string(s) : xs:boolean</text><text fill="#000000" font-family="sans-serif" font-size="14" lengthAdjust="spacing" textLength="194.9951" x="899" y="431.5674">+avg(seq) : xs:anyAtomicType</text><text fill="#000000" font-family="sans-serif" font-size="14" lengthAdjust="spacing" textLength="151.1494" x="899" y="450.6328">+event(name) : item()*</text><text fill="#000000" font-family="sans-serif" font-size="14" lengthAdjust="spacing" textLength="113.7842" x="899" y="469.6982">+now() : xs:string</text><text fill="#000000" font-family="sans-serif" font-size="14" lengthAdjust="spacing" textLength="258.2207" x="899" y="488.7637">+days-from-date(d) : xs:anyAtomicType</text><text fill="#000000" font-family="sans-serif" font-size="14" lengthAdjust="spacing" textLength="228.8535" x="899" y="507.8291">+digest(data, algo, enc?) : xs:string</text></g><!--class DomAdapter--><g class="entity" data-entity="DomAdapter" data-source-line="66" data-uid="ent0009" id="entity_DomAdapter"><rect fill="#F1F1F1" height="175.7998" rx="2.5" ry="2.5" style="stroke:#181818;stroke-width:0.5;" width="227.8516" x="1198" y="330.5654"/><ellipse cx="1264.3359" cy="353.269" fill="#ADD1B2" rx="11" ry="11" style="stroke:#181818;stroke-width:1;"/><path d="M1267.3047,358.9097 Q1266.7266,359.2065 1266.0859,359.3472 Q1265.4453,359.5034 1264.7422,359.5034 Q1262.2422,359.5034 1260.9141,357.8628 Q1259.6016,356.2065 1259.6016,353.0815 Q1259.6016,349.9565 1260.9141,348.3003 Q1262.2422,346.644 1264.7422,346.644 Q1265.4453,346.644 1266.0859,346.8003 Q1266.7422,346.9565 1267.3047,347.2534 L1267.3047,349.9722 Q1266.6797,349.394 1266.0859,349.1284 Q1265.4922,348.8472 1264.8672,348.8472 Q1263.5234,348.8472 1262.8359,349.9253 Q1262.1484,350.9878 1262.1484,353.0815 Q1262.1484,355.1753 1262.8359,356.2534 Q1263.5234,357.3159 1264.8672,357.3159 Q1265.4922,357.3159 1266.0859,357.0503 Q1266.6797,356.769 1267.3047,356.1909 L1267.3047,358.9097 Z " fill="#000000"/><text fill="#000000" font-family="sans-serif" font-size="12" font-style="italic" lengthAdjust="spacing" textLength="90.6797" x="1282.8359" y="348.3916">&#xab;ixsl: extensions&#xbb;</text><text fill="#000000" font-family="sans-serif" font-size="14" lengthAdjust="spacing" textLength="84.54" x="1285.9058" y="366.8711">DomAdapter</text><line style="stroke:#181818;stroke-width:0.5;" x1="1199" x2="1424.8516" y1="375.9727" y2="375.9727"/><line style="stroke:#181818;stroke-width:0.5;" x1="1199" x2="1424.8516" y1="383.9727" y2="383.9727"/><text fill="#000000" font-family="sans-serif" font-size="14" lengthAdjust="spacing" textLength="202.8701" x="1204" y="402.9365">+ixsl:page() : document-node()</text><text fill="#000000" font-family="sans-serif" font-size="14" lengthAdjust="spacing" textLength="130.6074" x="1204" y="422.002">+ixsl:event() : item()</text><text fill="#000000" font-family="sans-serif" font-size="14" lengthAdjust="spacing" textLength="142.249" x="1204" y="441.0674">+ixsl:call(obj, fn, args)</text><text fill="#000000" font-family="sans-serif" font-size="14" lengthAdjust="spacing" textLength="215.8516" x="1204" y="460.1328">+ixsl:set-property(obj, name, val)</text><text fill="#000000" font-family="sans-serif" font-size="14" lengthAdjust="spacing" textLength="158.0947" x="1204" y="479.1982">+setFocus(controlId) : JS</text><text fill="#000000" font-family="sans-serif" font-size="14" lengthAdjust="spacing" textLength="201.3799" x="1204" y="498.2637">+readFileAsXML(file, instId) : JS</text></g><!--reverse link XFormsEngine to ModelState--><g class="link" data-entity-1="XFormsEngine" data-entity-2="ModelState" data-source-line="75" data-uid="lnk10" id="link_XFormsEngine_ModelState"><path codeLine="75" d="M473.3948,156.6114 C358.2748,172.6514 220.49,212.9254 143,321.0654 C45.74,456.8054 85.37,667.5554 115.23,775.0254" fill="none" id="XFormsEngine-backto-ModelState" style="stroke:#181818;stroke-width:1;"/><polygon fill="#181818" points="485.28,154.9554,478.7854,151.8217,473.3948,156.6114,479.8894,159.7452,485.28,154.9554" style="stroke:#181818;stroke-width:1;"/></g><!--link XFormsEngine to ActionContext--><g class="link" data-entity-1="XFormsEngine" data-entity-2="ActionContext" data-source-line="76" data-uid="lnk11" id="link_XFormsEngine_ActionContext"><path codeLine="76" d="M485.47,196.0254 C440.67,215.2754 393.74,240.4054 356,272.0654 C339.55,285.8654 328.251,298.2372 315.401,315.9672" fill="none" id="XFormsEngine-to-ActionContext" style="stroke:#181818;stroke-width:1;"/><polygon fill="#181818" points="311.88,320.8254,320.4004,315.8855,314.8142,316.7769,313.9228,311.1907,311.88,320.8254" style="stroke:#181818;stroke-width:1;"/><text fill="#000000" font-family="sans-serif" font-size="13" lengthAdjust="spacing" textLength="161.9668" x="357" y="286.9604">builds via set-action (L847)</text></g><!--link XFormsEngine to DomAdapter--><g class="link" data-entity-1="XFormsEngine" data-entity-2="DomAdapter" data-source-line="77" data-uid="lnk12" id="link_XFormsEngine_DomAdapter"><path codeLine="77" d="M796.64,181.9354 C907.45,211.1754 1057.91,257.8354 1181,321.0654 C1186.65,323.9654 1187.143,324.0725 1192.793,327.3825" fill="none" id="XFormsEngine-to-DomAdapter" style="stroke:#181818;stroke-width:1;"/><polygon fill="#181818" points="1197.97,330.4154,1192.2264,322.4147,1193.6558,327.888,1188.1825,329.3174,1197.97,330.4154" style="stroke:#181818;stroke-width:1;"/><text fill="#000000" font-family="sans-serif" font-size="13" lengthAdjust="spacing" textLength="138.9248" x="1113" y="286.9604">refresh/event dispatch</text></g><!--link XFormsEngine to SubmissionRequest--><g class="link" data-entity-1="XFormsEngine" data-entity-2="SubmissionRequest" data-source-line="78" data-uid="lnk13" id="link_XFormsEngine_SubmissionRequest"><path codeLine="78" d="M556.63,242.0954 C549.58,251.9354 542.9,262.0154 537,272.0654 C526.36,290.1954 519.1719,305.12 511.2119,324.88" fill="none" id="XFormsEngine-to-SubmissionRequest" style="stroke:#181818;stroke-width:1;"/><polygon fill="#181818" points="508.97,330.4454,516.0432,323.5919,510.8383,325.8076,508.6226,320.6027,508.97,330.4454" style="stroke:#181818;stroke-width:1;"/><text fill="#000000" font-family="sans-serif" font-size="13" lengthAdjust="spacing" textLength="137.8647" x="538" y="286.9604">xforms-submit (L5729)</text></g><!--link XFormsEngine to FunctionLibrary--><g class="link" data-entity-1="XFormsEngine" data-entity-2="FunctionLibrary" data-source-line="79" data-uid="lnk14" id="link_XFormsEngine_FunctionLibrary"><path codeLine="79" d="M672.98,242.2254 C681.42,267.7254 688.6454,289.5491 697.0854,315.0591" fill="none" id="XFormsEngine-to-FunctionLibrary" style="stroke:#181818;stroke-width:1;"/><polygon fill="#181818" points="698.97,320.7554,699.9406,310.9545,697.3995,316.0085,692.3455,313.4674,698.97,320.7554" style="stroke:#181818;stroke-width:1;"/><text fill="#000000" font-family="sans-serif" font-size="13" lengthAdjust="spacing" textLength="102.7305" x="690" y="286.9604">XPath evaluation</text></g><!--link XFormsEngine to XPathFunctions--><g class="link" data-entity-1="XFormsEngine" data-entity-2="XPathFunctions" data-source-line="80" data-uid="lnk15" id="link_XFormsEngine_XPathFunctions"><path codeLine="80" d="M778.53,242.2254 C815.68,268.3354 850.9312,293.1152 887.9512,319.1352" fill="none" id="XFormsEngine-to-XPathFunctions" style="stroke:#181818;stroke-width:1;"/><polygon fill="#181818" points="892.86,322.5854,887.797,314.1376,888.7694,319.7103,883.1967,320.6826,892.86,322.5854" style="stroke:#181818;stroke-width:1;"/><text fill="#000000" font-family="sans-serif" font-size="13" lengthAdjust="spacing" textLength="102.7305" x="848" y="286.9604">XPath evaluation</text></g><!--link SubmissionRequest to SubmissionResponse--><g class="link" data-entity-1="SubmissionRequest" data-entity-2="SubmissionResponse" data-source-line="81" data-uid="lnk16" id="link_SubmissionRequest_SubmissionResponse"><path codeLine="81" d="M436.38,506.7954 C424.62,530.3354 414.8543,549.8694 404.0643,571.4394" fill="none" id="SubmissionRequest-to-SubmissionResponse" style="stroke:#181818;stroke-width:1;"/><polygon fill="#181818" points="401.38,576.8054,408.9838,570.5458,403.6169,572.3337,401.829,566.9668,401.38,576.8054" style="stroke:#181818;stroke-width:1;"/></g><!--link SubmissionResponse to ModelState--><g class="link" data-entity-1="SubmissionResponse" data-entity-2="ModelState" data-source-line="82" data-uid="lnk17" id="link_SubmissionResponse_ModelState"><path codeLine="82" d="M304.97,696.1754 C276.89,720.7354 248.5767,745.4958 219.4267,770.9858" fill="none" id="SubmissionResponse-to-ModelState" style="stroke:#181818;stroke-width:1;"/><polygon fill="#181818" points="214.91,774.9354,224.3181,772.0222,218.6739,771.6441,219.052,765.9999,214.91,774.9354" style="stroke:#181818;stroke-width:1;"/><text fill="#000000" font-family="sans-serif" font-size="13" lengthAdjust="spacing" textLength="140.8037" x="270" y="740.9604">apply instance updates</text></g><!--SRC=[VLLDRziu4BtxL_0efLOtIMEtCO8OHhl1Tf4MHP93hhGubjdoGoKfL-fY__iEHKdMXxqtU-PHC-_npT1n9u0y5Sfn2SGwKwIkC61997J6Kof8AgYrH6e68fxP7rpbr50PmXld3DyM3ZwdMZtptq0kPxDmuFL16sd_L1bNGExkB2srIigT3xujhRY_9__C27aJ8jzj8YbNKKnMn87C1NL0eiUhnKry12Lr3mbM2csEqOlhoqKVRc1RSC6ciDlb48Oiqy9d9z1tjzT3w84ApauX5- -kXiWTYhYVm9RNuOCqpqMrIHr7CcFGpNA93VxR2ld5itvsFdTtnrKYGMfJjVfn58Eg52ziHIJDezAkK1skiZa10H8KobHNt7B5FAYDXaPNFXnVU83aUQWIFdHHdyh0VSNwKKxTthUf_9zuVUmkSFYebOFIOOEq_e-tcRSTAYhzDxl6V0pb6OTQ8ksdnkaT9XZt7- -drZxtQyy5d4zp1oRm6iOzzQTX8prYpyLMSclnWq_mim3hoVtrylBD-hZpvlnmUHMt92MulMPJcbON9ftGtmDbOEn0wQrc5GQOJWj_FqbGscSi68ws-qt7x489jCsemaaEDaUhUGir3Wqy4gQLzznoSRFeoE15kCA6JtAyZGpCiElEMRLnSbe9JTcq-PwQ3uMgZV78juQQwjZ6haaa8cJwku7BN5k8ojPy4st50HAyH2ZFO5fFHPojutxVmHVrIHGGgFlCciDKLHkd9KzVgXng58jmw0kOrzvV7uUW6HeLMVXvxh2avTbqfythD-oz5SWUfQavTG8DjcPkT0x6LP4VhWdjhTO2g4fsHiiaX2FRe9fSlOCEsV_r3WSlLLi0XqWsd9N-5KrgCbhPKB1UZsVbP3p3MOeGHEU4YapZdbBfEZvju4zQRXZDSO3zxaC1y0vB1yfRsdOsyV6SPc4fdnYW6X3e7Abq2Tp-8jBRxtEoKzYIoUmnPy4bdTOrnkin9-Y8PZJT0zQp4JvApcWHRFJtSp0ePG-uc3RszSjZjCDVS-8DsM6GvU2Hl4YIth8VvfBaVhHgLwH-tImvS4fyds7puYn_k7aVJq_tf5oHvddwenQ5C6xHQkb-UcYw1F6Q-ll3lsdlhszFr1jF_2hudFWdjAXNsVJCQ19E79asD6upxBdPYTNdaRt7T4NgHvYqIu8KkRUk_Gy0]--></g></svg>