<svg xmlns="http://www.w3.org/2000/svg" xmlns:xlink="http://www.w3.org/1999/xlink" contentStyleType="text/css" data-diagram-type="DESCRIPTION" height="1040px" preserveAspectRatio="none" style="width:1668px;height:1040px;background:#FFFFFF;" version="1.1" viewBox="0 0 1668 1040" width="1668px" zoomAndPan="magnify"><title>SaxonForms component model and one-hop environment interactions</title><defs/><g><g class="title" data-source-line="1"><text fill="#000000" font-family="sans-serif" font-size="14" font-weight="bold" lengthAdjust="spacing" textLength="491.8252" x="581.3389" y="24.9639">SaxonForms component model and one-hop environment interactions</text></g><!--cluster Browser Environment--><g class="cluster" data-entity="Browser Environment" data-source-line="5" data-uid="ent0002" id="cluster_Browser Environment"><rect fill="none" height="409" rx="2.5" ry="2.5" style="stroke:#181818;stroke-width:1;" width="338" x="43" y="625.1054"/><text fill="#000000" font-family="sans-serif" font-size="14" font-weight="bold" lengthAdjust="spacing" textLength="152.4414" x="135.7793" y="642.0693">Browser Environment</text></g><!--cluster SaxonForms Runtime--><g class="cluster" data-entity="SaxonForms Runtime" data-source-line="11" data-uid="ent0006" id="cluster_SaxonForms Runtime"><rect fill="none" height="822" rx="2.5" ry="2.5" style="stroke:#181818;stroke-width:1;" width="648" x="405" y="92.1054"/><text fill="#000000" font-family="sans-serif" font-size="14" font-weight="bold" lengthAdjust="spacing" textLength="149.1943" x="654.4028" y="109.0693">SaxonForms Runtime</text></g><!--cluster SaxonJS 3--><g class="cluster" data-entity="SaxonJS 3" data-source-line="21" data-uid="ent0014" id="cluster_SaxonJS 3"><rect fill="none" height="134" rx="2.5" ry="2.5" style="stroke:#181818;stroke-width:1;" width="218" x="1077" y="111.1054"/><text fill="#000000" font-family="sans-serif" font-size="14" font-weight="bold" lengthAdjust="spacing" textLength="65.8232" x="1153.0884" y="128.0693">SaxonJS 3</text></g><!--entity DOM--><g class="entity" data-entity="DOM" data-source-line="6" data-uid="ent0003" id="entity_DOM"><rect fill="#F1F1F1" height="39.0654" rx="2.5" ry="2.5" style="stroke:#181818;stroke-width:0.5;" width="131.0566" x="233.5" y="849.6054"/><text fill="#000000" font-family="sans-serif" font-size="14" lengthAdjust="spacing" textLength="111.0566" x="243.5" y="874.5693">HTML/DOM Tree</text></g><!--entity EVENT_LOOP--><g class="entity" data-entity="EVENT_LOOP" data-source-line="7" data-uid="ent0004" id="entity_EVENT_LOOP"><rect fill="#F1F1F1" height="39.0654" rx="2.5" ry="2.5" style="stroke:#181818;stroke-width:0.5;" width="130.5098" x="59.5" y="979.1054"/><text fill="#000000" font-family="sans-serif" font-size="14" lengthAdjust="spacing" textLength="110.5098" x="69.5" y="1004.0693">DOM Event Loop</text></g><!--entity JS_RUNTIME--><g class="entity" data-entity="JS_RUNTIME" data-source-line="8" data-uid="ent0005" id="entity_JS_RUNTIME"><rect fill="#F1F1F1" height="58.1309" rx="2.5" ry="2.5" style="stroke:#181818;stroke-width:0.5;" width="212.459" x="90" y="685.1054"/><text fill="#000000" font-family="sans-serif" font-size="14" lengthAdjust="spacing" textLength="123.4023" x="100" y="710.0693">JavaScript Runtime</text><text fill="#000000" font-family="sans-serif" font-size="14" lengthAdjust="spacing" textLength="192.459" x="100" y="729.1347">(xforms-javascript-library.xsl)</text></g><!--entity XFORMS_SOURCE--><g class="entity" data-entity="XFORMS_SOURCE" data-source-line="12" data-uid="ent0007" id="entity_XFORMS_SOURCE"><rect fill="#F1F1F1" height="58.1309" rx="2.5" ry="2.5" style="stroke:#181818;stroke-width:0.5;" width="205.4795" x="562.5" y="171.1054"/><text fill="#000000" font-family="sans-serif" font-size="14" lengthAdjust="spacing" textLength="98.3623" x="572.5" y="196.0693">XForms Source</text><text fill="#000000" font-family="sans-serif" font-size="14" lengthAdjust="spacing" textLength="185.4795" x="572.5" y="215.1347">(xforms:xform / xhtml:html)</text></g><!--entity SEF--><g class="entity" data-entity="SEF" data-source-line="13" data-uid="ent0008" id="entity_SEF"><rect fill="#F1F1F1" height="58.1309" rx="2.5" ry="2.5" style="stroke:#181818;stroke-width:0.5;" width="171.0469" x="795.5" y="327.1054"/><text fill="#000000" font-family="sans-serif" font-size="14" lengthAdjust="spacing" textLength="95.3203" x="805.5" y="352.0693">SEF Transform</text><text fill="#000000" font-family="sans-serif" font-size="14" lengthAdjust="spacing" textLength="151.0469" x="805.5" y="371.1347">(saxon-xforms.sef.xml)</text></g><!--entity MODEL_STATE--><g class="entity" data-entity="MODEL_STATE" data-source-line="14" data-uid="ent0009" id="entity_MODEL_STATE"><rect fill="#F1F1F1" height="58.1309" rx="2.5" ry="2.5" style="stroke:#181818;stroke-width:0.5;" width="174.8408" x="557.5" y="685.1054"/><text fill="#000000" font-family="sans-serif" font-size="14" lengthAdjust="spacing" textLength="78.4629" x="567.5" y="710.0693">Model State</text><text fill="#000000" font-family="sans-serif" font-size="14" lengthAdjust="spacing" textLength="154.8408" x="567.5" y="729.1347">(instances, binds, MIPs)</text></g><!--entity ACTIONS--><g class="entity" data-entity="ACTIONS" data-source-line="15" data-uid="ent0010" id="entity_ACTIONS"><rect fill="#F1F1F1" height="96.2617" rx="2.5" ry="2.5" style="stroke:#181818;stroke-width:0.5;" width="190.1123" x="803" y="152.1054"/><text fill="#000000" font-family="sans-serif" font-size="14" lengthAdjust="spacing" textLength="116.1973" x="813" y="177.0693">Action Dispatcher</text><text fill="#000000" font-family="sans-serif" font-size="14" lengthAdjust="spacing" textLength="83.9863" x="813" y="196.1347">applyActions</text><text fill="#000000" font-family="sans-serif" font-size="14" lengthAdjust="spacing" textLength="170.1123" x="813" y="215.2002">outermost-action-handler</text><text fill="#000000" font-family="sans-serif" font-size="14" lengthAdjust="spacing" textLength="146.7061" x="813" y="234.2656">(src/saxon-xforms.xsl)</text></g><!--entity SUBMISSION--><g class="entity" data-entity="SUBMISSION" data-source-line="16" data-uid="ent0011" id="entity_SUBMISSION"><rect fill="#F1F1F1" height="96.2617" rx="2.5" ry="2.5" style="stroke:#181818;stroke-width:0.5;" width="166.7061" x="420.5" y="464.1054"/><text fill="#000000" font-family="sans-serif" font-size="14" lengthAdjust="spacing" textLength="132.1934" x="430.5" y="489.0693">Submission Adapter</text><text fill="#000000" font-family="sans-serif" font-size="14" lengthAdjust="spacing" textLength="80.1445" x="430.5" y="508.1347">HTTPsubmit</text><text fill="#000000" font-family="sans-serif" font-size="14" lengthAdjust="spacing" textLength="96.7559" x="430.5" y="527.2002">xforms-submit</text><text fill="#000000" font-family="sans-serif" font-size="14" lengthAdjust="spacing" textLength="146.7061" x="430.5" y="546.2656">(src/saxon-xforms.xsl)</text></g><!--entity FUNC_LIB--><g class="entity" data-entity="FUNC_LIB" data-source-line="17" data-uid="ent0012" id="entity_FUNC_LIB"><rect fill="#F1F1F1" height="77.1963" rx="2.5" ry="2.5" style="stroke:#181818;stroke-width:0.5;" width="196.1758" x="622" y="473.6054"/><text fill="#000000" font-family="sans-serif" font-size="14" lengthAdjust="spacing" textLength="106.832" x="632" y="498.5693">Function Library</text><text fill="#000000" font-family="sans-serif" font-size="14" lengthAdjust="spacing" textLength="174.2822" x="632" y="517.6347">xforms-function-library.xsl</text><text fill="#000000" font-family="sans-serif" font-size="14" lengthAdjust="spacing" textLength="176.1758" x="632" y="536.7002">xforms-xpath-functions.xsl</text></g><!--entity XSD--><g class="entity" data-entity="XSD" data-source-line="18" data-uid="ent0013" id="entity_XSD"><rect fill="#F1F1F1" height="58.1309" rx="2.5" ry="2.5" style="stroke:#181818;stroke-width:0.5;" width="118.1094" x="586" y="840.1054"/><text fill="#000000" font-family="sans-serif" font-size="14" lengthAdjust="spacing" textLength="80.623" x="596" y="865.0693">XSD Helpers</text><text fill="#000000" font-family="sans-serif" font-size="14" lengthAdjust="spacing" textLength="98.1094" x="596" y="884.1347">xsd-helpers.xsl</text></g><!--entity SAXONJS--><g class="entity" data-entity="SAXONJS" data-source-line="22" data-uid="ent0015" id="entity_SAXONJS"><rect fill="#F1F1F1" height="58.1309" rx="2.5" ry="2.5" style="stroke:#181818;stroke-width:0.5;" width="186.8994" x="1092.5" y="171.1054"/><text fill="#000000" font-family="sans-serif" font-size="14" lengthAdjust="spacing" textLength="153.8633" x="1102.5" y="196.0693">Interactive XSLT Engine</text><text fill="#000000" font-family="sans-serif" font-size="14" lengthAdjust="spacing" textLength="166.8994" x="1102.5" y="215.1347">ixsl:* extension functions</text></g><g class="entity" data-entity="GMN30" data-source-line="41" data-uid="ent0031" id="entity_GMN30"><path d="M1314.5,168.6054 L1314.5,231.7163 L1661.5029,231.7163 L1661.5029,178.6054 L1651.5029,168.6054 L1314.5,168.6054" fill="#FEFFDD" style="stroke:#181818;stroke-width:0.5;"/><path d="M1651.5029,168.6054 L1651.5029,178.6054 L1661.5029,178.6054 L1651.5029,168.6054" fill="#FEFFDD" style="stroke:#181818;stroke-width:1;"/><text fill="#000000" font-family="sans-serif" font-size="13" lengthAdjust="spacing" textLength="257.2197" x="1320.5" y="187.5004">One-hop browser interactions are explicit:</text><text fill="#000000" font-family="sans-serif" font-size="13" lengthAdjust="spacing" textLength="278.2432" x="1320.5" y="205.2041">DOM and JS runtime are first-class neighbors.</text><text fill="#000000" font-family="sans-serif" font-size="13" lengthAdjust="spacing" textLength="326.0029" x="1320.5" y="222.9077">Symbol names map to templates in saxon-xforms.xsl.</text></g><!--link XFORMS_SOURCE to SAXONJS--><g class="link" data-entity-1="XFORMS_SOURCE" data-entity-2="SAXONJS" data-source-line="25" data-uid="lnk16" id="link_XFORMS_SOURCE_SAXONJS"><path d="M686.17,170.9454 C707.77,143.8954 744.03,105.4454 786,89.1054 C896.59,46.0654 941.44,48.6654 1053,89.1054 C1097.67,105.2954 1133.8709,139.3125 1158.0909,166.4025" fill="none" id="XFORMS_SOURCE-to-SAXONJS" style="stroke:#181818;stroke-width:1;"/><polygon fill="#181818" points="1162.09,170.8754,1159.0734,161.4999,1158.7574,167.148,1153.1094,166.832,1162.09,170.8754" style="stroke:#181818;stroke-width:1;"/><text fill="#000000" font-family="sans-serif" font-size="13" lengthAdjust="spacing" textLength="253.1699" x="803.5" y="72.0004">SaxonJS.transform2({stylesheetLocation})</text></g><!--link SAXONJS to SEF--><g class="link" data-entity-1="SAXONJS" data-entity-2="SEF" data-source-line="26" data-uid="lnk17" id="link_SAXONJS_SEF"><path d="M1155.11,229.1354 C1130.55,250.2254 1094.53,278.5554 1059,297.1054 C1030.19,312.1454 1002.4571,322.5288 972.3771,331.7388" fill="none" id="SAXONJS-to-SEF" style="stroke:#181818;stroke-width:1;"/><polygon fill="#181818" points="966.64,333.4954,976.4167,334.6853,971.4209,332.0316,974.0746,327.0358,966.64,333.4954" style="stroke:#181818;stroke-width:1;"/><text fill="#000000" font-family="sans-serif" font-size="13" lengthAdjust="spacing" textLength="139.0137" x="1089" y="293.0004">execute xformsjs-main</text></g><!--link SEF to MODEL_STATE--><g class="link" data-entity-1="SEF" data-entity-2="MODEL_STATE" data-source-line="27" data-uid="lnk18" id="link_SEF_MODEL_STATE"><path d="M890.88,385.2554 C906.45,435.0154 930.51,539.7954 885,609.1054 C851.36,660.3554 792.2764,685.0424 738.4464,698.2824" fill="none" id="SEF-to-MODEL_STATE" style="stroke:#181818;stroke-width:1;"/><polygon fill="#181818" points="732.62,699.7154,742.3149,701.4501,737.4753,698.5212,740.4042,693.6816,732.62,699.7154" style="stroke:#181818;stroke-width:1;"/><text fill="#000000" font-family="sans-serif" font-size="13" lengthAdjust="spacing" textLength="147.9004" x="912" y="517.5004">xforms-model-construct</text></g><!--link SEF to FUNC_LIB--><g class="link" data-entity-1="SEF" data-entity-2="FUNC_LIB" data-source-line="28" data-uid="lnk19" id="link_SEF_FUNC_LIB"><path d="M795.24,369.0554 C741.53,378.5054 679.47,393.6854 663,415.1054 C649.06,433.2354 656.1332,450.5363 672.0632,468.7763" fill="none" id="SEF-to-FUNC_LIB" style="stroke:#181818;stroke-width:1;"/><polygon fill="#181818" points="676.01,473.2954,673.1025,463.8855,672.721,469.5295,667.077,469.1479,676.01,473.2954" style="stroke:#181818;stroke-width:1;"/><text fill="#000000" font-family="sans-serif" font-size="13" lengthAdjust="spacing" textLength="214.7349" x="664" y="430.0004">xforms:impose(), xforms:instance()</text></g><!--link FUNC_LIB to MODEL_STATE--><g class="link" data-entity-1="FUNC_LIB" data-entity-2="MODEL_STATE" data-source-line="29" data-uid="lnk20" id="link_FUNC_LIB_MODEL_STATE"><path d="M692.87,550.8954 C685.2,562.9654 677.47,576.6854 672,590.1054 C659.3,621.2854 652.9748,653.5281 649.2648,678.9981" fill="none" id="FUNC_LIB-to-MODEL_STATE" style="stroke:#181818;stroke-width:1;"/><polygon fill="#181818" points="648.4,684.9354,653.6555,676.606,649.1207,679.9876,645.739,675.4529,648.4,684.9354" style="stroke:#181818;stroke-width:1;"/><text fill="#000000" font-family="sans-serif" font-size="13" lengthAdjust="spacing" textLength="207.7524" x="673" y="605.0004">evaluate-xpath-with-context-node</text></g><!--link MODEL_STATE to XSD--><g class="link" data-entity-1="MODEL_STATE" data-entity-2="XSD" data-source-line="30" data-uid="lnk21" id="link_MODEL_STATE_XSD"><path d="M645,743.1654 C645,770.6854 645,806.4154 645,833.9654" fill="none" id="MODEL_STATE-to-XSD" style="stroke:#181818;stroke-width:1;"/><polygon fill="#181818" points="645,839.9654,649,830.9654,645,834.9654,641,830.9654,645,839.9654" style="stroke:#181818;stroke-width:1;"/><text fill="#000000" font-family="sans-serif" font-size="13" lengthAdjust="spacing" textLength="115.813" x="646" y="797.0004">xsdh:is-type-valid()</text></g><!--link MODEL_STATE to DOM--><g class="link" data-entity-1="MODEL_STATE" data-entity-2="DOM" data-source-line="31" data-uid="lnk22" id="link_MODEL_STATE_DOM"><path d="M581.54,743.1654 C511.5,774.1354 406.2577,820.6794 346.3377,847.1694" fill="none" id="MODEL_STATE-to-DOM" style="stroke:#181818;stroke-width:1;"/><polygon fill="#181818" points="340.85,849.5954,350.6988,849.6148,345.423,847.5737,347.4641,842.2979,340.85,849.5954" style="stroke:#181818;stroke-width:1;"/><text fill="#000000" font-family="sans-serif" font-size="13" lengthAdjust="spacing" textLength="91.5269" x="522.7725" y="788.0004">xforms-refresh</text><text fill="#000000" font-family="sans-serif" font-size="13" lengthAdjust="spacing" textLength="109.0718" x="514" y="805.7041">refreshOutputs-JS</text></g><!--link DOM to EVENT_LOOP--><g class="link" data-entity-1="DOM" data-entity-2="EVENT_LOOP" data-source-line="32" data-uid="lnk23" id="link_DOM_EVENT_LOOP"><path d="M273.7,888.6454 C240.71,912.8154 188.1796,951.3089 155.1696,975.4989" fill="none" id="DOM-to-EVENT_LOOP" style="stroke:#181818;stroke-width:1;"/><polygon fill="#181818" points="150.33,979.0454,159.9538,976.9521,154.363,976.09,155.2251,970.4992,150.33,979.0454" style="stroke:#181818;stroke-width:1;"/><text fill="#000000" font-family="sans-serif" font-size="13" lengthAdjust="spacing" textLength="207.543" x="213" y="945.0004">native onchange/onclick/onkeyup</text></g><!--link EVENT_LOOP to ACTIONS--><g class="link" data-entity-1="EVENT_LOOP" data-entity-2="ACTIONS" data-source-line="33" data-uid="lnk24" id="link_EVENT_LOOP_ACTIONS"><path d="M89.62,979.0854 C54.54,957.8854 6,919.6154 6,870.1054 C6,355.1054 6,355.1054 6,355.1054 C6,180.5154 617.25,301.4754 785,253.1054 C790.91,251.3954 791.2628,251.4524 797.2528,249.3024" fill="none" id="EVENT_LOOP-to-ACTIONS" style="stroke:#181818;stroke-width:1;"/><polygon fill="#181818" points="802.9,247.2754,793.0778,246.5511,798.194,248.9646,795.7804,254.0807,802.9,247.2754" style="stroke:#181818;stroke-width:1;"/><text fill="#000000" font-family="sans-serif" font-size="13" lengthAdjust="spacing" textLength="235.2505" x="7" y="605.0004">ixsl:onchange/onclick mode templates</text></g><!--link ACTIONS to SEF--><g class="link" data-entity-1="ACTIONS" data-entity-2="SEF" data-source-line="34" data-uid="lnk25" id="link_ACTIONS_SEF"><path d="M892.81,248.1454 C889.98,273.7954 887.2166,298.7415 884.7966,320.7215" fill="none" id="ACTIONS-to-SEF" style="stroke:#181818;stroke-width:1;"/><polygon fill="#181818" points="884.14,326.6854,889.1009,318.1772,884.6872,321.7155,881.149,317.3017,884.14,326.6854" style="stroke:#181818;stroke-width:1;"/><text fill="#000000" font-family="sans-serif" font-size="13" lengthAdjust="spacing" textLength="160.4243" x="890" y="293.0004">action-* named templates</text></g><!--link SUBMISSION to JS_RUNTIME--><g class="link" data-entity-1="SUBMISSION" data-entity-2="JS_RUNTIME" data-source-line="35" data-uid="lnk26" id="link_SUBMISSION_JS_RUNTIME"><path d="M420.42,549.3554 C395.8,561.2054 369.25,575.1954 346,590.1054 C301.49,618.6454 259.6002,654.4 230.4202,680.92" fill="none" id="SUBMISSION-to-JS_RUNTIME" style="stroke:#181818;stroke-width:1;"/><polygon fill="#181818" points="225.98,684.9554,235.3306,681.8624,229.6802,681.5926,229.95,675.9422,225.98,684.9554" style="stroke:#181818;stroke-width:1;"/><text fill="#000000" font-family="sans-serif" font-size="13" lengthAdjust="spacing" textLength="117.2729" x="347" y="605.0004">ixsl:promise (fetch)</text></g><!--link SUBMISSION to MODEL_STATE--><g class="link" data-entity-1="SUBMISSION" data-entity-2="MODEL_STATE" data-source-line="36" data-uid="lnk27" id="link_SUBMISSION_MODEL_STATE"><path d="M478.01,560.3054 C472.61,576.4554 470.74,594.1854 479,609.1054 C498.19,643.7654 528.9072,665.7748 562.5572,682.3448" fill="none" id="SUBMISSION-to-MODEL_STATE" style="stroke:#181818;stroke-width:1;"/><polygon fill="#181818" points="567.94,684.9954,561.6329,677.431,563.4543,682.7866,558.0988,684.6081,567.94,684.9954" style="stroke:#181818;stroke-width:1;"/><text fill="#000000" font-family="sans-serif" font-size="13" lengthAdjust="spacing" textLength="177.4805" x="480" y="605.0004">instance replacement/merge</text></g><!--link JS_RUNTIME to EVENT_LOOP--><g class="link" data-entity-1="JS_RUNTIME" data-entity-2="EVENT_LOOP" data-source-line="37" data-uid="lnk28" id="link_JS_RUNTIME_EVENT_LOOP"><path d="M169.79,743.3154 C149.59,767.0954 123.28,803.0854 112,840.1054 C97.28,888.3954 108.7967,942.8648 117.3567,972.9248" fill="none" id="JS_RUNTIME-to-EVENT_LOOP" style="stroke:#181818;stroke-width:1;"/><polygon fill="#181818" points="119,978.6954,120.3822,968.944,117.6306,973.8866,112.6881,971.135,119,978.6954" style="stroke:#181818;stroke-width:1;"/><text fill="#000000" font-family="sans-serif" font-size="13" lengthAdjust="spacing" textLength="102.3877" x="113" y="874.5004">promise callback</text></g><!--link JS_RUNTIME to DOM--><g class="link" data-entity-1="JS_RUNTIME" data-entity-2="DOM" data-source-line="38" data-uid="lnk29" id="link_JS_RUNTIME_DOM"><path d="M204.32,743.3154 C210.98,763.1154 221.59,789.6054 236,810.1054 C246.51,825.0654 256.844,835.2144 269.544,845.7044" fill="none" id="JS_RUNTIME-to-DOM" style="stroke:#181818;stroke-width:1;"/><polygon fill="#181818" points="274.17,849.5254,269.7783,840.7099,270.315,846.3413,264.6837,846.8779,274.17,849.5254" style="stroke:#181818;stroke-width:1;"/><text fill="#000000" font-family="sans-serif" font-size="13" lengthAdjust="spacing" textLength="167.9082" x="237" y="797.0004">readFileAsXML(), setFocus()</text></g><!--link ACTIONS to GMN30--><g class="link" data-entity-1="ACTIONS" data-entity-2="GMN30" data-source-line="41" data-uid="lnk32" id="link_ACTIONS_GMN30"><path d="M951.05,152.0554 C988.24,121.7554 1040.74,85.3854 1094.5,69.1054 C1133.42,57.3254 1238.4,57.9354 1277.5,69.1054 C1344.96,88.3854 1411.85,136.2254 1451.55,168.4354" fill="none" id="ACTIONS-GMN30" style="stroke:#181818;stroke-width:1;stroke-dasharray:7,7;"/></g></g></svg>