<svg xmlns="http://www.w3.org/2000/svg" xmlns:xlink="http://www.w3.org/1999/xlink" contentStyleType="text/css" data-diagram-type="DESCRIPTION" height="992px" preserveAspectRatio="none" style="width:1670px;height:992px;background:#FFFFFF;" version="1.1" viewBox="0 0 1670 992" width="1670px" zoomAndPan="magnify"><title>SaxonForms component model and one-hop environment interactions</title><defs/><g><g class="title" data-source-line="1"><text fill="#000000" font-family="sans-serif" font-size="14" font-weight="bold" lengthAdjust="spacing" textLength="491.8252" x="582.459" y="24.9639">SaxonForms component model and one-hop environment interactions</text></g><!--cluster Browser Environment--><g class="cluster" data-entity="Browser Environment" data-source-line="5" data-uid="ent0002" id="cluster_Browser Environment"><rect fill="none" height="409" rx="2.5" ry="2.5" style="stroke:#181818;stroke-width:1;" width="338" x="43" y="577.374"/><text fill="#000000" font-family="sans-serif" font-size="14" font-weight="bold" lengthAdjust="spacing" textLength="152.4414" x="135.7793" y="594.3379">Browser Environment</text></g><!--cluster SaxonForms Runtime--><g class="cluster" data-entity="SaxonForms Runtime" data-source-line="11" data-uid="ent0006" id="cluster_SaxonForms Runtime"><rect fill="none" height="784" rx="2.5" ry="2.5" style="stroke:#181818;stroke-width:1;" width="698" x="405" y="82.374"/><text fill="#000000" font-family="sans-serif" font-size="14" font-weight="bold" lengthAdjust="spacing" textLength="149.1943" x="679.4028" y="99.3379">SaxonForms Runtime</text></g><!--cluster SaxonJS 3--><g class="cluster" data-entity="SaxonJS 3" data-source-line="21" data-uid="ent0014" id="cluster_SaxonJS 3"><rect fill="none" height="134" rx="2.5" ry="2.5" style="stroke:#181818;stroke-width:1;" width="218" x="1127" y="91.874"/><text fill="#000000" font-family="sans-serif" font-size="14" font-weight="bold" lengthAdjust="spacing" textLength="65.8232" x="1203.0884" y="108.8379">SaxonJS 3</text></g><!--entity DOM--><g class="entity" data-entity="DOM" data-source-line="6" data-uid="ent0003" id="entity_DOM"><rect fill="#F1F1F1" height="39.0654" rx="2.5" ry="2.5" style="stroke:#181818;stroke-width:0.5;" width="131.0566" x="233.5" y="801.874"/><text fill="#000000" font-family="sans-serif" font-size="14" lengthAdjust="spacing" textLength="111.0566" x="243.5" y="826.8379">HTML/DOM Tree</text></g><!--entity EVENT_LOOP--><g class="entity" data-entity="EVENT_LOOP" data-source-line="7" data-uid="ent0004" id="entity_EVENT_LOOP"><rect fill="#F1F1F1" height="39.0654" rx="2.5" ry="2.5" style="stroke:#181818;stroke-width:0.5;" width="130.5098" x="59.5" y="931.374"/><text fill="#000000" font-family="sans-serif" font-size="14" lengthAdjust="spacing" textLength="110.5098" x="69.5" y="956.3379">DOM Event Loop</text></g><!--entity JS_RUNTIME--><g class="entity" data-entity="JS_RUNTIME" data-source-line="8" data-uid="ent0005" id="entity_JS_RUNTIME"><rect fill="#F1F1F1" height="58.1309" rx="2.5" ry="2.5" style="stroke:#181818;stroke-width:0.5;" width="212.459" x="90" y="637.374"/><text fill="#000000" font-family="sans-serif" font-size="14" lengthAdjust="spacing" textLength="123.4023" x="100" y="662.3379">JavaScript Runtime</text><text fill="#000000" font-family="sans-serif" font-size="14" lengthAdjust="spacing" textLength="192.459" x="100" y="681.4033">(xforms-javascript-library.xsl)</text></g><!--entity XFORMS_SOURCE--><g class="entity" data-entity="XFORMS_SOURCE" data-source-line="12" data-uid="ent0007" id="entity_XFORMS_SOURCE"><rect fill="#F1F1F1" height="58.1309" rx="2.5" ry="2.5" style="stroke:#181818;stroke-width:0.5;" width="205.4795" x="604.5" y="151.874"/><text fill="#000000" font-family="sans-serif" font-size="14" lengthAdjust="spacing" textLength="98.3623" x="614.5" y="176.8379">XForms Source</text><text fill="#000000" font-family="sans-serif" font-size="14" lengthAdjust="spacing" textLength="185.4795" x="614.5" y="195.9033">(xforms:xform / xhtml:html)</text></g><!--entity SEF--><g class="entity" data-entity="SEF" data-source-line="13" data-uid="ent0008" id="entity_SEF"><rect fill="#F1F1F1" height="58.1309" rx="2.5" ry="2.5" style="stroke:#181818;stroke-width:0.5;" width="171.0469" x="821.5" y="298.374"/><text fill="#000000" font-family="sans-serif" font-size="14" lengthAdjust="spacing" textLength="95.3203" x="831.5" y="323.3379">SEF Transform</text><text fill="#000000" font-family="sans-serif" font-size="14" lengthAdjust="spacing" textLength="151.0469" x="831.5" y="342.4033">(saxon-xforms.sef.xml)</text></g><!--entity MODEL_STATE--><g class="entity" data-entity="MODEL_STATE" data-source-line="14" data-uid="ent0009" id="entity_MODEL_STATE"><rect fill="#F1F1F1" height="58.1309" rx="2.5" ry="2.5" style="stroke:#181818;stroke-width:0.5;" width="174.8408" x="569.5" y="637.374"/><text fill="#000000" font-family="sans-serif" font-size="14" lengthAdjust="spacing" textLength="78.4629" x="579.5" y="662.3379">Model State</text><text fill="#000000" font-family="sans-serif" font-size="14" lengthAdjust="spacing" textLength="154.8408" x="579.5" y="681.4033">(instances, binds, MIPs)</text></g><!--entity ACTIONS--><g class="entity" data-entity="ACTIONS" data-source-line="15" data-uid="ent0010" id="entity_ACTIONS"><rect fill="#F1F1F1" height="77.1963" rx="2.5" ry="2.5" style="stroke:#181818;stroke-width:0.5;" width="241.8262" x="845" y="142.374"/><text fill="#000000" font-family="sans-serif" font-size="14" lengthAdjust="spacing" textLength="116.1973" x="855" y="167.3379">Action Dispatcher</text><text fill="#000000" font-family="sans-serif" font-size="14" lengthAdjust="spacing" textLength="135.7002" x="855" y="186.4033">applyActions (L4666)</text><text fill="#000000" font-family="sans-serif" font-size="14" lengthAdjust="spacing" textLength="221.8262" x="855" y="205.4688">outermost-action-handler (L6589)</text></g><!--entity SUBMISSION--><g class="entity" data-entity="SUBMISSION" data-source-line="16" data-uid="ent0011" id="entity_SUBMISSION"><rect fill="#F1F1F1" height="77.1963" rx="2.5" ry="2.5" style="stroke:#181818;stroke-width:0.5;" width="168.4697" x="421" y="435.374"/><text fill="#000000" font-family="sans-serif" font-size="14" lengthAdjust="spacing" textLength="132.1934" x="431" y="460.3379">Submission Adapter</text><text fill="#000000" font-family="sans-serif" font-size="14" lengthAdjust="spacing" textLength="131.8584" x="431" y="479.4033">HTTPsubmit (L1801)</text><text fill="#000000" font-family="sans-serif" font-size="14" lengthAdjust="spacing" textLength="148.4697" x="431" y="498.4688">xforms-submit (L5729)</text></g><!--entity FUNC_LIB--><g class="entity" data-entity="FUNC_LIB" data-source-line="17" data-uid="ent0012" id="entity_FUNC_LIB"><rect fill="#F1F1F1" height="77.1963" rx="2.5" ry="2.5" style="stroke:#181818;stroke-width:0.5;" width="196.1758" x="624" y="435.374"/><text fill="#000000" font-family="sans-serif" font-size="14" lengthAdjust="spacing" textLength="106.832" x="634" y="460.3379">Function Library</text><text fill="#000000" font-family="sans-serif" font-size="14" lengthAdjust="spacing" textLength="174.2822" x="634" y="479.4033">xforms-function-library.xsl</text><text fill="#000000" font-family="sans-serif" font-size="14" lengthAdjust="spacing" textLength="176.1758" x="634" y="498.4688">xforms-xpath-functions.xsl</text></g><!--entity XSD--><g class="entity" data-entity="XSD" data-source-line="18" data-uid="ent0013" id="entity_XSD"><rect fill="#F1F1F1" height="58.1309" rx="2.5" ry="2.5" style="stroke:#181818;stroke-width:0.5;" width="118.1094" x="598" y="792.374"/><text fill="#000000" font-family="sans-serif" font-size="14" lengthAdjust="spacing" textLength="80.623" x="608" y="817.3379">XSD Helpers</text><text fill="#000000" font-family="sans-serif" font-size="14" lengthAdjust="spacing" textLength="98.1094" x="608" y="836.4033">xsd-helpers.xsl</text></g><!--entity SAXONJS--><g class="entity" data-entity="SAXONJS" data-source-line="22" data-uid="ent0015" id="entity_SAXONJS"><rect fill="#F1F1F1" height="58.1309" rx="2.5" ry="2.5" style="stroke:#181818;stroke-width:0.5;" width="186.8994" x="1142.5" y="151.874"/><text fill="#000000" font-family="sans-serif" font-size="14" lengthAdjust="spacing" textLength="153.8633" x="1152.5" y="176.8379">Interactive XSLT Engine</text><text fill="#000000" font-family="sans-serif" font-size="14" lengthAdjust="spacing" textLength="166.8994" x="1152.5" y="195.9033">ixsl:* extension functions</text></g><g class="entity" data-entity="GMN30" data-source-line="41" data-uid="ent0031" id="entity_GMN30"><path d="M1364.5,149.374 L1364.5,212.4849 L1663.7432,212.4849 L1663.7432,159.374 L1653.7432,149.374 L1364.5,149.374" fill="#FEFFDD" style="stroke:#181818;stroke-width:0.5;"/><path d="M1653.7432,149.374 L1653.7432,159.374 L1663.7432,159.374 L1653.7432,149.374" fill="#FEFFDD" style="stroke:#181818;stroke-width:1;"/><text fill="#000000" font-family="sans-serif" font-size="13" lengthAdjust="spacing" textLength="257.2197" x="1370.5" y="168.269">One-hop browser interactions are explicit:</text><text fill="#000000" font-family="sans-serif" font-size="13" lengthAdjust="spacing" textLength="278.2432" x="1370.5" y="185.9727">DOM and JS runtime are first-class neighbors.</text><text fill="#000000" font-family="sans-serif" font-size="13" lengthAdjust="spacing" textLength="256.7373" x="1370.5" y="203.6763">Line numbers reference saxon-xforms.xsl.</text></g><!--link XFORMS_SOURCE to SAXONJS--><g class="link" data-entity-1="XFORMS_SOURCE" data-entity-2="SAXONJS" data-source-line="25" data-uid="lnk16" id="link_XFORMS_SOURCE_SAXONJS"><path d="M730.24,151.424 C752.29,126.064 787.94,91.284 828,76.374 C885.28,55.064 1045.25,56.394 1103,76.374 C1146.02,91.254 1181.5266,122.1133 1206.1466,147.5433" fill="none" id="XFORMS_SOURCE-to-SAXONJS" style="stroke:#181818;stroke-width:1;"/><polygon fill="#181818" points="1210.32,151.854,1206.9337,142.6056,1206.8421,148.2617,1201.186,148.1702,1210.32,151.854" style="stroke:#181818;stroke-width:1;"/><text fill="#000000" font-family="sans-serif" font-size="13" lengthAdjust="spacing" textLength="253.1699" x="849.5" y="62.269">SaxonJS.transform2({stylesheetLocation})</text></g><!--link SAXONJS to SEF--><g class="link" data-entity-1="SAXONJS" data-entity-2="SEF" data-source-line="26" data-uid="lnk17" id="link_SAXONJS_SEF"><path d="M1200.85,210.064 C1176.1,228.774 1141.52,252.694 1108,268.374 C1071.65,285.384 1035.0391,297.0124 998.5591,306.4424" fill="none" id="SAXONJS-to-SEF" style="stroke:#181818;stroke-width:1;"/><polygon fill="#181818" points="992.75,307.944,1002.4647,309.5643,997.5909,306.6927,1000.4625,301.8189,992.75,307.944" style="stroke:#181818;stroke-width:1;"/><text fill="#000000" font-family="sans-serif" font-size="13" lengthAdjust="spacing" textLength="179.8735" x="1142" y="264.269">execute xformsjs-main (L154)</text></g><!--link SEF to MODEL_STATE--><g class="link" data-entity-1="SEF" data-entity-2="MODEL_STATE" data-source-line="27" data-uid="lnk18" id="link_SEF_MODEL_STATE"><path d="M921.09,356.384 C942.47,403.304 976.3,498.784 933,561.374 C890.9,622.224 814.3107,646.5418 750.4307,657.0318" fill="none" id="SEF-to-MODEL_STATE" style="stroke:#181818;stroke-width:1;"/><polygon fill="#181818" points="744.51,658.004,754.0392,660.4928,749.4439,657.1938,752.7429,652.5985,744.51,658.004" style="stroke:#181818;stroke-width:1;"/><text fill="#000000" font-family="sans-serif" font-size="13" lengthAdjust="spacing" textLength="195.9204" x="954" y="479.269">xforms-model-construct (L5205)</text></g><!--link SEF to FUNC_LIB--><g class="link" data-entity-1="SEF" data-entity-2="FUNC_LIB" data-source-line="28" data-uid="lnk19" id="link_SEF_FUNC_LIB"><path d="M821.22,337.714 C759.72,346.384 684.43,361.734 665,386.374 C652.86,401.764 657.4088,415.2451 671.2088,430.8051" fill="none" id="SEF-to-FUNC_LIB" style="stroke:#181818;stroke-width:1;"/><polygon fill="#181818" points="675.19,435.294,672.2109,425.9065,671.8724,431.5533,666.2256,431.2148,675.19,435.294" style="stroke:#181818;stroke-width:1;"/><text fill="#000000" font-family="sans-serif" font-size="13" lengthAdjust="spacing" textLength="214.7349" x="666" y="401.269">xforms:impose(), xforms:instance()</text></g><!--link FUNC_LIB to MODEL_STATE--><g class="link" data-entity-1="FUNC_LIB" data-entity-2="MODEL_STATE" data-source-line="29" data-uid="lnk20" id="link_FUNC_LIB_MODEL_STATE"><path d="M688.95,512.424 C682.34,521.684 676.16,531.944 672,542.374 C659.73,573.144 656.8814,605.4047 656.4914,631.0147" fill="none" id="FUNC_LIB-to-MODEL_STATE" style="stroke:#181818;stroke-width:1;"/><polygon fill="#181818" points="656.4,637.014,660.5366,628.076,656.4761,632.0146,652.5375,627.9542,656.4,637.014" style="stroke:#181818;stroke-width:1;"/><text fill="#000000" font-family="sans-serif" font-size="13" lengthAdjust="spacing" textLength="255.7725" x="673" y="557.269">evaluate-xpath-with-context-node (L1448)</text></g><!--link MODEL_STATE to XSD--><g class="link" data-entity-1="MODEL_STATE" data-entity-2="XSD" data-source-line="30" data-uid="lnk21" id="link_MODEL_STATE_XSD"><path d="M657,695.434 C657,722.954 657,758.684 657,786.234" fill="none" id="MODEL_STATE-to-XSD" style="stroke:#181818;stroke-width:1;"/><polygon fill="#181818" points="657,792.234,661,783.234,657,787.234,653,783.234,657,792.234" style="stroke:#181818;stroke-width:1;"/><text fill="#000000" font-family="sans-serif" font-size="13" lengthAdjust="spacing" textLength="115.813" x="658" y="749.269">xsdh:is-type-valid()</text></g><!--link MODEL_STATE to DOM--><g class="link" data-entity-1="MODEL_STATE" data-entity-2="DOM" data-source-line="31" data-uid="lnk22" id="link_MODEL_STATE_DOM"><path d="M569.53,695.404 C543.66,704.324 515.46,714.674 490,725.374 C433.67,749.054 375.8993,778.8415 338.1793,799.0415" fill="none" id="MODEL_STATE-to-DOM" style="stroke:#181818;stroke-width:1;"/><polygon fill="#181818" points="332.89,801.874,342.7123,801.1514,337.2977,799.5136,338.9356,794.099,332.89,801.874" style="stroke:#181818;stroke-width:1;"/><text fill="#000000" font-family="sans-serif" font-size="13" lengthAdjust="spacing" textLength="139.5469" x="499.7725" y="740.269">xforms-refresh (L5622)</text><text fill="#000000" font-family="sans-serif" font-size="13" lengthAdjust="spacing" textLength="157.0918" x="491" y="757.9727">refreshOutputs-JS (L4345)</text></g><!--link DOM to EVENT_LOOP--><g class="link" data-entity-1="DOM" data-entity-2="EVENT_LOOP" data-source-line="32" data-uid="lnk23" id="link_DOM_EVENT_LOOP"><path d="M273.7,840.914 C240.71,865.084 188.1796,903.5775 155.1696,927.7675" fill="none" id="DOM-to-EVENT_LOOP" style="stroke:#181818;stroke-width:1;"/><polygon fill="#181818" points="150.33,931.314,159.9538,929.2207,154.363,928.3586,155.2251,922.7678,150.33,931.314" style="stroke:#181818;stroke-width:1;"/><text fill="#000000" font-family="sans-serif" font-size="13" lengthAdjust="spacing" textLength="207.543" x="213" y="897.269">native onchange/onclick/onkeyup</text></g><!--link EVENT_LOOP to ACTIONS--><g class="link" data-entity-1="EVENT_LOOP" data-entity-2="ACTIONS" data-source-line="33" data-uid="lnk24" id="link_EVENT_LOOP_ACTIONS"><path d="M89.62,931.354 C54.54,910.154 6,871.884 6,822.374 C6,326.374 6,326.374 6,326.374 C6,234.574 737.73,255.254 827,233.874 C842.91,230.064 853.8144,226.9191 869.7344,221.3691" fill="none" id="EVENT_LOOP-to-ACTIONS" style="stroke:#181818;stroke-width:1;"/><polygon fill="#181818" points="875.4,219.394,865.5849,218.5797,870.6787,221.04,868.2184,226.1338,875.4,219.394" style="stroke:#181818;stroke-width:1;"/><text fill="#000000" font-family="sans-serif" font-size="13" lengthAdjust="spacing" textLength="235.2505" x="7" y="557.269">ixsl:onchange/onclick mode templates</text></g><!--link ACTIONS to SEF--><g class="link" data-entity-1="ACTIONS" data-entity-2="SEF" data-source-line="34" data-uid="lnk25" id="link_ACTIONS_SEF"><path d="M950.65,219.464 C940.61,244.044 929.9788,270.0995 920.8088,292.5495" fill="none" id="ACTIONS-to-SEF" style="stroke:#181818;stroke-width:1;"/><polygon fill="#181818" points="918.54,298.104,925.6462,291.2848,920.4307,293.4753,918.2402,288.2597,918.54,298.104" style="stroke:#181818;stroke-width:1;"/><text fill="#000000" font-family="sans-serif" font-size="13" lengthAdjust="spacing" textLength="160.4243" x="939" y="264.269">action-* named templates</text></g><!--link SUBMISSION to JS_RUNTIME--><g class="link" data-entity-1="SUBMISSION" data-entity-2="JS_RUNTIME" data-source-line="35" data-uid="lnk26" id="link_SUBMISSION_JS_RUNTIME"><path d="M420.84,505.694 C396.32,516.024 369.98,528.484 347,542.374 C301.28,570.004 258.8917,606.3175 229.7517,633.1775" fill="none" id="SUBMISSION-to-JS_RUNTIME" style="stroke:#181818;stroke-width:1;"/><polygon fill="#181818" points="225.34,637.244,234.6686,634.0854,229.0164,633.8552,229.2466,628.2031,225.34,637.244" style="stroke:#181818;stroke-width:1;"/><text fill="#000000" font-family="sans-serif" font-size="13" lengthAdjust="spacing" textLength="117.2729" x="348" y="557.269">ixsl:promise (fetch)</text></g><!--link SUBMISSION to MODEL_STATE--><g class="link" data-entity-1="SUBMISSION" data-entity-2="MODEL_STATE" data-source-line="36" data-uid="lnk27" id="link_SUBMISSION_MODEL_STATE"><path d="M480.9,512.584 C474.01,528.344 470.41,546.414 479,561.374 C499.22,596.604 531.0531,618.5277 566.2931,634.8077" fill="none" id="SUBMISSION-to-MODEL_STATE" style="stroke:#181818;stroke-width:1;"/><polygon fill="#181818" points="571.74,637.324,565.2473,629.9183,567.201,635.2271,561.8922,637.1808,571.74,637.324" style="stroke:#181818;stroke-width:1;"/><text fill="#000000" font-family="sans-serif" font-size="13" lengthAdjust="spacing" textLength="177.4805" x="480" y="557.269">instance replacement/merge</text></g><!--link JS_RUNTIME to EVENT_LOOP--><g class="link" data-entity-1="JS_RUNTIME" data-entity-2="EVENT_LOOP" data-source-line="37" data-uid="lnk28" id="link_JS_RUNTIME_EVENT_LOOP"><path d="M169.79,695.584 C149.59,719.364 123.28,755.354 112,792.374 C97.28,840.664 108.7967,895.1334 117.3567,925.1934" fill="none" id="JS_RUNTIME-to-EVENT_LOOP" style="stroke:#181818;stroke-width:1;"/><polygon fill="#181818" points="119,930.964,120.3822,921.2126,117.6306,926.1552,112.6881,923.4036,119,930.964" style="stroke:#181818;stroke-width:1;"/><text fill="#000000" font-family="sans-serif" font-size="13" lengthAdjust="spacing" textLength="102.3877" x="113" y="826.769">promise callback</text></g><!--link JS_RUNTIME to DOM--><g class="link" data-entity-1="JS_RUNTIME" data-entity-2="DOM" data-source-line="38" data-uid="lnk29" id="link_JS_RUNTIME_DOM"><path d="M204.32,695.584 C210.98,715.384 221.59,741.874 236,762.374 C246.51,777.334 256.844,787.483 269.544,797.973" fill="none" id="JS_RUNTIME-to-DOM" style="stroke:#181818;stroke-width:1;"/><polygon fill="#181818" points="274.17,801.794,269.7783,792.9785,270.315,798.6099,264.6837,799.1465,274.17,801.794" style="stroke:#181818;stroke-width:1;"/><text fill="#000000" font-family="sans-serif" font-size="13" lengthAdjust="spacing" textLength="167.9082" x="237" y="749.269">readFileAsXML(), setFocus()</text></g><!--link ACTIONS to GMN30--><g class="link" data-entity-1="ACTIONS" data-entity-2="GMN30" data-source-line="41" data-uid="lnk32" id="link_ACTIONS_GMN30"><path d="M1007.23,142.074 C1041.14,112.994 1092.01,75.544 1144.5,59.374 C1183.36,47.404 1288.52,47.794 1327.5,59.374 C1386.4,76.864 1444.08,119.504 1479.33,149.294" fill="none" id="ACTIONS-GMN30" style="stroke:#181818;stroke-width:1;stroke-dasharray:7,7;"/></g><!--SRC=[PLLTRzem57tFhx3w1DD2DqPPnyCase9AbP2gIQTAwuICSm6lYHtP3WDD- --xTZv8snT2x7lE_JZttXXkCY0nFKWnbohNXCcya0A48RbC8IDKf0JV_Pqi28WzLrBazfOB0ueomwNGddxXeg2AvYTuR8v8h80PAhOPT4mAobxe5juQUFKvERjIyey6HMOdTsVahqV8pzia3Cvlef0a2k0NePhWYxsmPxEzZIkGid0tin-pPR8AekZU6jpHFOsPueKX3wKmF8TdqJjiRCh-RxpJxixF-5fHTHmSTDPtB7Vnwk5ncIp2cVUl4sAdO3LT7U5JTHZBKh6JYubxa7Dos9ayczYVYlvf7Zs4yIgE7X-kPnOVp-QO71NQ0X2lhIE_OXbes0mE3HGjBI1qAiM66kkE2utbPA0_aZKNAJx2nRsk065qCmjMSJ9DdAUfquxSS5rGmtQWdWKjYknOdMlI2qRZyRZ_B6I9IkTI6x-IszzXJsIeJoyONrn-gyYdryaYMiOkXNATSwqj-JIbXR7Cjqboh-svGTJdoq-VaRUkVdjyyNLOayMFL-4YZf7GyirBKOKQLEAqo4rzqLMjlJnWLhlMHDixnpr_N5wlWiML4ok-8RUG5Q0qudJgxwgNrXWDtij-5vCljTgBPWZsWBP1WYsxvGA5uCWm-K3WO42uIhI1L0bEdwBbNMovNtK0yVtlpIMPjFu6fkc8OU-ljdEZTm0ca8nQpd_zCwy1EGBieGdw1eRAaQeUlxMVKovizIz6VS-QMDDEJo2aBfqRV9zXi4QLp4ap_7Hn0ZKbR14JZaEleTV_s1xKVTZhUwtrUt-mfrc9ZLkBzOVZ3xerM3PVO10ssj7eikzrOPR62eVETRgRSEsROm4-Kl6qzzxKReOsCmKRXRMp6Os7G-p1-Y0gJL4QxMC1iUs_Z31PYxFuqnf16a6Tr58md84jdEEVZBCNVBx0iIoyZh75raE1GDSFRs5kmn83UP5X4RJNc9yqh0Vk0phE8UsOdYR4MP-sLEEhK1A742ku0Hpk_bl0QnqQjN0R8py3kt7FSr1Ry3hCxwhH-60qozOu8c-Dgz8heEcSPp3LJs5WMqI3cKjMQXJB4n8xLF7jpX2vQPT8L7zlrlM7eFkj8LG1zdQ11UHcucIodoXKJbMBs1bikC9znJAgDH60_6k9O-q5E9n4bFaQXnm3su02c_Qh9OlL6tY0b3Qs_m00]--></g></svg>