<svg xmlns="http://www.w3.org/2000/svg" xmlns:xlink="http://www.w3.org/1999/xlink" contentStyleType="text/css" data-diagram-type="DESCRIPTION" height="492px" preserveAspectRatio="none" style="width:2574px;height:492px;background:#FFFFFF;" version="1.1" viewBox="0 0 2574 492" width="2574px" zoomAndPan="magnify"><title>XForms controls to HTML element mapping</title><defs/><g><g class="title" data-source-line="1"><text fill="#000000" font-family="sans-serif" font-size="14" font-weight="bold" lengthAdjust="spacing" textLength="303.3789" x="1128.3105" y="24.9639">XForms controls to HTML element mapping</text></g><!--cluster XForms Controls\n(saxon-xforms.xsl)--><g class="cluster" data-entity="XForms Controls.n.saxon-xforms.xsl." data-source-line="5" data-uid="ent0002" id="cluster_XForms Controls.n.saxon-xforms.xsl."><rect fill="none" height="131" rx="2.5" ry="2.5" style="stroke:#181818;stroke-width:1;" width="1788" x="11" y="47.0654"/><text fill="#000000" font-family="sans-serif" font-size="14" font-weight="bold" lengthAdjust="spacing" textLength="115.5137" x="847.2432" y="64.0293">XForms Controls</text><text fill="#000000" font-family="sans-serif" font-size="14" font-weight="bold" lengthAdjust="spacing" textLength="129.876" x="840.062" y="83.0947">(saxon-xforms.xsl)</text></g><!--cluster Container Controls--><g class="cluster" data-entity="Container Controls" data-source-line="17" data-uid="ent0012" id="cluster_Container Controls"><rect fill="none" height="112" rx="2.5" ry="2.5" style="stroke:#181818;stroke-width:1;" width="703" x="1865" y="66.0654"/><text fill="#000000" font-family="sans-serif" font-size="14" font-weight="bold" lengthAdjust="spacing" textLength="132.1865" x="2150.4067" y="83.0293">Container Controls</text></g><!--cluster HTML Output Elements--><g class="cluster" data-entity="HTML Output Elements" data-source-line="24" data-uid="ent0017" id="cluster_HTML Output Elements"><rect fill="none" height="93" rx="2.5" ry="2.5" style="stroke:#181818;stroke-width:1;" width="2546" x="7" y="211.0654"/><text fill="#000000" font-family="sans-serif" font-size="14" font-weight="bold" lengthAdjust="spacing" textLength="162.4014" x="1198.7993" y="228.0293">HTML Output Elements</text></g><!--cluster DOM Event Handlers\n(ixsl:on* mode templates)--><g class="cluster" data-entity="DOM Event Handlers.n.ixsl.on. mode templates." data-source-line="39" data-uid="ent0030" id="cluster_DOM Event Handlers.n.ixsl.on. mode templates."><rect fill="none" height="131" rx="2.5" ry="2.5" style="stroke:#181818;stroke-width:1;" width="579" x="702" y="355.0654"/><text fill="#000000" font-family="sans-serif" font-size="14" font-weight="bold" lengthAdjust="spacing" textLength="144.4229" x="919.2886" y="372.0293">DOM Event Handlers</text><text fill="#000000" font-family="sans-serif" font-size="14" font-weight="bold" lengthAdjust="spacing" textLength="183.1211" x="899.9395" y="391.0947">(ixsl:on* mode templates)</text></g><!--entity XF_INPUT--><g class="entity" data-entity="XF_INPUT" data-source-line="6" data-uid="ent0003" id="entity_XF_INPUT"><rect fill="#F1F1F1" height="58.1309" rx="2.5" ry="2.5" style="stroke:#181818;stroke-width:0.5;" width="170.1445" x="27" y="104.0654"/><text fill="#000000" font-family="sans-serif" font-size="14" lengthAdjust="spacing" textLength="84.9775" x="37" y="129.0293">xforms:input</text><text fill="#000000" font-family="sans-serif" font-size="14" lengthAdjust="spacing" textLength="150.1445" x="37" y="148.0947">get-html mode (L2493)</text></g><!--entity XF_OUTPUT--><g class="entity" data-entity="XF_OUTPUT" data-source-line="7" data-uid="ent0004" id="entity_XF_OUTPUT"><rect fill="#F1F1F1" height="58.1309" rx="2.5" ry="2.5" style="stroke:#181818;stroke-width:0.5;" width="170.1445" x="232" y="104.0654"/><text fill="#000000" font-family="sans-serif" font-size="14" lengthAdjust="spacing" textLength="94.8896" x="242" y="129.0293">xforms:output</text><text fill="#000000" font-family="sans-serif" font-size="14" lengthAdjust="spacing" textLength="150.1445" x="242" y="148.0947">get-html mode (L2271)</text></g><!--entity XF_TEXTAREA--><g class="entity" data-entity="XF_TEXTAREA" data-source-line="8" data-uid="ent0005" id="entity_XF_TEXTAREA"><rect fill="#F1F1F1" height="58.1309" rx="2.5" ry="2.5" style="stroke:#181818;stroke-width:0.5;" width="170.1445" x="437" y="104.0654"/><text fill="#000000" font-family="sans-serif" font-size="14" lengthAdjust="spacing" textLength="105.1846" x="447" y="129.0293">xforms:textarea</text><text fill="#000000" font-family="sans-serif" font-size="14" lengthAdjust="spacing" textLength="150.1445" x="447" y="148.0947">get-html mode (L2806)</text></g><!--entity XF_SELECT--><g class="entity" data-entity="XF_SELECT" data-source-line="9" data-uid="ent0006" id="entity_XF_SELECT"><rect fill="#F1F1F1" height="58.1309" rx="2.5" ry="2.5" style="stroke:#181818;stroke-width:0.5;" width="170.1445" x="642" y="104.0654"/><text fill="#000000" font-family="sans-serif" font-size="14" lengthAdjust="spacing" textLength="88.2725" x="652" y="129.0293">xforms:select</text><text fill="#000000" font-family="sans-serif" font-size="14" lengthAdjust="spacing" textLength="150.1445" x="652" y="148.0947">get-html mode (L2906)</text></g><!--entity XF_SELECT1--><g class="entity" data-entity="XF_SELECT1" data-source-line="10" data-uid="ent0007" id="entity_XF_SELECT1"><rect fill="#F1F1F1" height="58.1309" rx="2.5" ry="2.5" style="stroke:#181818;stroke-width:0.5;" width="170.1445" x="847" y="104.0654"/><text fill="#000000" font-family="sans-serif" font-size="14" lengthAdjust="spacing" textLength="95.9834" x="857" y="129.0293">xforms:select1</text><text fill="#000000" font-family="sans-serif" font-size="14" lengthAdjust="spacing" textLength="150.1445" x="857" y="148.0947">get-html mode (L2906)</text></g><!--entity XF_RANGE--><g class="entity" data-entity="XF_RANGE" data-source-line="11" data-uid="ent0008" id="entity_XF_RANGE"><rect fill="#F1F1F1" height="58.1309" rx="2.5" ry="2.5" style="stroke:#181818;stroke-width:0.5;" width="170.1445" x="1052" y="104.0654"/><text fill="#000000" font-family="sans-serif" font-size="14" lengthAdjust="spacing" textLength="89.1953" x="1062" y="129.0293">xforms:range</text><text fill="#000000" font-family="sans-serif" font-size="14" lengthAdjust="spacing" textLength="150.1445" x="1062" y="148.0947">get-html mode (L2696)</text></g><!--entity XF_UPLOAD--><g class="entity" data-entity="XF_UPLOAD" data-source-line="12" data-uid="ent0009" id="entity_XF_UPLOAD"><rect fill="#F1F1F1" height="58.1309" rx="2.5" ry="2.5" style="stroke:#181818;stroke-width:0.5;" width="170.1445" x="1257" y="104.0654"/><text fill="#000000" font-family="sans-serif" font-size="14" lengthAdjust="spacing" textLength="96.209" x="1267" y="129.0293">xforms:upload</text><text fill="#000000" font-family="sans-serif" font-size="14" lengthAdjust="spacing" textLength="150.1445" x="1267" y="148.0947">get-html mode (L2442)</text></g><!--entity XF_TRIGGER--><g class="entity" data-entity="XF_TRIGGER" data-source-line="13" data-uid="ent0010" id="entity_XF_TRIGGER"><rect fill="#F1F1F1" height="58.1309" rx="2.5" ry="2.5" style="stroke:#181818;stroke-width:0.5;" width="170.1445" x="1462" y="104.0654"/><text fill="#000000" font-family="sans-serif" font-size="14" lengthAdjust="spacing" textLength="95.7441" x="1472" y="129.0293">xforms:trigger</text><text fill="#000000" font-family="sans-serif" font-size="14" lengthAdjust="spacing" textLength="150.1445" x="1472" y="148.0947">get-html mode (L3743)</text></g><!--entity XF_SUBMIT--><g class="entity" data-entity="XF_SUBMIT" data-source-line="14" data-uid="ent0011" id="entity_XF_SUBMIT"><rect fill="#F1F1F1" height="58.1309" rx="2.5" ry="2.5" style="stroke:#181818;stroke-width:0.5;" width="116.1201" x="1667" y="104.0654"/><text fill="#000000" font-family="sans-serif" font-size="14" lengthAdjust="spacing" textLength="96.1201" x="1677" y="129.0293">xforms:submit</text><text fill="#000000" font-family="sans-serif" font-size="14" lengthAdjust="spacing" textLength="48.0771" x="1677" y="148.0947">(L3574)</text></g><!--entity XF_GROUP--><g class="entity" data-entity="XF_GROUP" data-source-line="18" data-uid="ent0013" id="entity_XF_GROUP"><rect fill="#F1F1F1" height="58.1309" rx="2.5" ry="2.5" style="stroke:#181818;stroke-width:0.5;" width="170.1445" x="1881" y="104.0654"/><text fill="#000000" font-family="sans-serif" font-size="14" lengthAdjust="spacing" textLength="90.5283" x="1891" y="129.0293">xforms:group</text><text fill="#000000" font-family="sans-serif" font-size="14" lengthAdjust="spacing" textLength="150.1445" x="1891" y="148.0947">get-html mode (L3369)</text></g><!--entity XF_REPEAT--><g class="entity" data-entity="XF_REPEAT" data-source-line="19" data-uid="ent0014" id="entity_XF_REPEAT"><rect fill="#F1F1F1" height="58.1309" rx="2.5" ry="2.5" style="stroke:#181818;stroke-width:0.5;" width="113.4883" x="2086.5" y="104.0654"/><text fill="#000000" font-family="sans-serif" font-size="14" lengthAdjust="spacing" textLength="93.4883" x="2096.5" y="129.0293">xforms:repeat</text><text fill="#000000" font-family="sans-serif" font-size="14" lengthAdjust="spacing" textLength="48.0771" x="2096.5" y="148.0947">(L3430)</text></g><!--entity XF_SWITCH--><g class="entity" data-entity="XF_SWITCH" data-source-line="20" data-uid="ent0015" id="entity_XF_SWITCH"><rect fill="#F1F1F1" height="58.1309" rx="2.5" ry="2.5" style="stroke:#181818;stroke-width:0.5;" width="112.1416" x="2235" y="104.0654"/><text fill="#000000" font-family="sans-serif" font-size="14" lengthAdjust="spacing" textLength="92.1416" x="2245" y="129.0293">xforms:switch</text><text fill="#000000" font-family="sans-serif" font-size="14" lengthAdjust="spacing" textLength="48.0771" x="2245" y="148.0947">(L3269)</text></g><!--entity XF_CASE--><g class="entity" data-entity="XF_CASE" data-source-line="21" data-uid="ent0016" id="entity_XF_CASE"><rect fill="#F1F1F1" height="58.1309" rx="2.5" ry="2.5" style="stroke:#181818;stroke-width:0.5;" width="170.1445" x="2382" y="104.0654"/><text fill="#000000" font-family="sans-serif" font-size="14" lengthAdjust="spacing" textLength="79.5703" x="2392" y="129.0293">xforms:case</text><text fill="#000000" font-family="sans-serif" font-size="14" lengthAdjust="spacing" textLength="150.1445" x="2392" y="148.0947">get-html mode (L3314)</text></g><!--entity H_INPUT--><g class="entity" data-entity="H_INPUT" data-source-line="25" data-uid="ent0018" id="entity_H_INPUT"><rect fill="#F1F1F1" height="39.0654" rx="2.5" ry="2.5" style="stroke:#181818;stroke-width:0.5;" width="205.2881" x="22.5" y="249.0654"/><text fill="#000000" font-family="sans-serif" font-size="14" lengthAdjust="spacing" textLength="185.2881" x="32.5" y="274.0293">&lt;input type="text|date|..."&gt;</text></g><!--entity H_OUTPUT--><g class="entity" data-entity="H_OUTPUT" data-source-line="26" data-uid="ent0019" id="entity_H_OUTPUT"><rect fill="#F1F1F1" height="39.0654" rx="2.5" ry="2.5" style="stroke:#181818;stroke-width:0.5;" width="219.7734" x="263" y="249.0654"/><text fill="#000000" font-family="sans-serif" font-size="14" lengthAdjust="spacing" textLength="199.7734" x="273" y="274.0293">&lt;span class="xforms-output"&gt;</text></g><!--entity H_TEXTAREA--><g class="entity" data-entity="H_TEXTAREA" data-source-line="27" data-uid="ent0020" id="entity_H_TEXTAREA"><rect fill="#F1F1F1" height="39.0654" rx="2.5" ry="2.5" style="stroke:#181818;stroke-width:0.5;" width="90.2119" x="518" y="249.0654"/><text fill="#000000" font-family="sans-serif" font-size="14" lengthAdjust="spacing" textLength="70.2119" x="528" y="274.0293">&lt;textarea&gt;</text></g><!--entity H_SELECT--><g class="entity" data-entity="H_SELECT" data-source-line="28" data-uid="ent0021" id="entity_H_SELECT"><rect fill="#F1F1F1" height="39.0654" rx="2.5" ry="2.5" style="stroke:#181818;stroke-width:0.5;" width="131.0703" x="643.5" y="249.0654"/><text fill="#000000" font-family="sans-serif" font-size="14" lengthAdjust="spacing" textLength="111.0703" x="653.5" y="274.0293">&lt;select multiple&gt;</text></g><!--entity H_SELECT1--><g class="entity" data-entity="H_SELECT1" data-source-line="29" data-uid="ent0022" id="entity_H_SELECT1"><rect fill="#F1F1F1" height="39.0654" rx="2.5" ry="2.5" style="stroke:#181818;stroke-width:0.5;" width="226.5615" x="809.5" y="249.0654"/><text fill="#000000" font-family="sans-serif" font-size="14" lengthAdjust="spacing" textLength="206.5615" x="819.5" y="274.0293">&lt;select&gt; | &lt;input type="radio"&gt;</text></g><!--entity H_RANGE--><g class="entity" data-entity="H_RANGE" data-source-line="30" data-uid="ent0023" id="entity_H_RANGE"><rect fill="#F1F1F1" height="39.0654" rx="2.5" ry="2.5" style="stroke:#181818;stroke-width:0.5;" width="162.9053" x="1071.5" y="249.0654"/><text fill="#000000" font-family="sans-serif" font-size="14" lengthAdjust="spacing" textLength="142.9053" x="1081.5" y="274.0293">&lt;input type="range"&gt;</text></g><!--entity H_FILE--><g class="entity" data-entity="H_FILE" data-source-line="31" data-uid="ent0024" id="entity_H_FILE"><rect fill="#F1F1F1" height="39.0654" rx="2.5" ry="2.5" style="stroke:#181818;stroke-width:0.5;" width="144.0381" x="1270" y="249.0654"/><text fill="#000000" font-family="sans-serif" font-size="14" lengthAdjust="spacing" textLength="124.0381" x="1280" y="274.0293">&lt;input type="file"&gt;</text></g><!--entity H_BUTTON--><g class="entity" data-entity="H_BUTTON" data-source-line="32" data-uid="ent0025" id="entity_H_BUTTON"><rect fill="#F1F1F1" height="39.0654" rx="2.5" ry="2.5" style="stroke:#181818;stroke-width:0.5;" width="158.0449" x="1449" y="249.0654"/><text fill="#000000" font-family="sans-serif" font-size="14" lengthAdjust="spacing" textLength="138.0449" x="1459" y="274.0293">&lt;button data-action&gt;</text></g><!--entity H_SUBMIT--><g class="entity" data-entity="H_SUBMIT" data-source-line="33" data-uid="ent0026" id="entity_H_SUBMIT"><rect fill="#F1F1F1" height="39.0654" rx="2.5" ry="2.5" style="stroke:#181818;stroke-width:0.5;" width="163.4111" x="1642.5" y="249.0654"/><text fill="#000000" font-family="sans-serif" font-size="14" lengthAdjust="spacing" textLength="143.4111" x="1652.5" y="274.0293">&lt;button data-submit&gt;</text></g><!--entity H_GROUP--><g class="entity" data-entity="H_GROUP" data-source-line="34" data-uid="ent0027" id="entity_H_GROUP"><rect fill="#F1F1F1" height="39.0654" rx="2.5" ry="2.5" style="stroke:#181818;stroke-width:0.5;" width="202.916" x="1840.5" y="249.0654"/><text fill="#000000" font-family="sans-serif" font-size="14" lengthAdjust="spacing" textLength="182.916" x="1850.5" y="274.0293">&lt;div class="xforms-group"&gt;</text></g><!--entity H_REPEAT--><g class="entity" data-entity="H_REPEAT" data-source-line="35" data-uid="ent0028" id="entity_H_REPEAT"><rect fill="#F1F1F1" height="39.0654" rx="2.5" ry="2.5" style="stroke:#181818;stroke-width:0.5;" width="217.5928" x="2079" y="249.0654"/><text fill="#000000" font-family="sans-serif" font-size="14" lengthAdjust="spacing" textLength="197.5928" x="2089" y="274.0293">&lt;div data-repeatable-context&gt;</text></g><!--entity H_SWITCH--><g class="entity" data-entity="H_SWITCH" data-source-line="36" data-uid="ent0029" id="entity_H_SWITCH"><rect fill="#F1F1F1" height="39.0654" rx="2.5" ry="2.5" style="stroke:#181818;stroke-width:0.5;" width="204.5293" x="2332.5" y="249.0654"/><text fill="#000000" font-family="sans-serif" font-size="14" lengthAdjust="spacing" textLength="184.5293" x="2342.5" y="274.0293">&lt;div class="xforms-switch"&gt;</text></g><!--entity EV_CHANGE--><g class="entity" data-entity="EV_CHANGE" data-source-line="40" data-uid="ent0031" id="entity_EV_CHANGE"><rect fill="#F1F1F1" height="58.1309" rx="2.5" ry="2.5" style="stroke:#181818;stroke-width:0.5;" width="135.5752" x="855" y="412.0654"/><text fill="#000000" font-family="sans-serif" font-size="14" lengthAdjust="spacing" textLength="90.9658" x="865" y="437.0293">ixsl:onchange</text><text fill="#000000" font-family="sans-serif" font-size="14" lengthAdjust="spacing" textLength="115.5752" x="865" y="456.0947">(L485, L493, L511)</text></g><!--entity EV_CLICK--><g class="entity" data-entity="EV_CLICK" data-source-line="41" data-uid="ent0032" id="entity_EV_CLICK"><rect fill="#F1F1F1" height="58.1309" rx="2.5" ry="2.5" style="stroke:#181818;stroke-width:0.5;" width="105.6816" x="1159" y="412.0654"/><text fill="#000000" font-family="sans-serif" font-size="14" lengthAdjust="spacing" textLength="70.7109" x="1169" y="437.0293">ixsl:onclick</text><text fill="#000000" font-family="sans-serif" font-size="14" lengthAdjust="spacing" textLength="85.6816" x="1169" y="456.0947">(L525, L3727)</text></g><!--entity EV_KEYUP--><g class="entity" data-entity="EV_KEYUP" data-source-line="42" data-uid="ent0033" id="entity_EV_KEYUP"><rect fill="#F1F1F1" height="58.1309" rx="2.5" ry="2.5" style="stroke:#181818;stroke-width:0.5;" width="102.3525" x="718" y="412.0654"/><text fill="#000000" font-family="sans-serif" font-size="14" lengthAdjust="spacing" textLength="82.3525" x="728" y="437.0293">ixsl:onkeyup</text><text fill="#000000" font-family="sans-serif" font-size="14" lengthAdjust="spacing" textLength="40.3662" x="728" y="456.0947">(L445)</text></g><!--entity EV_INPUT--><g class="entity" data-entity="EV_INPUT" data-source-line="43" data-uid="ent0034" id="entity_EV_INPUT"><rect fill="#F1F1F1" height="58.1309" rx="2.5" ry="2.5" style="stroke:#181818;stroke-width:0.5;" width="97.1572" x="1026.5" y="412.0654"/><text fill="#000000" font-family="sans-serif" font-size="14" lengthAdjust="spacing" textLength="77.1572" x="1036.5" y="437.0293">ixsl:oninput</text><text fill="#000000" font-family="sans-serif" font-size="14" lengthAdjust="spacing" textLength="40.3662" x="1036.5" y="456.0947">(L455)</text></g><!--link XF_INPUT to H_INPUT--><g class="link" data-entity-1="XF_INPUT" data-entity-2="H_INPUT" data-source-line="46" data-uid="lnk35" id="link_XF_INPUT_H_INPUT"><path d="M114.76,162.3754 C117.29,188.4054 120.3985,220.2737 122.5885,242.7637" fill="none" id="XF_INPUT-to-H_INPUT" style="stroke:#181818;stroke-width:1;"/><polygon fill="#181818" points="123.17,248.7354,126.2789,239.3901,122.6854,243.759,118.3166,240.1655,123.17,248.7354" style="stroke:#181818;stroke-width:1;"/></g><!--link XF_OUTPUT to H_OUTPUT--><g class="link" data-entity-1="XF_OUTPUT" data-entity-2="H_OUTPUT" data-source-line="47" data-uid="lnk36" id="link_XF_OUTPUT_H_OUTPUT"><path d="M328.88,162.3754 C339.79,188.4054 353.3499,220.7122 362.7799,243.2022" fill="none" id="XF_OUTPUT-to-H_OUTPUT" style="stroke:#181818;stroke-width:1;"/><polygon fill="#181818" points="365.1,248.7354,365.3087,238.8888,363.1666,244.1244,357.931,241.9822,365.1,248.7354" style="stroke:#181818;stroke-width:1;"/></g><!--link XF_TEXTAREA to H_TEXTAREA--><g class="link" data-entity-1="XF_TEXTAREA" data-entity-2="H_TEXTAREA" data-source-line="48" data-uid="lnk37" id="link_XF_TEXTAREA_H_TEXTAREA"><path d="M530.7,162.3754 C538.69,188.4054 548.5478,220.51 555.4578,243" fill="none" id="XF_TEXTAREA-to-H_TEXTAREA" style="stroke:#181818;stroke-width:1;"/><polygon fill="#181818" points="557.22,248.7354,558.4003,238.9576,555.7515,243.9559,550.7531,241.3071,557.22,248.7354" style="stroke:#181818;stroke-width:1;"/></g><!--link XF_SELECT to H_SELECT--><g class="link" data-entity-1="XF_SELECT" data-entity-2="H_SELECT" data-source-line="49" data-uid="lnk38" id="link_XF_SELECT_H_SELECT"><path d="M723.18,162.3754 C719.67,188.4054 715.3711,220.2992 712.3411,242.7892" fill="none" id="XF_SELECT-to-H_SELECT" style="stroke:#181818;stroke-width:1;"/><polygon fill="#181818" points="711.54,248.7354,716.7059,240.3501,712.2076,243.7802,708.7775,239.2819,711.54,248.7354" style="stroke:#181818;stroke-width:1;"/></g><!--link XF_SELECT1 to H_SELECT1--><g class="link" data-entity-1="XF_SELECT1" data-entity-2="H_SELECT1" data-source-line="50" data-uid="lnk39" id="link_XF_SELECT1_H_SELECT1"><path d="M930.09,162.3754 C928.34,188.4054 926.1946,220.2591 924.6746,242.7491" fill="none" id="XF_SELECT1-to-H_SELECT1" style="stroke:#181818;stroke-width:1;"/><polygon fill="#181818" points="924.27,248.7354,928.8678,240.0256,924.6072,243.7468,920.886,239.4862,924.27,248.7354" style="stroke:#181818;stroke-width:1;"/></g><!--link XF_RANGE to H_RANGE--><g class="link" data-entity-1="XF_RANGE" data-entity-2="H_RANGE" data-source-line="51" data-uid="lnk40" id="link_XF_RANGE_H_RANGE"><path d="M1140.39,162.3754 C1143.51,188.4054 1147.3374,220.2879 1150.0274,242.7779" fill="none" id="XF_RANGE-to-H_RANGE" style="stroke:#181818;stroke-width:1;"/><polygon fill="#181818" points="1150.74,248.7354,1153.6428,239.3241,1150.1462,243.7708,1145.6994,240.2742,1150.74,248.7354" style="stroke:#181818;stroke-width:1;"/></g><!--link XF_UPLOAD to H_FILE--><g class="link" data-entity-1="XF_UPLOAD" data-entity-2="H_FILE" data-source-line="52" data-uid="lnk41" id="link_XF_UPLOAD_H_FILE"><path d="M1342,162.3754 C1342,188.4054 1342,220.2454 1342,242.7354" fill="none" id="XF_UPLOAD-to-H_FILE" style="stroke:#181818;stroke-width:1;"/><polygon fill="#181818" points="1342,248.7354,1346,239.7354,1342,243.7354,1338,239.7354,1342,248.7354" style="stroke:#181818;stroke-width:1;"/></g><!--link XF_TRIGGER to H_BUTTON--><g class="link" data-entity-1="XF_TRIGGER" data-entity-2="H_BUTTON" data-source-line="53" data-uid="lnk42" id="link_XF_TRIGGER_H_BUTTON"><path d="M1542.97,162.3754 C1539.27,188.4054 1534.7252,220.3053 1531.5252,242.7953" fill="none" id="XF_TRIGGER-to-H_BUTTON" style="stroke:#181818;stroke-width:1;"/><polygon fill="#181818" points="1530.68,248.7354,1535.9079,240.3886,1531.3843,243.7853,1527.9877,239.2617,1530.68,248.7354" style="stroke:#181818;stroke-width:1;"/></g><!--link XF_SUBMIT to H_SUBMIT--><g class="link" data-entity-1="XF_SUBMIT" data-entity-2="H_SUBMIT" data-source-line="54" data-uid="lnk43" id="link_XF_SUBMIT_H_SUBMIT"><path d="M1724.79,162.3754 C1724.59,188.4054 1724.3554,220.2456 1724.1854,242.7356" fill="none" id="XF_SUBMIT-to-H_SUBMIT" style="stroke:#181818;stroke-width:1;"/><polygon fill="#181818" points="1724.14,248.7354,1728.2079,239.7659,1724.1778,243.7356,1720.2081,239.7055,1724.14,248.7354" style="stroke:#181818;stroke-width:1;"/></g><!--link XF_GROUP to H_GROUP--><g class="link" data-entity-1="XF_GROUP" data-entity-2="H_GROUP" data-source-line="55" data-uid="lnk44" id="link_XF_GROUP_H_GROUP"><path d="M1960.91,162.3754 C1956.23,188.4054 1950.4934,220.3404 1946.4434,242.8304" fill="none" id="XF_GROUP-to-H_GROUP" style="stroke:#181818;stroke-width:1;"/><polygon fill="#181818" points="1945.38,248.7354,1950.9117,240.5868,1946.2661,243.8146,1943.0384,239.169,1945.38,248.7354" style="stroke:#181818;stroke-width:1;"/></g><!--link XF_REPEAT to H_REPEAT--><g class="link" data-entity-1="XF_REPEAT" data-entity-2="H_REPEAT" data-source-line="56" data-uid="lnk45" id="link_XF_REPEAT_H_REPEAT"><path d="M2152.54,162.3754 C2161.32,188.4054 2172.1537,220.5597 2179.7337,243.0497" fill="none" id="XF_REPEAT-to-H_REPEAT" style="stroke:#181818;stroke-width:1;"/><polygon fill="#181818" points="2181.65,248.7354,2182.566,238.9293,2180.0531,243.9973,2174.985,241.4844,2181.65,248.7354" style="stroke:#181818;stroke-width:1;"/></g><!--link XF_SWITCH to H_SWITCH--><g class="link" data-entity-1="XF_SWITCH" data-entity-2="H_SWITCH" data-source-line="57" data-uid="lnk46" id="link_XF_SWITCH_H_SWITCH"><path d="M2321.54,162.3754 C2349.61,188.4054 2386.0299,222.1663 2410.2899,244.6563" fill="none" id="XF_SWITCH-to-H_SWITCH" style="stroke:#181818;stroke-width:1;"/><polygon fill="#181818" points="2414.69,248.7354,2410.8092,239.6834,2411.0232,245.3362,2405.3704,245.5502,2414.69,248.7354" style="stroke:#181818;stroke-width:1;"/></g><!--link XF_CASE to H_SWITCH--><g class="link" data-entity-1="XF_CASE" data-entity-2="H_SWITCH" data-source-line="58" data-uid="lnk47" id="link_XF_CASE_H_SWITCH"><path d="M2460.21,162.3754 C2453.98,188.4054 2446.2984,220.4107 2440.9084,242.9007" fill="none" id="XF_CASE-to-H_SWITCH" style="stroke:#181818;stroke-width:1;"/><polygon fill="#181818" points="2439.51,248.7354,2445.4974,240.9155,2440.6753,243.8731,2437.7177,239.051,2439.51,248.7354" style="stroke:#181818;stroke-width:1;"/></g><!--link H_INPUT to EV_CHANGE--><g class="link" data-entity-1="H_INPUT" data-entity-2="EV_CHANGE" data-source-line="60" data-uid="lnk48" id="link_H_INPUT_EV_CHANGE"><path d="M167.45,288.1154 C190.03,297.0654 218.52,306.9554 245,312.0654 C331.04,328.6554 354.74,312.0854 442,320.0654 C501.46,325.5054 515.51,333.9254 575,339.0654 C604.13,341.5854 811.43,334.8654 838,347.0654 C867.62,360.6654 888.2052,384.9543 903.0452,407.0543" fill="none" id="H_INPUT-to-EV_CHANGE" style="stroke:#181818;stroke-width:1;"/><polygon fill="#181818" points="906.39,412.0354,904.6935,402.3338,903.6026,407.8844,898.052,406.7935,906.39,412.0354" style="stroke:#181818;stroke-width:1;"/><text fill="#000000" font-family="sans-serif" font-size="13" lengthAdjust="spacing" textLength="60.8359" x="576" y="334.9604">onchange</text></g><!--link H_INPUT to EV_KEYUP--><g class="link" data-entity-1="H_INPUT" data-entity-2="EV_KEYUP" data-source-line="61" data-uid="lnk49" id="link_H_INPUT_EV_KEYUP"><path d="M165.54,288.1454 C200.15,303.4554 251.57,324.8754 298,339.0654 C447.76,384.8354 624.5093,416.713 711.8193,431.053" fill="none" id="H_INPUT-to-EV_KEYUP" style="stroke:#181818;stroke-width:1;"/><polygon fill="#181818" points="717.74,432.0254,709.5073,426.6197,712.8061,431.2151,708.2107,434.5139,717.74,432.0254" style="stroke:#181818;stroke-width:1;"/><text fill="#000000" font-family="sans-serif" font-size="13" lengthAdjust="spacing" textLength="138.5947" x="299" y="334.9604">onkeyup (incremental)</text></g><!--link H_RANGE to EV_INPUT--><g class="link" data-entity-1="H_RANGE" data-entity-2="EV_INPUT" data-source-line="62" data-uid="lnk50" id="link_H_RANGE_EV_INPUT"><path d="M1144.5,288.1354 C1130.84,317.9954 1106.3961,371.4293 1090.3661,406.4693" fill="none" id="H_RANGE-to-EV_INPUT" style="stroke:#181818;stroke-width:1;"/><polygon fill="#181818" points="1087.87,411.9254,1095.2515,405.4052,1089.9501,407.3786,1087.9767,402.0771,1087.87,411.9254" style="stroke:#181818;stroke-width:1;"/><text fill="#000000" font-family="sans-serif" font-size="13" lengthAdjust="spacing" textLength="133.7705" x="1128" y="334.9604">oninput (incremental)</text></g><!--link H_SELECT to EV_CHANGE--><g class="link" data-entity-1="H_SELECT" data-entity-2="EV_CHANGE" data-source-line="63" data-uid="lnk51" id="link_H_SELECT_EV_CHANGE"><path d="M746.16,288.1554 C772.99,302.4454 809.39,323.6554 838,347.0654 C861.7,366.4554 881.0796,387.8289 897.2396,407.3989" fill="none" id="H_SELECT-to-EV_CHANGE" style="stroke:#181818;stroke-width:1;"/><polygon fill="#181818" points="901.06,412.0254,898.4138,402.5387,897.8764,408.17,892.2451,407.6326,901.06,412.0254" style="stroke:#181818;stroke-width:1;"/><text fill="#000000" font-family="sans-serif" font-size="13" lengthAdjust="spacing" textLength="60.8359" x="826" y="334.9604">onchange</text></g><!--link H_SELECT1 to EV_CHANGE--><g class="link" data-entity-1="H_SELECT1" data-entity-2="EV_CHANGE" data-source-line="64" data-uid="lnk52" id="link_H_SELECT1_EV_CHANGE"><path d="M923,288.1354 C923,317.9954 923,370.8854 923,405.9254" fill="none" id="H_SELECT1-to-EV_CHANGE" style="stroke:#181818;stroke-width:1;"/><polygon fill="#181818" points="923,411.9254,927,402.9254,923,406.9254,919,402.9254,923,411.9254" style="stroke:#181818;stroke-width:1;"/><text fill="#000000" font-family="sans-serif" font-size="13" lengthAdjust="spacing" textLength="60.8359" x="924" y="334.9604">onchange</text></g><!--link H_TEXTAREA to EV_CHANGE--><g class="link" data-entity-1="H_TEXTAREA" data-entity-2="EV_CHANGE" data-source-line="65" data-uid="lnk53" id="link_H_TEXTAREA_EV_CHANGE"><path d="M586.39,288.1654 C597.8,296.4754 612.04,305.7854 626,312.0654 C669.95,331.8254 683.46,331.2354 731,339.0654 C754.53,342.9354 816.56,336.6454 838,347.0654 C867.12,361.2154 887.5919,385.1336 902.5419,406.9836" fill="none" id="H_TEXTAREA-to-EV_CHANGE" style="stroke:#181818;stroke-width:1;"/><polygon fill="#181818" points="905.93,411.9354,904.1491,402.2489,903.1066,407.8089,897.5466,406.7664,905.93,411.9354" style="stroke:#181818;stroke-width:1;"/><text fill="#000000" font-family="sans-serif" font-size="13" lengthAdjust="spacing" textLength="60.8359" x="732" y="334.9604">onchange</text></g><!--link H_BUTTON to EV_CLICK--><g class="link" data-entity-1="H_BUTTON" data-entity-2="EV_CLICK" data-source-line="66" data-uid="lnk54" id="link_H_BUTTON_EV_CLICK"><path d="M1493.58,288.1354 C1438.23,317.9954 1334.3806,374.0366 1269.4306,409.0766" fill="none" id="H_BUTTON-to-EV_CLICK" style="stroke:#181818;stroke-width:1;"/><polygon fill="#181818" points="1264.15,411.9254,1273.97,411.1726,1268.5505,409.5514,1270.1716,404.1318,1264.15,411.9254" style="stroke:#181818;stroke-width:1;"/><text fill="#000000" font-family="sans-serif" font-size="13" lengthAdjust="spacing" textLength="42.0278" x="1426" y="334.9604">onclick</text></g><!--link H_SUBMIT to EV_CLICK--><g class="link" data-entity-1="H_SUBMIT" data-entity-2="EV_CLICK" data-source-line="67" data-uid="lnk55" id="link_H_SUBMIT_EV_CLICK"><path d="M1683.45,288.1154 C1665.68,295.9454 1644.48,304.8854 1625,312.0654 C1497.69,358.9754 1350.0494,401.8435 1270.8494,423.9335" fill="none" id="H_SUBMIT-to-EV_CLICK" style="stroke:#181818;stroke-width:1;"/><polygon fill="#181818" points="1265.07,425.5454,1274.8138,426.9804,1269.8862,424.2021,1272.6645,419.2746,1265.07,425.5454" style="stroke:#181818;stroke-width:1;"/><text fill="#000000" font-family="sans-serif" font-size="13" lengthAdjust="spacing" textLength="42.0278" x="1593" y="334.9604">onclick</text></g><!--link H_REPEAT to EV_CLICK--><g class="link" data-entity-1="H_REPEAT" data-entity-2="EV_CLICK" data-source-line="68" data-uid="lnk56" id="link_H_REPEAT_EV_CLICK"><path d="M2139.12,288.1254 C2115.76,296.4354 2087.22,305.7554 2061,312.0654 C1764.64,383.4254 1405.963,421.887 1271.243,434.707" fill="none" id="H_REPEAT-to-EV_CLICK" style="stroke:#181818;stroke-width:1;"/><polygon fill="#181818" points="1265.27,435.2754,1274.6085,438.4048,1270.2475,434.8018,1273.8506,430.4408,1265.27,435.2754" style="stroke:#181818;stroke-width:1;"/><text fill="#000000" font-family="sans-serif" font-size="13" lengthAdjust="spacing" textLength="134.9131" x="2017" y="334.9604">onclick (index update)</text></g><!--SRC=[ZLHTRzem57tFhx1uWccWybLAHIjHcXBKj208MwTrgjpWKWl7YHAderhtt-V47t4WbVQIX-jphdFFFJuCCuB0mqqO1mdmGyhYa2I0XS3nxbo020eGPI20KOJfrafsc4OmXW671b58-TcAlVC6CV8Pf5k234W4_HtSeaE09UkW9c-To5iVQJs1-v0szozPlRLFIAC6_bW0_1ILSzuvPOzqYrZpbGK41E46WRhRwGsxZLy09doEfzdzOkqPd31brQJEeAr9yxLNPZ6qPp16i89tTdAgUPxzu8sNzjXW9bmpl-g-eS5RsQuzyOvOxV-YjGrUp3L55QpJOS5QZk-dji598nB2JPMClOuchHVkV7njAXBZxHR5nxJke5UexordqwczD2TBdmFCzU30_g1NZBA-kfjvrb_33faF8AOereueRtyRXsbKSN_tTAZRJfVpzSBK1qK8YjjxtPD24djXZqlw_yRCVyrn7QFTwllCcpW6peS9glg5TZ7PPBooItFbBscUsn3Oua6foKQvem5xZz15BVFSnmOozD5gjMgNUJ-dyFCeYI05Fe59Sb4JlzCKvjROmiOZPM1rP3fr9Dm6WfGm716aC8Kh9U8IV83IByPmWyDQ6Ty-6YGtfKPf-vKmBvWKa9kPAn3FAMCX1Lm4s8G-mo5LaAkrvytlZq32NVg7XAaoq0Q_7MYLsqTVgOsI8_DUmYlmcQ1c5eHSG3s2jaj5Ns6TGXHX6TC0r_CxOBzbEUf0kY4epg8EytWx3-aNuI66WeZmrISgyUIn_oeUUDtjdVM_0fSd7V_sspAwx6zF4qVfgoW4-xkCqUzaZEwWCoZ0xcnoQs1tw3rxKhnxhwz1j_OF8Oq4oTJbe7u14hRaKwh81StcfRQhZbHPbSOq4bCUQ5lgT9C7qej5w9NgRKlbcYmBa-dSajNSLqKgoQgqaWuXrLcOHuM8h0gVwCXGrmb3w8HGBSJkPGYKYvPZwAJt1iw1Ml8X85z3Vfvl2TGnzUCyFI1fM8unlbf73XQFx11iQFl9tQRCdq1Ak_i48yJLYCnl0f2vqd9CoIlF3PcFpxEnDcWFqYYBoSO_]--></g></svg>