<svg xmlns="http://www.w3.org/2000/svg" xmlns:xlink="http://www.w3.org/1999/xlink" contentStyleType="text/css" data-diagram-type="DESCRIPTION" height="492px" preserveAspectRatio="none" style="width:2561px;height:492px;background:#FFFFFF;" version="1.1" viewBox="0 0 2561 492" width="2561px" zoomAndPan="magnify"><title>XForms controls to HTML element mapping</title><defs/><g><g class="title" data-source-line="1"><text fill="#000000" font-family="sans-serif" font-size="14" font-weight="bold" lengthAdjust="spacing" textLength="303.3789" x="1121.8105" y="24.9639">XForms controls to HTML element mapping</text></g><!--cluster XForms Controls\n(saxon-xforms.xsl)--><g class="cluster" data-entity="XForms Controls.n.saxon-xforms.xsl." data-source-line="5" data-uid="ent0002" id="cluster_XForms Controls.n.saxon-xforms.xsl."><rect fill="none" height="131" rx="2.5" ry="2.5" style="stroke:#181818;stroke-width:1;" width="1380" x="228" y="47.0654"/><text fill="#000000" font-family="sans-serif" font-size="14" font-weight="bold" lengthAdjust="spacing" textLength="115.5137" x="860.2432" y="64.0293">XForms Controls</text><text fill="#000000" font-family="sans-serif" font-size="14" font-weight="bold" lengthAdjust="spacing" textLength="129.876" x="853.062" y="83.0947">(saxon-xforms.xsl)</text></g><!--cluster Container Controls--><g class="cluster" data-entity="Container Controls" data-source-line="17" data-uid="ent0012" id="cluster_Container Controls"><rect fill="none" height="112" rx="2.5" ry="2.5" style="stroke:#181818;stroke-width:1;" width="599" x="1956" y="66.0654"/><text fill="#000000" font-family="sans-serif" font-size="14" font-weight="bold" lengthAdjust="spacing" textLength="132.1865" x="2189.4067" y="83.0293">Container Controls</text></g><!--cluster HTML Output Elements--><g class="cluster" data-entity="HTML Output Elements" data-source-line="24" data-uid="ent0017" id="cluster_HTML Output Elements"><rect fill="none" height="93" rx="2.5" ry="2.5" style="stroke:#181818;stroke-width:1;" width="2546" x="7" y="211.0654"/><text fill="#000000" font-family="sans-serif" font-size="14" font-weight="bold" lengthAdjust="spacing" textLength="162.4014" x="1198.7993" y="228.0293">HTML Output Elements</text></g><!--cluster DOM Event Handlers\n(ixsl:on* mode templates)--><g class="cluster" data-entity="DOM Event Handlers.n.ixsl.on. mode templates." data-source-line="39" data-uid="ent0030" id="cluster_DOM Event Handlers.n.ixsl.on. mode templates."><rect fill="none" height="131" rx="2.5" ry="2.5" style="stroke:#181818;stroke-width:1;" width="702" x="660" y="355.0654"/><text fill="#000000" font-family="sans-serif" font-size="14" font-weight="bold" lengthAdjust="spacing" textLength="144.4229" x="938.7886" y="372.0293">DOM Event Handlers</text><text fill="#000000" font-family="sans-serif" font-size="14" font-weight="bold" lengthAdjust="spacing" textLength="183.1211" x="919.4395" y="391.0947">(ixsl:on* mode templates)</text></g><!--entity XF_INPUT--><g class="entity" data-entity="XF_INPUT" data-source-line="6" data-uid="ent0003" id="entity_XF_INPUT"><rect fill="#F1F1F1" height="58.1309" rx="2.5" ry="2.5" style="stroke:#181818;stroke-width:0.5;" width="118.4307" x="244" y="104.0654"/><text fill="#000000" font-family="sans-serif" font-size="14" lengthAdjust="spacing" textLength="84.9775" x="254" y="129.0293">xforms:input</text><text fill="#000000" font-family="sans-serif" font-size="14" lengthAdjust="spacing" textLength="98.4307" x="254" y="148.0947">get-html mode</text></g><!--entity XF_OUTPUT--><g class="entity" data-entity="XF_OUTPUT" data-source-line="7" data-uid="ent0004" id="entity_XF_OUTPUT"><rect fill="#F1F1F1" height="58.1309" rx="2.5" ry="2.5" style="stroke:#181818;stroke-width:0.5;" width="118.4307" x="397" y="104.0654"/><text fill="#000000" font-family="sans-serif" font-size="14" lengthAdjust="spacing" textLength="94.8896" x="407" y="129.0293">xforms:output</text><text fill="#000000" font-family="sans-serif" font-size="14" lengthAdjust="spacing" textLength="98.4307" x="407" y="148.0947">get-html mode</text></g><!--entity XF_TEXTAREA--><g class="entity" data-entity="XF_TEXTAREA" data-source-line="8" data-uid="ent0005" id="entity_XF_TEXTAREA"><rect fill="#F1F1F1" height="58.1309" rx="2.5" ry="2.5" style="stroke:#181818;stroke-width:0.5;" width="125.1846" x="550.5" y="104.0654"/><text fill="#000000" font-family="sans-serif" font-size="14" lengthAdjust="spacing" textLength="105.1846" x="560.5" y="129.0293">xforms:textarea</text><text fill="#000000" font-family="sans-serif" font-size="14" lengthAdjust="spacing" textLength="98.4307" x="560.5" y="148.0947">get-html mode</text></g><!--entity XF_SELECT--><g class="entity" data-entity="XF_SELECT" data-source-line="9" data-uid="ent0006" id="entity_XF_SELECT"><rect fill="#F1F1F1" height="58.1309" rx="2.5" ry="2.5" style="stroke:#181818;stroke-width:0.5;" width="118.4307" x="711" y="104.0654"/><text fill="#000000" font-family="sans-serif" font-size="14" lengthAdjust="spacing" textLength="88.2725" x="721" y="129.0293">xforms:select</text><text fill="#000000" font-family="sans-serif" font-size="14" lengthAdjust="spacing" textLength="98.4307" x="721" y="148.0947">get-html mode</text></g><!--entity XF_SELECT1--><g class="entity" data-entity="XF_SELECT1" data-source-line="10" data-uid="ent0007" id="entity_XF_SELECT1"><rect fill="#F1F1F1" height="58.1309" rx="2.5" ry="2.5" style="stroke:#181818;stroke-width:0.5;" width="118.4307" x="864" y="104.0654"/><text fill="#000000" font-family="sans-serif" font-size="14" lengthAdjust="spacing" textLength="95.9834" x="874" y="129.0293">xforms:select1</text><text fill="#000000" font-family="sans-serif" font-size="14" lengthAdjust="spacing" textLength="98.4307" x="874" y="148.0947">get-html mode</text></g><!--entity XF_RANGE--><g class="entity" data-entity="XF_RANGE" data-source-line="11" data-uid="ent0008" id="entity_XF_RANGE"><rect fill="#F1F1F1" height="58.1309" rx="2.5" ry="2.5" style="stroke:#181818;stroke-width:0.5;" width="118.4307" x="1017" y="104.0654"/><text fill="#000000" font-family="sans-serif" font-size="14" lengthAdjust="spacing" textLength="89.1953" x="1027" y="129.0293">xforms:range</text><text fill="#000000" font-family="sans-serif" font-size="14" lengthAdjust="spacing" textLength="98.4307" x="1027" y="148.0947">get-html mode</text></g><!--entity XF_UPLOAD--><g class="entity" data-entity="XF_UPLOAD" data-source-line="12" data-uid="ent0009" id="entity_XF_UPLOAD"><rect fill="#F1F1F1" height="58.1309" rx="2.5" ry="2.5" style="stroke:#181818;stroke-width:0.5;" width="118.4307" x="1170" y="104.0654"/><text fill="#000000" font-family="sans-serif" font-size="14" lengthAdjust="spacing" textLength="96.209" x="1180" y="129.0293">xforms:upload</text><text fill="#000000" font-family="sans-serif" font-size="14" lengthAdjust="spacing" textLength="98.4307" x="1180" y="148.0947">get-html mode</text></g><!--entity XF_TRIGGER--><g class="entity" data-entity="XF_TRIGGER" data-source-line="13" data-uid="ent0010" id="entity_XF_TRIGGER"><rect fill="#F1F1F1" height="58.1309" rx="2.5" ry="2.5" style="stroke:#181818;stroke-width:0.5;" width="118.4307" x="1323" y="104.0654"/><text fill="#000000" font-family="sans-serif" font-size="14" lengthAdjust="spacing" textLength="95.7441" x="1333" y="129.0293">xforms:trigger</text><text fill="#000000" font-family="sans-serif" font-size="14" lengthAdjust="spacing" textLength="98.4307" x="1333" y="148.0947">get-html mode</text></g><!--entity XF_SUBMIT--><g class="entity" data-entity="XF_SUBMIT" data-source-line="14" data-uid="ent0011" id="entity_XF_SUBMIT"><rect fill="#F1F1F1" height="58.1309" rx="2.5" ry="2.5" style="stroke:#181818;stroke-width:0.5;" width="116.1201" x="1476" y="104.0654"/><text fill="#000000" font-family="sans-serif" font-size="14" lengthAdjust="spacing" textLength="96.1201" x="1486" y="129.0293">xforms:submit</text><text fill="#000000" font-family="sans-serif" font-size="14" lengthAdjust="spacing" textLength="59.0625" x="1486" y="148.0947">template</text></g><!--entity XF_GROUP--><g class="entity" data-entity="XF_GROUP" data-source-line="18" data-uid="ent0013" id="entity_XF_GROUP"><rect fill="#F1F1F1" height="58.1309" rx="2.5" ry="2.5" style="stroke:#181818;stroke-width:0.5;" width="118.4307" x="1972" y="104.0654"/><text fill="#000000" font-family="sans-serif" font-size="14" lengthAdjust="spacing" textLength="90.5283" x="1982" y="129.0293">xforms:group</text><text fill="#000000" font-family="sans-serif" font-size="14" lengthAdjust="spacing" textLength="98.4307" x="1982" y="148.0947">get-html mode</text></g><!--entity XF_REPEAT--><g class="entity" data-entity="XF_REPEAT" data-source-line="19" data-uid="ent0014" id="entity_XF_REPEAT"><rect fill="#F1F1F1" height="58.1309" rx="2.5" ry="2.5" style="stroke:#181818;stroke-width:0.5;" width="113.4883" x="2125.5" y="104.0654"/><text fill="#000000" font-family="sans-serif" font-size="14" lengthAdjust="spacing" textLength="93.4883" x="2135.5" y="129.0293">xforms:repeat</text><text fill="#000000" font-family="sans-serif" font-size="14" lengthAdjust="spacing" textLength="59.0625" x="2135.5" y="148.0947">template</text></g><!--entity XF_SWITCH--><g class="entity" data-entity="XF_SWITCH" data-source-line="20" data-uid="ent0015" id="entity_XF_SWITCH"><rect fill="#F1F1F1" height="58.1309" rx="2.5" ry="2.5" style="stroke:#181818;stroke-width:0.5;" width="112.1416" x="2274" y="104.0654"/><text fill="#000000" font-family="sans-serif" font-size="14" lengthAdjust="spacing" textLength="92.1416" x="2284" y="129.0293">xforms:switch</text><text fill="#000000" font-family="sans-serif" font-size="14" lengthAdjust="spacing" textLength="59.0625" x="2284" y="148.0947">template</text></g><!--entity XF_CASE--><g class="entity" data-entity="XF_CASE" data-source-line="21" data-uid="ent0016" id="entity_XF_CASE"><rect fill="#F1F1F1" height="58.1309" rx="2.5" ry="2.5" style="stroke:#181818;stroke-width:0.5;" width="118.4307" x="2421" y="104.0654"/><text fill="#000000" font-family="sans-serif" font-size="14" lengthAdjust="spacing" textLength="79.5703" x="2431" y="129.0293">xforms:case</text><text fill="#000000" font-family="sans-serif" font-size="14" lengthAdjust="spacing" textLength="98.4307" x="2431" y="148.0947">get-html mode</text></g><!--entity H_INPUT--><g class="entity" data-entity="H_INPUT" data-source-line="25" data-uid="ent0018" id="entity_H_INPUT"><rect fill="#F1F1F1" height="39.0654" rx="2.5" ry="2.5" style="stroke:#181818;stroke-width:0.5;" width="205.2881" x="22.5" y="249.0654"/><text fill="#000000" font-family="sans-serif" font-size="14" lengthAdjust="spacing" textLength="185.2881" x="32.5" y="274.0293">&lt;input type="text|date|..."&gt;</text></g><!--entity H_OUTPUT--><g class="entity" data-entity="H_OUTPUT" data-source-line="26" data-uid="ent0019" id="entity_H_OUTPUT"><rect fill="#F1F1F1" height="39.0654" rx="2.5" ry="2.5" style="stroke:#181818;stroke-width:0.5;" width="219.7734" x="263" y="249.0654"/><text fill="#000000" font-family="sans-serif" font-size="14" lengthAdjust="spacing" textLength="199.7734" x="273" y="274.0293">&lt;span class="xforms-output"&gt;</text></g><!--entity H_TEXTAREA--><g class="entity" data-entity="H_TEXTAREA" data-source-line="27" data-uid="ent0020" id="entity_H_TEXTAREA"><rect fill="#F1F1F1" height="39.0654" rx="2.5" ry="2.5" style="stroke:#181818;stroke-width:0.5;" width="90.2119" x="518" y="249.0654"/><text fill="#000000" font-family="sans-serif" font-size="14" lengthAdjust="spacing" textLength="70.2119" x="528" y="274.0293">&lt;textarea&gt;</text></g><!--entity H_SELECT--><g class="entity" data-entity="H_SELECT" data-source-line="28" data-uid="ent0021" id="entity_H_SELECT"><rect fill="#F1F1F1" height="39.0654" rx="2.5" ry="2.5" style="stroke:#181818;stroke-width:0.5;" width="131.0703" x="643.5" y="249.0654"/><text fill="#000000" font-family="sans-serif" font-size="14" lengthAdjust="spacing" textLength="111.0703" x="653.5" y="274.0293">&lt;select multiple&gt;</text></g><!--entity H_SELECT1--><g class="entity" data-entity="H_SELECT1" data-source-line="29" data-uid="ent0022" id="entity_H_SELECT1"><rect fill="#F1F1F1" height="39.0654" rx="2.5" ry="2.5" style="stroke:#181818;stroke-width:0.5;" width="226.5615" x="809.5" y="249.0654"/><text fill="#000000" font-family="sans-serif" font-size="14" lengthAdjust="spacing" textLength="206.5615" x="819.5" y="274.0293">&lt;select&gt; | &lt;input type="radio"&gt;</text></g><!--entity H_RANGE--><g class="entity" data-entity="H_RANGE" data-source-line="30" data-uid="ent0023" id="entity_H_RANGE"><rect fill="#F1F1F1" height="39.0654" rx="2.5" ry="2.5" style="stroke:#181818;stroke-width:0.5;" width="162.9053" x="1071.5" y="249.0654"/><text fill="#000000" font-family="sans-serif" font-size="14" lengthAdjust="spacing" textLength="142.9053" x="1081.5" y="274.0293">&lt;input type="range"&gt;</text></g><!--entity H_FILE--><g class="entity" data-entity="H_FILE" data-source-line="31" data-uid="ent0024" id="entity_H_FILE"><rect fill="#F1F1F1" height="39.0654" rx="2.5" ry="2.5" style="stroke:#181818;stroke-width:0.5;" width="144.0381" x="1270" y="249.0654"/><text fill="#000000" font-family="sans-serif" font-size="14" lengthAdjust="spacing" textLength="124.0381" x="1280" y="274.0293">&lt;input type="file"&gt;</text></g><!--entity H_BUTTON--><g class="entity" data-entity="H_BUTTON" data-source-line="32" data-uid="ent0025" id="entity_H_BUTTON"><rect fill="#F1F1F1" height="39.0654" rx="2.5" ry="2.5" style="stroke:#181818;stroke-width:0.5;" width="158.0449" x="1449" y="249.0654"/><text fill="#000000" font-family="sans-serif" font-size="14" lengthAdjust="spacing" textLength="138.0449" x="1459" y="274.0293">&lt;button data-action&gt;</text></g><!--entity H_SUBMIT--><g class="entity" data-entity="H_SUBMIT" data-source-line="33" data-uid="ent0026" id="entity_H_SUBMIT"><rect fill="#F1F1F1" height="39.0654" rx="2.5" ry="2.5" style="stroke:#181818;stroke-width:0.5;" width="163.4111" x="1642.5" y="249.0654"/><text fill="#000000" font-family="sans-serif" font-size="14" lengthAdjust="spacing" textLength="143.4111" x="1652.5" y="274.0293">&lt;button data-submit&gt;</text></g><!--entity H_GROUP--><g class="entity" data-entity="H_GROUP" data-source-line="34" data-uid="ent0027" id="entity_H_GROUP"><rect fill="#F1F1F1" height="39.0654" rx="2.5" ry="2.5" style="stroke:#181818;stroke-width:0.5;" width="202.916" x="1840.5" y="249.0654"/><text fill="#000000" font-family="sans-serif" font-size="14" lengthAdjust="spacing" textLength="182.916" x="1850.5" y="274.0293">&lt;div class="xforms-group"&gt;</text></g><!--entity H_REPEAT--><g class="entity" data-entity="H_REPEAT" data-source-line="35" data-uid="ent0028" id="entity_H_REPEAT"><rect fill="#F1F1F1" height="39.0654" rx="2.5" ry="2.5" style="stroke:#181818;stroke-width:0.5;" width="217.5928" x="2079" y="249.0654"/><text fill="#000000" font-family="sans-serif" font-size="14" lengthAdjust="spacing" textLength="197.5928" x="2089" y="274.0293">&lt;div data-repeatable-context&gt;</text></g><!--entity H_SWITCH--><g class="entity" data-entity="H_SWITCH" data-source-line="36" data-uid="ent0029" id="entity_H_SWITCH"><rect fill="#F1F1F1" height="39.0654" rx="2.5" ry="2.5" style="stroke:#181818;stroke-width:0.5;" width="204.5293" x="2332.5" y="249.0654"/><text fill="#000000" font-family="sans-serif" font-size="14" lengthAdjust="spacing" textLength="184.5293" x="2342.5" y="274.0293">&lt;div class="xforms-switch"&gt;</text></g><!--entity EV_CHANGE--><g class="entity" data-entity="EV_CHANGE" data-source-line="40" data-uid="ent0031" id="entity_EV_CHANGE"><rect fill="#F1F1F1" height="58.1309" rx="2.5" ry="2.5" style="stroke:#181818;stroke-width:0.5;" width="141.4883" x="852.5" y="412.0654"/><text fill="#000000" font-family="sans-serif" font-size="14" lengthAdjust="spacing" textLength="90.9658" x="862.5" y="437.0293">ixsl:onchange</text><text fill="#000000" font-family="sans-serif" font-size="14" lengthAdjust="spacing" textLength="121.4883" x="862.5" y="456.0947">(saxon-xforms.xsl)</text></g><!--entity EV_CLICK--><g class="entity" data-entity="EV_CLICK" data-source-line="41" data-uid="ent0032" id="entity_EV_CLICK"><rect fill="#F1F1F1" height="58.1309" rx="2.5" ry="2.5" style="stroke:#181818;stroke-width:0.5;" width="141.4883" x="1204.5" y="412.0654"/><text fill="#000000" font-family="sans-serif" font-size="14" lengthAdjust="spacing" textLength="70.7109" x="1214.5" y="437.0293">ixsl:onclick</text><text fill="#000000" font-family="sans-serif" font-size="14" lengthAdjust="spacing" textLength="121.4883" x="1214.5" y="456.0947">(saxon-xforms.xsl)</text></g><!--entity EV_KEYUP--><g class="entity" data-entity="EV_KEYUP" data-source-line="42" data-uid="ent0033" id="entity_EV_KEYUP"><rect fill="#F1F1F1" height="58.1309" rx="2.5" ry="2.5" style="stroke:#181818;stroke-width:0.5;" width="141.4883" x="676.5" y="412.0654"/><text fill="#000000" font-family="sans-serif" font-size="14" lengthAdjust="spacing" textLength="82.3525" x="686.5" y="437.0293">ixsl:onkeyup</text><text fill="#000000" font-family="sans-serif" font-size="14" lengthAdjust="spacing" textLength="121.4883" x="686.5" y="456.0947">(saxon-xforms.xsl)</text></g><!--entity EV_INPUT--><g class="entity" data-entity="EV_INPUT" data-source-line="43" data-uid="ent0034" id="entity_EV_INPUT"><rect fill="#F1F1F1" height="58.1309" rx="2.5" ry="2.5" style="stroke:#181818;stroke-width:0.5;" width="141.4883" x="1028.5" y="412.0654"/><text fill="#000000" font-family="sans-serif" font-size="14" lengthAdjust="spacing" textLength="77.1572" x="1038.5" y="437.0293">ixsl:oninput</text><text fill="#000000" font-family="sans-serif" font-size="14" lengthAdjust="spacing" textLength="121.4883" x="1038.5" y="456.0947">(saxon-xforms.xsl)</text></g><!--link XF_INPUT to H_INPUT--><g class="link" data-entity-1="XF_INPUT" data-entity-2="H_INPUT" data-source-line="46" data-uid="lnk35" id="link_XF_INPUT_H_INPUT"><path d="M265.25,162.3754 C230.45,188.4754 184.5894,222.8647 154.6394,245.3347" fill="none" id="XF_INPUT-to-H_INPUT" style="stroke:#181818;stroke-width:1;"/><polygon fill="#181818" points="149.84,248.9354,159.4396,246.7339,153.8395,245.9348,154.6386,240.3347,149.84,248.9354" style="stroke:#181818;stroke-width:1;"/></g><!--link XF_OUTPUT to H_OUTPUT--><g class="link" data-entity-1="XF_OUTPUT" data-entity-2="H_OUTPUT" data-source-line="47" data-uid="lnk36" id="link_XF_OUTPUT_H_OUTPUT"><path d="M438.4,162.3754 C422.22,188.4054 401.8592,221.1507 387.8692,243.6407" fill="none" id="XF_OUTPUT-to-H_OUTPUT" style="stroke:#181818;stroke-width:1;"/><polygon fill="#181818" points="384.7,248.7354,392.8503,243.2061,387.341,244.4898,386.0573,238.9805,384.7,248.7354" style="stroke:#181818;stroke-width:1;"/></g><!--link XF_TEXTAREA to H_TEXTAREA--><g class="link" data-entity-1="XF_TEXTAREA" data-entity-2="H_TEXTAREA" data-source-line="48" data-uid="lnk37" id="link_XF_TEXTAREA_H_TEXTAREA"><path d="M602.4,162.3754 C592.65,188.4054 580.5737,220.6263 572.1537,243.1163" fill="none" id="XF_TEXTAREA-to-H_TEXTAREA" style="stroke:#181818;stroke-width:1;"/><polygon fill="#181818" points="570.05,248.7354,576.9517,241.7093,571.8031,244.0528,569.4595,238.9043,570.05,248.7354" style="stroke:#181818;stroke-width:1;"/></g><!--link XF_SELECT to H_SELECT--><g class="link" data-entity-1="XF_SELECT" data-entity-2="H_SELECT" data-source-line="49" data-uid="lnk38" id="link_XF_SELECT_H_SELECT"><path d="M757.06,162.3754 C745.17,188.4054 730.3743,220.7885 720.0943,243.2785" fill="none" id="XF_SELECT-to-H_SELECT" style="stroke:#181818;stroke-width:1;"/><polygon fill="#181818" points="717.6,248.7354,724.9795,242.2129,719.6786,244.188,717.7035,238.8871,717.6,248.7354" style="stroke:#181818;stroke-width:1;"/></g><!--link XF_SELECT1 to H_SELECT1--><g class="link" data-entity-1="XF_SELECT1" data-entity-2="H_SELECT1" data-source-line="50" data-uid="lnk39" id="link_XF_SELECT1_H_SELECT1"><path d="M923,162.3754 C923,188.4054 923,220.2454 923,242.7354" fill="none" id="XF_SELECT1-to-H_SELECT1" style="stroke:#181818;stroke-width:1;"/><polygon fill="#181818" points="923,248.7354,927,239.7354,923,243.7354,919,239.7354,923,248.7354" style="stroke:#181818;stroke-width:1;"/></g><!--link XF_RANGE to H_RANGE--><g class="link" data-entity-1="XF_RANGE" data-entity-2="H_RANGE" data-source-line="51" data-uid="lnk40" id="link_XF_RANGE_H_RANGE"><path d="M1092.33,162.3754 C1107.34,188.4054 1126.1725,221.0478 1139.1425,243.5378" fill="none" id="XF_RANGE-to-H_RANGE" style="stroke:#181818;stroke-width:1;"/><polygon fill="#181818" points="1142.14,248.7354,1141.1089,238.9407,1139.6421,244.4041,1134.1787,242.9373,1142.14,248.7354" style="stroke:#181818;stroke-width:1;"/></g><!--link XF_UPLOAD to H_FILE--><g class="link" data-entity-1="XF_UPLOAD" data-entity-2="H_FILE" data-source-line="52" data-uid="lnk41" id="link_XF_UPLOAD_H_FILE"><path d="M1252.96,162.3754 C1274.99,188.4054 1303.1543,221.6651 1322.1843,244.1551" fill="none" id="XF_UPLOAD-to-H_FILE" style="stroke:#181818;stroke-width:1;"/><polygon fill="#181818" points="1326.06,248.7354,1323.3001,239.2812,1322.8303,244.9185,1317.193,244.4487,1326.06,248.7354" style="stroke:#181818;stroke-width:1;"/></g><!--link XF_TRIGGER to H_BUTTON--><g class="link" data-entity-1="XF_TRIGGER" data-entity-2="H_BUTTON" data-source-line="53" data-uid="lnk42" id="link_XF_TRIGGER_H_BUTTON"><path d="M1412.96,162.3754 C1441.42,188.4054 1478.3817,222.197 1502.9817,244.687" fill="none" id="XF_TRIGGER-to-H_BUTTON" style="stroke:#181818;stroke-width:1;"/><polygon fill="#181818" points="1507.41,248.7354,1503.4665,239.7105,1503.7197,245.3617,1498.0686,245.6149,1507.41,248.7354" style="stroke:#181818;stroke-width:1;"/></g><!--link XF_SUBMIT to H_SUBMIT--><g class="link" data-entity-1="XF_SUBMIT" data-entity-2="H_SUBMIT" data-source-line="54" data-uid="lnk43" id="link_XF_SUBMIT_H_SUBMIT"><path d="M1574.29,162.3754 C1611.44,188.4754 1660.6007,223.016 1692.5807,245.486" fill="none" id="XF_SUBMIT-to-H_SUBMIT" style="stroke:#181818;stroke-width:1;"/><polygon fill="#181818" points="1697.49,248.9354,1692.4256,240.4884,1693.3989,246.0609,1687.8264,247.0342,1697.49,248.9354" style="stroke:#181818;stroke-width:1;"/></g><!--link XF_GROUP to H_GROUP--><g class="link" data-entity-1="XF_GROUP" data-entity-2="H_GROUP" data-source-line="55" data-uid="lnk44" id="link_XF_GROUP_H_GROUP"><path d="M2012.13,162.3754 C1994.78,188.4054 1972.8792,221.2538 1957.8792,243.7438" fill="none" id="XF_GROUP-to-H_GROUP" style="stroke:#181818;stroke-width:1;"/><polygon fill="#181818" points="1954.55,248.7354,1962.8716,243.4675,1957.3244,244.5757,1956.2161,239.0285,1954.55,248.7354" style="stroke:#181818;stroke-width:1;"/></g><!--link XF_REPEAT to H_REPEAT--><g class="link" data-entity-1="XF_REPEAT" data-entity-2="H_REPEAT" data-source-line="56" data-uid="lnk45" id="link_XF_REPEAT_H_REPEAT"><path d="M2183.27,162.3754 C2184.44,188.4054 2185.8708,220.2515 2186.8808,242.7415" fill="none" id="XF_REPEAT-to-H_REPEAT" style="stroke:#181818;stroke-width:1;"/><polygon fill="#181818" points="2187.15,248.7354,2190.7422,239.565,2186.9257,243.7405,2182.7503,239.9239,2187.15,248.7354" style="stroke:#181818;stroke-width:1;"/></g><!--link XF_SWITCH to H_SWITCH--><g class="link" data-entity-1="XF_SWITCH" data-entity-2="H_SWITCH" data-source-line="57" data-uid="lnk46" id="link_XF_SWITCH_H_SWITCH"><path d="M2352.27,162.3754 C2372.74,188.4054 2398.7906,221.5295 2416.4806,244.0195" fill="none" id="XF_SWITCH-to-H_SWITCH" style="stroke:#181818;stroke-width:1;"/><polygon fill="#181818" points="2420.19,248.7354,2417.7698,239.1886,2417.0988,244.8055,2411.4819,244.1345,2420.19,248.7354" style="stroke:#181818;stroke-width:1;"/></g><!--link XF_CASE to H_SWITCH--><g class="link" data-entity-1="XF_CASE" data-entity-2="H_SWITCH" data-source-line="58" data-uid="lnk47" id="link_XF_CASE_H_SWITCH"><path d="M2470.46,162.3754 C2461.68,188.4054 2450.8463,220.5597 2443.2663,243.0497" fill="none" id="XF_CASE-to-H_SWITCH" style="stroke:#181818;stroke-width:1;"/><polygon fill="#181818" points="2441.35,248.7354,2448.015,241.4844,2442.9469,243.9973,2440.434,238.9293,2441.35,248.7354" style="stroke:#181818;stroke-width:1;"/></g><!--link H_INPUT to EV_CHANGE--><g class="link" data-entity-1="H_INPUT" data-entity-2="EV_CHANGE" data-source-line="60" data-uid="lnk48" id="link_H_INPUT_EV_CHANGE"><path d="M167.45,288.1154 C190.03,297.0654 218.52,306.9554 245,312.0654 C331.04,328.6554 354.73,312.1254 442,320.0654 C501.9,325.5154 516.07,333.9054 576,339.0654 C604.69,341.5354 808.73,335.2754 835,347.0654 C865.22,360.6254 886.6258,384.9924 902.1258,407.1024" fill="none" id="H_INPUT-to-EV_CHANGE" style="stroke:#181818;stroke-width:1;"/><polygon fill="#181818" points="905.57,412.0154,903.679,402.3498,902.6998,407.9213,897.1284,406.9421,905.57,412.0154" style="stroke:#181818;stroke-width:1;"/><text fill="#000000" font-family="sans-serif" font-size="13" lengthAdjust="spacing" textLength="60.8359" x="577" y="334.9604">onchange</text></g><!--link H_INPUT to EV_KEYUP--><g class="link" data-entity-1="H_INPUT" data-entity-2="EV_KEYUP" data-source-line="61" data-uid="lnk49" id="link_H_INPUT_EV_KEYUP"><path d="M165.92,288.1754 C200.56,303.4054 251.79,324.6854 298,339.0654 C429.41,379.9554 581.3576,410.4676 670.5676,426.7576" fill="none" id="H_INPUT-to-EV_KEYUP" style="stroke:#181818;stroke-width:1;"/><polygon fill="#181818" points="676.47,427.8354,668.3349,422.2838,671.5513,426.9373,666.8979,430.1537,676.47,427.8354" style="stroke:#181818;stroke-width:1;"/><text fill="#000000" font-family="sans-serif" font-size="13" lengthAdjust="spacing" textLength="138.5947" x="299" y="334.9604">onkeyup (incremental)</text></g><!--link H_RANGE to EV_INPUT--><g class="link" data-entity-1="H_RANGE" data-entity-2="EV_INPUT" data-source-line="62" data-uid="lnk50" id="link_H_RANGE_EV_INPUT"><path d="M1139.7,288.4454 C1133.8,297.6154 1127.24,309.0254 1123,320.0654 C1111.42,350.2154 1105.8978,380.9148 1102.6978,405.7148" fill="none" id="H_RANGE-to-EV_INPUT" style="stroke:#181818;stroke-width:1;"/><polygon fill="#181818" points="1101.93,411.6654,1107.0489,403.2513,1102.5699,406.7065,1099.1146,402.2275,1101.93,411.6654" style="stroke:#181818;stroke-width:1;"/><text fill="#000000" font-family="sans-serif" font-size="13" lengthAdjust="spacing" textLength="133.7705" x="1124" y="334.9604">oninput (incremental)</text></g><!--link H_SELECT to EV_CHANGE--><g class="link" data-entity-1="H_SELECT" data-entity-2="EV_CHANGE" data-source-line="63" data-uid="lnk51" id="link_H_SELECT_EV_CHANGE"><path d="M744.59,288.1554 C770.77,302.5954 806.59,323.9954 835,347.0654 C858.98,366.5454 878.9351,387.7572 895.7651,407.2172" fill="none" id="H_SELECT-to-EV_CHANGE" style="stroke:#181818;stroke-width:1;"/><polygon fill="#181818" points="899.69,411.7554,896.8282,402.3315,896.4193,407.9736,890.7772,407.5647,899.69,411.7554" style="stroke:#181818;stroke-width:1;"/><text fill="#000000" font-family="sans-serif" font-size="13" lengthAdjust="spacing" textLength="60.8359" x="823" y="334.9604">onchange</text></g><!--link H_SELECT1 to EV_CHANGE--><g class="link" data-entity-1="H_SELECT1" data-entity-2="EV_CHANGE" data-source-line="64" data-uid="lnk52" id="link_H_SELECT1_EV_CHANGE"><path d="M923,288.1354 C923,317.9954 923,370.8854 923,405.9254" fill="none" id="H_SELECT1-to-EV_CHANGE" style="stroke:#181818;stroke-width:1;"/><polygon fill="#181818" points="923,411.9254,927,402.9254,923,406.9254,919,402.9254,923,411.9254" style="stroke:#181818;stroke-width:1;"/><text fill="#000000" font-family="sans-serif" font-size="13" lengthAdjust="spacing" textLength="60.8359" x="924" y="334.9604">onchange</text></g><!--link H_TEXTAREA to EV_CHANGE--><g class="link" data-entity-1="H_TEXTAREA" data-entity-2="EV_CHANGE" data-source-line="65" data-uid="lnk53" id="link_H_TEXTAREA_EV_CHANGE"><path d="M586.41,288.1154 C597.82,296.4154 612.06,305.7354 626,312.0654 C668.7,331.4454 681.76,331.2854 728,339.0654 C751.51,343.0254 813.47,336.8254 835,347.0654 C864.71,361.1954 885.9921,385.1833 901.6021,407.0333" fill="none" id="H_TEXTAREA-to-EV_CHANGE" style="stroke:#181818;stroke-width:1;"/><polygon fill="#181818" points="905.09,411.9154,903.113,402.267,902.1835,407.847,896.6035,406.9175,905.09,411.9154" style="stroke:#181818;stroke-width:1;"/><text fill="#000000" font-family="sans-serif" font-size="13" lengthAdjust="spacing" textLength="60.8359" x="729" y="334.9604">onchange</text></g><!--link H_BUTTON to EV_CLICK--><g class="link" data-entity-1="H_BUTTON" data-entity-2="EV_CLICK" data-source-line="66" data-uid="lnk54" id="link_H_BUTTON_EV_CLICK"><path d="M1500.44,288.1354 C1456.13,317.9954 1373.7258,373.5325 1321.7258,408.5725" fill="none" id="H_BUTTON-to-EV_CLICK" style="stroke:#181818;stroke-width:1;"/><polygon fill="#181818" points="1316.75,411.9254,1326.4489,410.2133,1320.8965,409.1314,1321.9784,403.5789,1316.75,411.9254" style="stroke:#181818;stroke-width:1;"/><text fill="#000000" font-family="sans-serif" font-size="13" lengthAdjust="spacing" textLength="42.0278" x="1447" y="334.9604">onclick</text></g><!--link H_SUBMIT to EV_CLICK--><g class="link" data-entity-1="H_SUBMIT" data-entity-2="EV_CLICK" data-source-line="67" data-uid="lnk55" id="link_H_SUBMIT_EV_CLICK"><path d="M1682.3,288.0654 C1664.71,295.7154 1643.95,304.5354 1625,312.0654 C1529.09,350.1554 1422.49,388.4843 1351.48,413.4643" fill="none" id="H_SUBMIT-to-EV_CLICK" style="stroke:#181818;stroke-width:1;"/><polygon fill="#181818" points="1345.82,415.4554,1355.6374,416.2421,1350.5367,413.7962,1352.9826,408.6955,1345.82,415.4554" style="stroke:#181818;stroke-width:1;"/><text fill="#000000" font-family="sans-serif" font-size="13" lengthAdjust="spacing" textLength="42.0278" x="1597" y="334.9604">onclick</text></g><!--link H_REPEAT to EV_CLICK--><g class="link" data-entity-1="H_REPEAT" data-entity-2="EV_CLICK" data-source-line="68" data-uid="lnk56" id="link_H_REPEAT_EV_CLICK"><path d="M2138.79,288.0954 C2115.47,296.3454 2087.07,305.6254 2061,312.0654 C1800.95,376.3054 1490.2714,415.9455 1351.6514,431.7555" fill="none" id="H_REPEAT-to-EV_CLICK" style="stroke:#181818;stroke-width:1;"/><polygon fill="#181818" points="1345.69,432.4354,1355.0853,435.3898,1350.6578,431.8688,1354.1788,427.4413,1345.69,432.4354" style="stroke:#181818;stroke-width:1;"/><text fill="#000000" font-family="sans-serif" font-size="13" lengthAdjust="spacing" textLength="134.9131" x="2020" y="334.9604">onclick (index update)</text></g></g></svg>