<svg xmlns="http://www.w3.org/2000/svg" xmlns:xlink="http://www.w3.org/1999/xlink" contentStyleType="text/css" data-diagram-type="DESCRIPTION" height="600px" preserveAspectRatio="none" style="width:2277px;height:600px;background:#FFFFFF;" version="1.1" viewBox="0 0 2277 600" width="2277px" zoomAndPan="magnify"><title>SaxonForms package map (XSLT-centered)</title><defs/><g><g class="title" data-source-line="1"><text fill="#000000" font-family="sans-serif" font-size="14" font-weight="bold" lengthAdjust="spacing" textLength="297.8076" x="982.5962" y="24.9639">SaxonForms package map (XSLT-centered)</text></g><!--cluster src/--><g class="cluster" data-entity="src." data-source-line="4" data-uid="ent0002" id="cluster_src."><rect fill="none" height="374" rx="2.5" ry="2.5" style="stroke:#181818;stroke-width:1;" width="1100" x="1171" y="220.0654"/><text fill="#000000" font-family="sans-serif" font-size="14" font-weight="bold" lengthAdjust="spacing" textLength="27.1182" x="1707.4409" y="237.0293">src/</text></g><!--cluster packages/--><g class="cluster" data-entity="packages." data-source-line="9" data-uid="ent0007" id="cluster_packages."><rect fill="none" height="141" rx="2.5" ry="2.5" style="stroke:#181818;stroke-width:1;" width="240" x="2007" y="429.0654"/><text fill="#000000" font-family="sans-serif" font-size="14" font-weight="bold" lengthAdjust="spacing" textLength="72.3447" x="2090.8276" y="446.0293">packages/</text></g><!--cluster scripts/--><g class="cluster" data-entity="scripts." data-source-line="14" data-uid="ent0009" id="cluster_scripts."><rect fill="none" height="122" rx="2.5" ry="2.5" style="stroke:#181818;stroke-width:1;" width="458" x="300" y="47.0654"/><text fill="#000000" font-family="sans-serif" font-size="14" font-weight="bold" lengthAdjust="spacing" textLength="53.2861" x="502.3569" y="64.0293">scripts/</text></g><!--cluster tests/xforms/w3c/--><g class="cluster" data-entity="tests.xforms.w3c." data-source-line="19" data-uid="ent0012" id="cluster_tests.xforms.w3c."><rect fill="none" height="321.5" rx="2.5" ry="2.5" style="stroke:#181818;stroke-width:1;" width="1140" x="7" y="239.0654"/><text fill="#000000" font-family="sans-serif" font-size="14" font-weight="bold" lengthAdjust="spacing" textLength="130.293" x="511.8535" y="256.0293">tests/xforms/w3c/</text></g><!--entity SAXON_XFORMS--><g class="entity" data-entity="SAXON_XFORMS" data-source-line="5" data-uid="ent0003" id="entity_SAXON_XFORMS"><rect fill="#F1F1F1" height="106.2617" rx="2.5" ry="2.5" style="stroke:#181818;stroke-width:0.5;" width="261.5938" x="1449" y="258.0654"/><rect fill="#F1F1F1" height="10" style="stroke:#181818;stroke-width:0.5;" width="15" x="1690.5938" y="263.0654"/><rect fill="#F1F1F1" height="2" style="stroke:#181818;stroke-width:0.5;" width="4" x="1688.5938" y="265.0654"/><rect fill="#F1F1F1" height="2" style="stroke:#181818;stroke-width:0.5;" width="4" x="1688.5938" y="269.0654"/><text fill="#000000" font-family="sans-serif" font-size="14" lengthAdjust="spacing" textLength="111.5898" x="1464" y="293.0293">saxon-xforms.xsl</text><text fill="#000000" font-family="sans-serif" font-size="14" lengthAdjust="spacing" textLength="72.666" x="1464" y="312.0947">~8100 lines</text><text fill="#000000" font-family="sans-serif" font-size="14" lengthAdjust="spacing" textLength="221.5938" x="1464" y="331.1602">Main transform: controls, actions,</text><text fill="#000000" font-family="sans-serif" font-size="14" lengthAdjust="spacing" textLength="179.2861" x="1464" y="350.2256">model lifecycle, submission</text></g><!--entity FUNCTION_LIBRARY--><g class="entity" data-entity="FUNCTION_LIBRARY" data-source-line="6" data-uid="ent0004" id="entity_FUNCTION_LIBRARY"><rect fill="#F1F1F1" height="106.2617" rx="2.5" ry="2.5" style="stroke:#181818;stroke-width:0.5;" width="227.1748" x="1187.5" y="457.5654"/><rect fill="#F1F1F1" height="10" style="stroke:#181818;stroke-width:0.5;" width="15" x="1394.6748" y="462.5654"/><rect fill="#F1F1F1" height="2" style="stroke:#181818;stroke-width:0.5;" width="4" x="1392.6748" y="464.5654"/><rect fill="#F1F1F1" height="2" style="stroke:#181818;stroke-width:0.5;" width="4" x="1392.6748" y="468.5654"/><text fill="#000000" font-family="sans-serif" font-size="14" lengthAdjust="spacing" textLength="174.2822" x="1202.5" y="492.5293">xforms-function-library.xsl</text><text fill="#000000" font-family="sans-serif" font-size="14" lengthAdjust="spacing" textLength="64.9551" x="1202.5" y="511.5947">~300 lines</text><text fill="#000000" font-family="sans-serif" font-size="14" lengthAdjust="spacing" textLength="187.1748" x="1202.5" y="530.6602">impose(), instance(), index(),</text><text fill="#000000" font-family="sans-serif" font-size="14" lengthAdjust="spacing" textLength="179.3955" x="1202.5" y="549.7256">id(), min(), max(), random()</text></g><!--entity XPATH_FUNCTIONS--><g class="entity" data-entity="XPATH_FUNCTIONS" data-source-line="7" data-uid="ent0005" id="entity_XPATH_FUNCTIONS"><rect fill="#F1F1F1" height="125.3271" rx="2.5" ry="2.5" style="stroke:#181818;stroke-width:0.5;" width="261.4434" x="1449.5" y="448.0654"/><rect fill="#F1F1F1" height="10" style="stroke:#181818;stroke-width:0.5;" width="15" x="1690.9434" y="453.0654"/><rect fill="#F1F1F1" height="2" style="stroke:#181818;stroke-width:0.5;" width="4" x="1688.9434" y="455.0654"/><rect fill="#F1F1F1" height="2" style="stroke:#181818;stroke-width:0.5;" width="4" x="1688.9434" y="459.0654"/><text fill="#000000" font-family="sans-serif" font-size="14" lengthAdjust="spacing" textLength="176.1758" x="1464.5" y="483.0293">xforms-xpath-functions.xsl</text><text fill="#000000" font-family="sans-serif" font-size="14" lengthAdjust="spacing" textLength="64.9551" x="1464.5" y="502.0947">~420 lines</text><text fill="#000000" font-family="sans-serif" font-size="14" lengthAdjust="spacing" textLength="221.4434" x="1464.5" y="521.1602">property(), boolean-from-string(),</text><text fill="#000000" font-family="sans-serif" font-size="14" lengthAdjust="spacing" textLength="212.9395" x="1464.5" y="540.2256">avg(), days-from-date(), digest(),</text><text fill="#000000" font-family="sans-serif" font-size="14" lengthAdjust="spacing" textLength="145.0244" x="1464.5" y="559.291">hmac(), event(), now()</text></g><!--entity XSD_HELPERS--><g class="entity" data-entity="XSD_HELPERS" data-source-line="8" data-uid="ent0006" id="entity_XSD_HELPERS"><rect fill="#F1F1F1" height="87.1963" rx="2.5" ry="2.5" style="stroke:#181818;stroke-width:0.5;" width="241.8584" x="1746" y="467.0654"/><rect fill="#F1F1F1" height="10" style="stroke:#181818;stroke-width:0.5;" width="15" x="1967.8584" y="472.0654"/><rect fill="#F1F1F1" height="2" style="stroke:#181818;stroke-width:0.5;" width="4" x="1965.8584" y="474.0654"/><rect fill="#F1F1F1" height="2" style="stroke:#181818;stroke-width:0.5;" width="4" x="1965.8584" y="478.0654"/><text fill="#000000" font-family="sans-serif" font-size="14" lengthAdjust="spacing" textLength="98.1094" x="1761" y="502.0293">xsd-helpers.xsl</text><text fill="#000000" font-family="sans-serif" font-size="14" lengthAdjust="spacing" textLength="64.9551" x="1761" y="521.0947">~148 lines</text><text fill="#000000" font-family="sans-serif" font-size="14" lengthAdjust="spacing" textLength="201.8584" x="1761" y="540.1602">canonical-type(), is-type-valid()</text></g><!--entity LOGGER--><g class="entity" data-entity="LOGGER" data-source-line="10" data-uid="ent0008" id="entity_LOGGER"><rect fill="#F1F1F1" height="87.1963" rx="2.5" ry="2.5" style="stroke:#181818;stroke-width:0.5;" width="207.7266" x="2023" y="467.0654"/><rect fill="#F1F1F1" height="10" style="stroke:#181818;stroke-width:0.5;" width="15" x="2210.7266" y="472.0654"/><rect fill="#F1F1F1" height="2" style="stroke:#181818;stroke-width:0.5;" width="4" x="2208.7266" y="474.0654"/><rect fill="#F1F1F1" height="2" style="stroke:#181818;stroke-width:0.5;" width="4" x="2208.7266" y="478.0654"/><text fill="#000000" font-family="sans-serif" font-size="14" lengthAdjust="spacing" textLength="64.4561" x="2038" y="502.0293">logger.xsl</text><text fill="#000000" font-family="sans-serif" font-size="14" lengthAdjust="spacing" textLength="167.7266" x="2038" y="521.0947">sfp:logInfo, sfp:logDebug</text><text fill="#000000" font-family="sans-serif" font-size="14" lengthAdjust="spacing" textLength="106.7158" x="2038" y="540.1602">Optional tracing</text></g><!--entity RUN_PLAYWRIGHT--><g class="entity" data-entity="RUN_PLAYWRIGHT" data-source-line="15" data-uid="ent0010" id="entity_RUN_PLAYWRIGHT"><rect fill="#F1F1F1" height="68.1309" rx="2.5" ry="2.5" style="stroke:#181818;stroke-width:0.5;" width="230.6953" x="315.5" y="85.0654"/><rect fill="#F1F1F1" height="10" style="stroke:#181818;stroke-width:0.5;" width="15" x="526.1953" y="90.0654"/><rect fill="#F1F1F1" height="2" style="stroke:#181818;stroke-width:0.5;" width="4" x="524.1953" y="92.0654"/><rect fill="#F1F1F1" height="2" style="stroke:#181818;stroke-width:0.5;" width="4" x="524.1953" y="96.0654"/><text fill="#000000" font-family="sans-serif" font-size="14" lengthAdjust="spacing" textLength="190.6953" x="330.5" y="120.0293">run-playwright-with-port.mjs</text><text fill="#000000" font-family="sans-serif" font-size="14" lengthAdjust="spacing" textLength="144.792" x="330.5" y="139.0947">Test harness launcher</text></g><!--entity XD_DOC--><g class="entity" data-entity="XD_DOC" data-source-line="16" data-uid="ent0011" id="entity_XD_DOC"><rect fill="#F1F1F1" height="68.1309" rx="2.5" ry="2.5" style="stroke:#181818;stroke-width:0.5;" width="159.7314" x="582" y="85.0654"/><rect fill="#F1F1F1" height="10" style="stroke:#181818;stroke-width:0.5;" width="15" x="721.7314" y="90.0654"/><rect fill="#F1F1F1" height="2" style="stroke:#181818;stroke-width:0.5;" width="4" x="719.7314" y="92.0654"/><rect fill="#F1F1F1" height="2" style="stroke:#181818;stroke-width:0.5;" width="4" x="719.7314" y="96.0654"/><text fill="#000000" font-family="sans-serif" font-size="14" lengthAdjust="spacing" textLength="116.5664" x="597" y="120.0293">xd-doc-extract.xsl</text><text fill="#000000" font-family="sans-serif" font-size="14" lengthAdjust="spacing" textLength="119.7314" x="597" y="139.0947">API doc extraction</text></g><!--entity CH02_03--><g class="entity" data-entity="CH02_03" data-source-line="20" data-uid="ent0013" id="entity_CH02_03"><rect fill="#F1F1F1" height="49.0654" rx="2.5" ry="2.5" style="stroke:#181818;stroke-width:0.5;" width="140.1738" x="681" y="286.5654"/><rect fill="#F1F1F1" height="10" style="stroke:#181818;stroke-width:0.5;" width="15" x="801.1738" y="291.5654"/><rect fill="#F1F1F1" height="2" style="stroke:#181818;stroke-width:0.5;" width="4" x="799.1738" y="293.5654"/><rect fill="#F1F1F1" height="2" style="stroke:#181818;stroke-width:0.5;" width="4" x="799.1738" y="297.5654"/><text fill="#000000" font-family="sans-serif" font-size="14" lengthAdjust="spacing" textLength="100.1738" x="696" y="321.5293">ch02-03.spec.ts</text></g><!--entity CH04--><g class="entity" data-entity="CH04" data-source-line="21" data-uid="ent0014" id="entity_CH04"><rect fill="#F1F1F1" height="68.1309" rx="2.5" ry="2.5" style="stroke:#181818;stroke-width:0.5;" width="156.9424" x="23.5" y="277.0654"/><rect fill="#F1F1F1" height="10" style="stroke:#181818;stroke-width:0.5;" width="15" x="160.4424" y="282.0654"/><rect fill="#F1F1F1" height="2" style="stroke:#181818;stroke-width:0.5;" width="4" x="158.4424" y="284.0654"/><rect fill="#F1F1F1" height="2" style="stroke:#181818;stroke-width:0.5;" width="4" x="158.4424" y="288.0654"/><text fill="#000000" font-family="sans-serif" font-size="14" lengthAdjust="spacing" textLength="79.9941" x="38.5" y="312.0293">ch04.spec.ts</text><text fill="#000000" font-family="sans-serif" font-size="14" lengthAdjust="spacing" textLength="116.9424" x="38.5" y="331.0947">Processing model</text></g><!--entity CH05--><g class="entity" data-entity="CH05" data-source-line="22" data-uid="ent0015" id="entity_CH05"><rect fill="#F1F1F1" height="68.1309" rx="2.5" ry="2.5" style="stroke:#181818;stroke-width:0.5;" width="119.9941" x="856" y="277.0654"/><rect fill="#F1F1F1" height="10" style="stroke:#181818;stroke-width:0.5;" width="15" x="955.9941" y="282.0654"/><rect fill="#F1F1F1" height="2" style="stroke:#181818;stroke-width:0.5;" width="4" x="953.9941" y="284.0654"/><rect fill="#F1F1F1" height="2" style="stroke:#181818;stroke-width:0.5;" width="4" x="953.9941" y="288.0654"/><text fill="#000000" font-family="sans-serif" font-size="14" lengthAdjust="spacing" textLength="79.9941" x="871" y="312.0293">ch05.spec.ts</text><text fill="#000000" font-family="sans-serif" font-size="14" lengthAdjust="spacing" textLength="70.0205" x="871" y="331.0947">Data types</text></g><!--entity CH06--><g class="entity" data-entity="CH06" data-source-line="23" data-uid="ent0016" id="entity_CH06"><rect fill="#F1F1F1" height="68.1309" rx="2.5" ry="2.5" style="stroke:#181818;stroke-width:0.5;" width="119.9941" x="1011" y="277.0654"/><rect fill="#F1F1F1" height="10" style="stroke:#181818;stroke-width:0.5;" width="15" x="1110.9941" y="282.0654"/><rect fill="#F1F1F1" height="2" style="stroke:#181818;stroke-width:0.5;" width="4" x="1108.9941" y="284.0654"/><rect fill="#F1F1F1" height="2" style="stroke:#181818;stroke-width:0.5;" width="4" x="1108.9941" y="288.0654"/><text fill="#000000" font-family="sans-serif" font-size="14" lengthAdjust="spacing" textLength="79.9941" x="1026" y="312.0293">ch06.spec.ts</text><text fill="#000000" font-family="sans-serif" font-size="14" lengthAdjust="spacing" textLength="32.6211" x="1026" y="331.0947">MIPs</text></g><!--entity CH07--><g class="entity" data-entity="CH07" data-source-line="24" data-uid="ent0017" id="entity_CH07"><rect fill="#F1F1F1" height="68.1309" rx="2.5" ry="2.5" style="stroke:#181818;stroke-width:0.5;" width="119.9941" x="216" y="277.0654"/><rect fill="#F1F1F1" height="10" style="stroke:#181818;stroke-width:0.5;" width="15" x="315.9941" y="282.0654"/><rect fill="#F1F1F1" height="2" style="stroke:#181818;stroke-width:0.5;" width="4" x="313.9941" y="284.0654"/><rect fill="#F1F1F1" height="2" style="stroke:#181818;stroke-width:0.5;" width="4" x="313.9941" y="288.0654"/><text fill="#000000" font-family="sans-serif" font-size="14" lengthAdjust="spacing" textLength="79.9941" x="231" y="312.0293">ch07.spec.ts</text><text fill="#000000" font-family="sans-serif" font-size="14" lengthAdjust="spacing" textLength="38.2334" x="231" y="331.0947">XPath</text></g><!--entity CH08--><g class="entity" data-entity="CH08" data-source-line="25" data-uid="ent0018" id="entity_CH08"><rect fill="#F1F1F1" height="68.1309" rx="2.5" ry="2.5" style="stroke:#181818;stroke-width:0.5;" width="128.0947" x="586" y="476.5654"/><rect fill="#F1F1F1" height="10" style="stroke:#181818;stroke-width:0.5;" width="15" x="694.0947" y="481.5654"/><rect fill="#F1F1F1" height="2" style="stroke:#181818;stroke-width:0.5;" width="4" x="692.0947" y="483.5654"/><rect fill="#F1F1F1" height="2" style="stroke:#181818;stroke-width:0.5;" width="4" x="692.0947" y="487.5654"/><text fill="#000000" font-family="sans-serif" font-size="14" lengthAdjust="spacing" textLength="79.9941" x="601" y="511.5293">ch08.spec.ts</text><text fill="#000000" font-family="sans-serif" font-size="14" lengthAdjust="spacing" textLength="88.0947" x="601" y="530.5947">Core controls</text></g><!--entity CH09--><g class="entity" data-entity="CH09" data-source-line="26" data-uid="ent0019" id="entity_CH09"><rect fill="#F1F1F1" height="68.1309" rx="2.5" ry="2.5" style="stroke:#181818;stroke-width:0.5;" width="161.9189" x="749" y="476.5654"/><rect fill="#F1F1F1" height="10" style="stroke:#181818;stroke-width:0.5;" width="15" x="890.9189" y="481.5654"/><rect fill="#F1F1F1" height="2" style="stroke:#181818;stroke-width:0.5;" width="4" x="888.9189" y="483.5654"/><rect fill="#F1F1F1" height="2" style="stroke:#181818;stroke-width:0.5;" width="4" x="888.9189" y="487.5654"/><text fill="#000000" font-family="sans-serif" font-size="14" lengthAdjust="spacing" textLength="79.9941" x="764" y="511.5293">ch09.spec.ts</text><text fill="#000000" font-family="sans-serif" font-size="14" lengthAdjust="spacing" textLength="121.9189" x="764" y="530.5947">Container controls</text></g><!--entity CH10--><g class="entity" data-entity="CH10" data-source-line="27" data-uid="ent0020" id="entity_CH10"><rect fill="#F1F1F1" height="68.1309" rx="2.5" ry="2.5" style="stroke:#181818;stroke-width:0.5;" width="119.9941" x="371" y="277.0654"/><rect fill="#F1F1F1" height="10" style="stroke:#181818;stroke-width:0.5;" width="15" x="470.9941" y="282.0654"/><rect fill="#F1F1F1" height="2" style="stroke:#181818;stroke-width:0.5;" width="4" x="468.9941" y="284.0654"/><rect fill="#F1F1F1" height="2" style="stroke:#181818;stroke-width:0.5;" width="4" x="468.9941" y="288.0654"/><text fill="#000000" font-family="sans-serif" font-size="14" lengthAdjust="spacing" textLength="79.9941" x="386" y="312.0293">ch10.spec.ts</text><text fill="#000000" font-family="sans-serif" font-size="14" lengthAdjust="spacing" textLength="48.1592" x="386" y="331.0947">Actions</text></g><!--entity CH11--><g class="entity" data-entity="CH11" data-source-line="28" data-uid="ent0021" id="entity_CH11"><rect fill="#F1F1F1" height="68.1309" rx="2.5" ry="2.5" style="stroke:#181818;stroke-width:0.5;" width="119.9941" x="526" y="277.0654"/><rect fill="#F1F1F1" height="10" style="stroke:#181818;stroke-width:0.5;" width="15" x="625.9941" y="282.0654"/><rect fill="#F1F1F1" height="2" style="stroke:#181818;stroke-width:0.5;" width="4" x="623.9941" y="284.0654"/><rect fill="#F1F1F1" height="2" style="stroke:#181818;stroke-width:0.5;" width="4" x="623.9941" y="288.0654"/><text fill="#000000" font-family="sans-serif" font-size="14" lengthAdjust="spacing" textLength="79.9941" x="541" y="312.0293">ch11.spec.ts</text><text fill="#000000" font-family="sans-serif" font-size="14" lengthAdjust="spacing" textLength="75.7969" x="541" y="331.0947">Submission</text></g><!--entity APPX--><g class="entity" data-entity="APPX" data-source-line="29" data-uid="ent0022" id="entity_APPX"><rect fill="#F1F1F1" height="68.1309" rx="2.5" ry="2.5" style="stroke:#181818;stroke-width:0.5;" width="185.0518" x="946.5" y="476.5654"/><rect fill="#F1F1F1" height="10" style="stroke:#181818;stroke-width:0.5;" width="15" x="1111.5518" y="481.5654"/><rect fill="#F1F1F1" height="2" style="stroke:#181818;stroke-width:0.5;" width="4" x="1109.5518" y="483.5654"/><rect fill="#F1F1F1" height="2" style="stroke:#181818;stroke-width:0.5;" width="4" x="1109.5518" y="487.5654"/><text fill="#000000" font-family="sans-serif" font-size="14" lengthAdjust="spacing" textLength="110.4551" x="961.5" y="511.5293">appendix.spec.ts</text><text fill="#000000" font-family="sans-serif" font-size="14" lengthAdjust="spacing" textLength="145.0518" x="961.5" y="530.5947">Insert/delete patterns</text></g><!--link SAXON_XFORMS to FUNCTION_LIBRARY--><g class="link" data-entity-1="SAXON_XFORMS" data-entity-2="FUNCTION_LIBRARY" data-source-line="32" data-uid="lnk23" id="link_SAXON_XFORMS_FUNCTION_LIBRARY"><path d="M1506.33,364.2154 C1465.65,393.0154 1420.1672,425.2088 1379.4972,453.9988" fill="none" id="SAXON_XFORMS-to-FUNCTION_LIBRARY" style="stroke:#181818;stroke-width:1;"/><polygon fill="#181818" points="1374.6,457.4654,1384.2569,455.5302,1378.681,454.5765,1379.6346,449.0007,1374.6,457.4654" style="stroke:#181818;stroke-width:1;"/><text fill="#000000" font-family="sans-serif" font-size="13" lengthAdjust="spacing" textLength="97.3921" x="1458" y="408.9604">xsl:use-package</text></g><!--link SAXON_XFORMS to XPATH_FUNCTIONS--><g class="link" data-entity-1="SAXON_XFORMS" data-entity-2="XPATH_FUNCTIONS" data-source-line="33" data-uid="lnk24" id="link_SAXON_XFORMS_XPATH_FUNCTIONS"><path d="M1580,364.2154 C1580,389.9254 1580,415.1154 1580,441.9954" fill="none" id="SAXON_XFORMS-to-XPATH_FUNCTIONS" style="stroke:#181818;stroke-width:1;"/><polygon fill="#181818" points="1580,447.9954,1584,438.9954,1580,442.9954,1576,438.9954,1580,447.9954" style="stroke:#181818;stroke-width:1;"/><text fill="#000000" font-family="sans-serif" font-size="13" lengthAdjust="spacing" textLength="97.3921" x="1581" y="408.9604">xsl:use-package</text></g><!--link SAXON_XFORMS to XSD_HELPERS--><g class="link" data-entity-1="SAXON_XFORMS" data-entity-2="XSD_HELPERS" data-source-line="34" data-uid="lnk25" id="link_SAXON_XFORMS_XSD_HELPERS"><path d="M1655.78,364.2154 C1702.28,396.2154 1756.1474,433.2838 1799.8974,463.3938" fill="none" id="SAXON_XFORMS-to-XSD_HELPERS" style="stroke:#181818;stroke-width:1;"/><polygon fill="#181818" points="1804.84,466.7954,1799.6939,458.398,1800.7212,463.9607,1795.1584,464.988,1804.84,466.7954" style="stroke:#181818;stroke-width:1;"/><text fill="#000000" font-family="sans-serif" font-size="13" lengthAdjust="spacing" textLength="97.3921" x="1724" y="408.9604">xsl:use-package</text></g><!--link SAXON_XFORMS to LOGGER--><g class="link" data-entity-1="SAXON_XFORMS" data-entity-2="LOGGER" data-source-line="35" data-uid="lnk26" id="link_SAXON_XFORMS_LOGGER"><path d="M1711.11,329.0554 C1801.26,344.3954 1921.78,372.3054 2019,421.0654 C2042.51,432.8554 2060.9895,446.5874 2079.6695,463.0574" fill="none" id="SAXON_XFORMS-to-LOGGER" style="stroke:#181818;stroke-width:1;"/><polygon fill="#181818" points="2084.17,467.0254,2080.0646,458.073,2080.4196,463.7187,2074.7739,464.0737,2084.17,467.0254" style="stroke:#181818;stroke-width:1;"/><text fill="#000000" font-family="sans-serif" font-size="13" lengthAdjust="spacing" textLength="97.3921" x="1998" y="408.9604">xsl:use-package</text></g><!--link RUN_PLAYWRIGHT to CH04--><g class="link" data-entity-1="RUN_PLAYWRIGHT" data-entity-2="CH04" data-source-line="36" data-uid="lnk27" id="link_RUN_PLAYWRIGHT_CH04"><path d="M319.91,153.1554 C279.68,167.8554 235.05,187.4754 198,212.0654 C171.21,229.8454 149.8824,251.5679 132.0124,272.4379" fill="none" id="RUN_PLAYWRIGHT-to-CH04" style="stroke:#181818;stroke-width:1;"/><polygon fill="#181818" points="128.11,276.9954,137.002,272.7607,131.362,273.1975,130.9253,267.5575,128.11,276.9954" style="stroke:#181818;stroke-width:1;"/></g><!--link RUN_PLAYWRIGHT to CH07--><g class="link" data-entity-1="RUN_PLAYWRIGHT" data-entity-2="CH07" data-source-line="37" data-uid="lnk28" id="link_RUN_PLAYWRIGHT_CH07"><path d="M403,153.1154 C388.31,170.5654 370.07,192.3754 354,212.0654 C336.54,233.4554 320.9207,253.0383 305.8707,272.0783" fill="none" id="RUN_PLAYWRIGHT-to-CH07" style="stroke:#181818;stroke-width:1;"/><polygon fill="#181818" points="302.15,276.7854,310.8691,272.2053,305.2506,272.8629,304.593,267.2444,302.15,276.7854" style="stroke:#181818;stroke-width:1;"/></g><!--link RUN_PLAYWRIGHT to CH10--><g class="link" data-entity-1="RUN_PLAYWRIGHT" data-entity-2="CH10" data-source-line="38" data-uid="lnk29" id="link_RUN_PLAYWRIGHT_CH10"><path d="M431,153.1654 C431,187.9254 431,236.2854 431,271.0354" fill="none" id="RUN_PLAYWRIGHT-to-CH10" style="stroke:#181818;stroke-width:1;"/><polygon fill="#181818" points="431,277.0354,435,268.0354,431,272.0354,427,268.0354,431,277.0354" style="stroke:#181818;stroke-width:1;"/></g><!--link RUN_PLAYWRIGHT to CH11--><g class="link" data-entity-1="RUN_PLAYWRIGHT" data-entity-2="CH11" data-source-line="39" data-uid="lnk30" id="link_RUN_PLAYWRIGHT_CH11"><path d="M459.83,153.4554 C474.68,170.8154 492.98,192.4354 509,212.0654 C526.38,233.3554 541.7767,252.899 556.6067,271.969" fill="none" id="RUN_PLAYWRIGHT-to-CH11" style="stroke:#181818;stroke-width:1;"/><polygon fill="#181818" points="560.29,276.7054,557.9226,267.1453,557.2206,272.7584,551.6075,272.0564,560.29,276.7054" style="stroke:#181818;stroke-width:1;"/></g><!--link XD_DOC to SAXON_XFORMS--><g class="link" data-entity-1="XD_DOC" data-entity-2="SAXON_XFORMS" data-source-line="40" data-uid="lnk31" id="link_XD_DOC_SAXON_XFORMS"><path d="M742.41,134.4254 C838.76,151.8354 1004.99,182.5354 1147,212.0654 C1248.49,233.1754 1357.0156,257.7877 1442.7156,277.6977" fill="none" id="XD_DOC-to-SAXON_XFORMS" style="stroke:#181818;stroke-width:1;"/><polygon fill="#181818" points="1448.56,279.0554,1440.6987,273.1225,1443.6897,277.924,1438.8883,280.915,1448.56,279.0554" style="stroke:#181818;stroke-width:1;"/><text fill="#000000" font-family="sans-serif" font-size="13" lengthAdjust="spacing" textLength="169.6602" x="1108" y="199.9604">extracts xd:doc annotations</text></g></g></svg>