<svg xmlns="http://www.w3.org/2000/svg" xmlns:xlink="http://www.w3.org/1999/xlink" contentStyleType="text/css" data-diagram-type="SEQUENCE" height="987px" preserveAspectRatio="none" style="width:1573px;height:987px;background:#FFFFFF;" version="1.1" viewBox="0 0 1573 987" width="1573px" zoomAndPan="magnify"><title>Submission flow sequence (action -&gt; transport -&gt; response update)</title><defs/><g><text fill="#000000" font-family="sans-serif" font-size="14" font-weight="bold" lengthAdjust="spacing" textLength="466.7031" x="549.1865" y="29.9639">Submission flow sequence (action -&gt; transport -&gt; response update)</text><rect fill="none" height="470.7905" style="stroke:#000000;stroke-width:1.5;" width="1434.6138" x="121.4624" y="416.167"/><rect fill="none" height="180.478" style="stroke:#000000;stroke-width:1.5;" width="1414.6138" x="131.4624" y="587.3887"/><g><title>End User</title><rect fill="#000000" fill-opacity="0.00000" height="779.8267" width="8" x="33.6543" y="124.1309"/><line style="stroke:#181818;stroke-width:0.5;stroke-dasharray:5,5;" x1="37" x2="37" y1="124.1309" y2="903.9575"/></g><g><title>DOM Trigger</title><rect fill="#000000" fill-opacity="0.00000" height="779.8267" width="8" x="208.939" y="124.1309"/><line style="stroke:#181818;stroke-width:0.5;stroke-dasharray:5,5;" x1="212.4624" x2="212.4624" y1="124.1309" y2="903.9575"/></g><g><title>Action Dispatcher</title><rect fill="#000000" fill-opacity="0.00000" height="779.8267" width="8" x="355.5142" y="124.1309"/><line style="stroke:#181818;stroke-width:0.5;stroke-dasharray:5,5;" x1="359.4155" x2="359.4155" y1="124.1309" y2="903.9575"/></g><g><title>Submission Adapter</title><rect fill="#000000" fill-opacity="0.00000" height="779.8267" width="8" x="578.5396" y="124.1309"/><line style="stroke:#181818;stroke-width:0.5;stroke-dasharray:5,5;" x1="582.4429" x2="582.4429" y1="124.1309" y2="903.9575"/></g><g><title>HTTP Client</title><rect fill="#000000" fill-opacity="0.00000" height="779.8267" width="8" x="813.9746" y="124.1309"/><line style="stroke:#181818;stroke-width:0.5;stroke-dasharray:5,5;" x1="817.3169" x2="817.3169" y1="124.1309" y2="903.9575"/></g><g><title>Remote Endpoint</title><rect fill="#000000" fill-opacity="0.00000" height="779.8267" width="8" x="1079.4087" y="124.1309"/><line style="stroke:#181818;stroke-width:0.5;stroke-dasharray:5,5;" x1="1083.3081" x2="1083.3081" y1="124.1309" y2="903.9575"/></g><g><title>SaxonJS.XSLT Runtime</title><rect fill="#000000" fill-opacity="0.00000" height="779.8267" width="8" x="1230.4536" y="124.1309"/><line style="stroke:#181818;stroke-width:0.5;stroke-dasharray:5,5;" x1="1233.5093" x2="1233.5093" y1="124.1309" y2="903.9575"/></g><g><title>Model State</title><rect fill="#000000" fill-opacity="0.00000" height="779.8267" width="8" x="1489.8447" y="124.1309"/><line style="stroke:#181818;stroke-width:0.5;stroke-dasharray:5,5;" x1="1493.6133" x2="1493.6133" y1="124.1309" y2="903.9575"/></g><g class="participant participant-head" data-participant="USER"><text fill="#000000" font-family="sans-serif" font-size="14" lengthAdjust="spacing" textLength="59.3086" x="5" y="120.0293">End User</text><ellipse cx="37.6543" cy="53.5654" fill="#E2E2F0" rx="8" ry="8" style="stroke:#181818;stroke-width:0.5;"/><path d="M37.6543,61.5654 L37.6543,88.5654 M24.6543,69.5654 L50.6543,69.5654 M37.6543,88.5654 L24.6543,103.5654 M37.6543,88.5654 L50.6543,103.5654" fill="none" style="stroke:#181818;stroke-width:0.5;"/></g><g class="participant participant-tail" data-participant="USER"><text fill="#000000" font-family="sans-serif" font-size="14" lengthAdjust="spacing" textLength="59.3086" x="5" y="917.9214">End User</text><ellipse cx="37.6543" cy="930.5229" fill="#E2E2F0" rx="8" ry="8" style="stroke:#181818;stroke-width:0.5;"/><path d="M37.6543,938.5229 L37.6543,965.5229 M24.6543,946.5229 L50.6543,946.5229 M37.6543,965.5229 L24.6543,980.5229 M37.6543,965.5229 L50.6543,980.5229" fill="none" style="stroke:#181818;stroke-width:0.5;"/></g><g class="participant participant-head" data-participant="DOM"><rect fill="#E2E2F0" height="52.1309" rx="2.5" ry="2.5" style="stroke:#181818;stroke-width:0.5;" width="142.9531" x="141.4624" y="71"/><text fill="#000000" font-family="sans-serif" font-size="14" lengthAdjust="spacing" textLength="85.5723" x="170.1528" y="92.9639">DOM Trigger</text><text fill="#000000" font-family="sans-serif" font-size="14" lengthAdjust="spacing" textLength="128.9531" x="148.4624" y="112.0293">button[data-action]</text></g><g class="participant participant-tail" data-participant="DOM"><rect fill="#E2E2F0" height="52.1309" rx="2.5" ry="2.5" style="stroke:#181818;stroke-width:0.5;" width="142.9531" x="141.4624" y="902.9575"/><text fill="#000000" font-family="sans-serif" font-size="14" lengthAdjust="spacing" textLength="85.5723" x="170.1528" y="924.9214">DOM Trigger</text><text fill="#000000" font-family="sans-serif" font-size="14" lengthAdjust="spacing" textLength="128.9531" x="148.4624" y="943.9868">button[data-action]</text></g><g class="participant participant-head" data-participant="ACTIONS"><rect fill="#E2E2F0" height="52.1309" rx="2.5" ry="2.5" style="stroke:#181818;stroke-width:0.5;" width="130.1973" x="294.4155" y="71"/><text fill="#000000" font-family="sans-serif" font-size="14" lengthAdjust="spacing" textLength="116.1973" x="301.4155" y="92.9639">Action Dispatcher</text><text fill="#000000" font-family="sans-serif" font-size="14" lengthAdjust="spacing" textLength="83.9863" x="317.521" y="112.0293">applyActions</text></g><g class="participant participant-tail" data-participant="ACTIONS"><rect fill="#E2E2F0" height="52.1309" rx="2.5" ry="2.5" style="stroke:#181818;stroke-width:0.5;" width="130.1973" x="294.4155" y="902.9575"/><text fill="#000000" font-family="sans-serif" font-size="14" lengthAdjust="spacing" textLength="116.1973" x="301.4155" y="924.9214">Action Dispatcher</text><text fill="#000000" font-family="sans-serif" font-size="14" lengthAdjust="spacing" textLength="83.9863" x="317.521" y="943.9868">applyActions</text></g><g class="participant participant-head" data-participant="SUBMISSION"><rect fill="#E2E2F0" height="71.1963" rx="2.5" ry="2.5" style="stroke:#181818;stroke-width:0.5;" width="146.1934" x="509.4429" y="51.9346"/><text fill="#000000" font-family="sans-serif" font-size="14" lengthAdjust="spacing" textLength="132.1934" x="516.4429" y="73.8984">Submission Adapter</text><text fill="#000000" font-family="sans-serif" font-size="14" lengthAdjust="spacing" textLength="96.7559" x="534.1616" y="92.9639">xforms-submit</text><text fill="#000000" font-family="sans-serif" font-size="14" lengthAdjust="spacing" textLength="95.4502" x="534.8145" y="112.0293">setSubmission</text></g><g class="participant participant-tail" data-participant="SUBMISSION"><rect fill="#E2E2F0" height="71.1963" rx="2.5" ry="2.5" style="stroke:#181818;stroke-width:0.5;" width="146.1934" x="509.4429" y="902.9575"/><text fill="#000000" font-family="sans-serif" font-size="14" lengthAdjust="spacing" textLength="132.1934" x="516.4429" y="924.9214">Submission Adapter</text><text fill="#000000" font-family="sans-serif" font-size="14" lengthAdjust="spacing" textLength="96.7559" x="534.1616" y="943.9868">xforms-submit</text><text fill="#000000" font-family="sans-serif" font-size="14" lengthAdjust="spacing" textLength="95.4502" x="534.8145" y="963.0522">setSubmission</text></g><g class="participant participant-head" data-participant="HTTP"><rect fill="#E2E2F0" height="71.1963" rx="2.5" ry="2.5" style="stroke:#181818;stroke-width:0.5;" width="143.3154" x="746.3169" y="51.9346"/><text fill="#000000" font-family="sans-serif" font-size="14" lengthAdjust="spacing" textLength="75.7217" x="780.1138" y="73.8984">HTTP Client</text><text fill="#000000" font-family="sans-serif" font-size="14" lengthAdjust="spacing" textLength="129.3154" x="753.3169" y="92.9639">ixsl:schedule-action</text><text fill="#000000" font-family="sans-serif" font-size="14" lengthAdjust="spacing" textLength="125.8223" x="755.0635" y="112.0293">(http-request map)</text></g><g class="participant participant-tail" data-participant="HTTP"><rect fill="#E2E2F0" height="71.1963" rx="2.5" ry="2.5" style="stroke:#181818;stroke-width:0.5;" width="143.3154" x="746.3169" y="902.9575"/><text fill="#000000" font-family="sans-serif" font-size="14" lengthAdjust="spacing" textLength="75.7217" x="780.1138" y="924.9214">HTTP Client</text><text fill="#000000" font-family="sans-serif" font-size="14" lengthAdjust="spacing" textLength="129.3154" x="753.3169" y="943.9868">ixsl:schedule-action</text><text fill="#000000" font-family="sans-serif" font-size="14" lengthAdjust="spacing" textLength="125.8223" x="755.0635" y="963.0522">(http-request map)</text></g><g class="participant participant-head" data-participant="ENDPOINT"><text fill="#000000" font-family="sans-serif" font-size="14" lengthAdjust="spacing" textLength="114.2012" x="1023.3081" y="120.0293">Remote Endpoint</text><path d="M1065.4087,69.0654 C1065.4087,59.0654 1083.4087,59.0654 1083.4087,59.0654 C1083.4087,59.0654 1101.4087,59.0654 1101.4087,69.0654 L1101.4087,95.0654 C1101.4087,105.0654 1083.4087,105.0654 1083.4087,105.0654 C1083.4087,105.0654 1065.4087,105.0654 1065.4087,95.0654 L1065.4087,69.0654" fill="#E2E2F0" style="stroke:#181818;stroke-width:0.5;"/><path d="M1065.4087,69.0654 C1065.4087,79.0654 1083.4087,79.0654 1083.4087,79.0654 C1083.4087,79.0654 1101.4087,79.0654 1101.4087,69.0654" fill="none" style="stroke:#181818;stroke-width:0.5;"/></g><g class="participant participant-tail" data-participant="ENDPOINT"><text fill="#000000" font-family="sans-serif" font-size="14" lengthAdjust="spacing" textLength="114.2012" x="1023.3081" y="917.9214">Remote Endpoint</text><path d="M1065.4087,932.0229 C1065.4087,922.0229 1083.4087,922.0229 1083.4087,922.0229 C1083.4087,922.0229 1101.4087,922.0229 1101.4087,932.0229 L1101.4087,958.0229 C1101.4087,968.0229 1083.4087,968.0229 1083.4087,968.0229 C1083.4087,968.0229 1065.4087,968.0229 1065.4087,958.0229 L1065.4087,932.0229" fill="#E2E2F0" style="stroke:#181818;stroke-width:0.5;"/><path d="M1065.4087,932.0229 C1065.4087,942.0229 1083.4087,942.0229 1083.4087,942.0229 C1083.4087,942.0229 1101.4087,942.0229 1101.4087,932.0229" fill="none" style="stroke:#181818;stroke-width:0.5;"/></g><g class="participant participant-head" data-participant="RUNTIME"><rect fill="#E2E2F0" height="52.1309" rx="2.5" ry="2.5" style="stroke:#181818;stroke-width:0.5;" width="161.8887" x="1153.5093" y="71"/><text fill="#000000" font-family="sans-serif" font-size="14" lengthAdjust="spacing" textLength="147.8887" x="1160.5093" y="92.9639">SaxonJS/XSLT Runtime</text><text fill="#000000" font-family="sans-serif" font-size="14" lengthAdjust="spacing" textLength="111.5898" x="1178.6587" y="112.0293">saxon-xforms.xsl</text></g><g class="participant participant-tail" data-participant="RUNTIME"><rect fill="#E2E2F0" height="52.1309" rx="2.5" ry="2.5" style="stroke:#181818;stroke-width:0.5;" width="161.8887" x="1153.5093" y="902.9575"/><text fill="#000000" font-family="sans-serif" font-size="14" lengthAdjust="spacing" textLength="147.8887" x="1160.5093" y="924.9214">SaxonJS/XSLT Runtime</text><text fill="#000000" font-family="sans-serif" font-size="14" lengthAdjust="spacing" textLength="111.5898" x="1178.6587" y="943.9868">saxon-xforms.xsl</text></g><g class="participant participant-head" data-participant="MODEL"><text fill="#000000" font-family="sans-serif" font-size="14" lengthAdjust="spacing" textLength="78.4629" x="1451.6133" y="120.0293">Model State</text><path d="M1475.8447,69.0654 C1475.8447,59.0654 1493.8447,59.0654 1493.8447,59.0654 C1493.8447,59.0654 1511.8447,59.0654 1511.8447,69.0654 L1511.8447,95.0654 C1511.8447,105.0654 1493.8447,105.0654 1493.8447,105.0654 C1493.8447,105.0654 1475.8447,105.0654 1475.8447,95.0654 L1475.8447,69.0654" fill="#E2E2F0" style="stroke:#181818;stroke-width:0.5;"/><path d="M1475.8447,69.0654 C1475.8447,79.0654 1493.8447,79.0654 1493.8447,79.0654 C1493.8447,79.0654 1511.8447,79.0654 1511.8447,69.0654" fill="none" style="stroke:#181818;stroke-width:0.5;"/></g><g class="participant participant-tail" data-participant="MODEL"><text fill="#000000" font-family="sans-serif" font-size="14" lengthAdjust="spacing" textLength="78.4629" x="1451.6133" y="917.9214">Model State</text><path d="M1475.8447,932.0229 C1475.8447,922.0229 1493.8447,922.0229 1493.8447,922.0229 C1493.8447,922.0229 1511.8447,922.0229 1511.8447,932.0229 L1511.8447,958.0229 C1511.8447,968.0229 1493.8447,968.0229 1493.8447,968.0229 C1493.8447,968.0229 1475.8447,968.0229 1475.8447,958.0229 L1475.8447,932.0229" fill="#E2E2F0" style="stroke:#181818;stroke-width:0.5;"/><path d="M1475.8447,932.0229 C1475.8447,942.0229 1493.8447,942.0229 1493.8447,942.0229 C1493.8447,942.0229 1511.8447,942.0229 1511.8447,932.0229" fill="none" style="stroke:#181818;stroke-width:0.5;"/></g><rect fill="#EEEEEE" height="3" style="stroke:#EEEEEE;stroke-width:1;" width="1566.0762" x="0" y="155.9827"/><line style="stroke:#000000;stroke-width:1;" x1="0" x2="1566.0762" y1="155.9827" y2="155.9827"/><line style="stroke:#000000;stroke-width:1;" x1="0" x2="1566.0762" y1="158.9827" y2="158.9827"/><rect fill="#EEEEEE" height="25.7036" style="stroke:#000000;stroke-width:2;" width="140.4517" x="712.8123" y="144.1309"/><text fill="#000000" font-family="sans-serif" font-size="13" font-weight="bold" lengthAdjust="spacing" textLength="123.0747" x="718.8123" y="162.0259">Submission trigger</text><g class="message" data-participant-1="USER" data-participant-2="DOM"><polygon fill="#181818" points="200.939,199.5381,210.939,203.5381,200.939,207.5381,204.939,203.5381" style="stroke:#181818;stroke-width:1;"/><line style="stroke:#181818;stroke-width:1;" x1="37.6543" x2="206.939" y1="203.5381" y2="203.5381"/><text fill="#000000" font-family="sans-serif" font-size="13" font-weight="bold" lengthAdjust="spacing" textLength="7.1602" x="44.6543" y="197.7295">1</text><text fill="#000000" font-family="sans-serif" font-size="13" lengthAdjust="spacing" textLength="140.1245" x="55.8145" y="197.7295">activate submit control</text></g><g class="message" data-participant-1="DOM" data-participant-2="ACTIONS"><polygon fill="#181818" points="347.5142,248.9453,357.5142,252.9453,347.5142,256.9453,351.5142,252.9453" style="stroke:#181818;stroke-width:1;"/><line style="stroke:#181818;stroke-width:1;" x1="212.939" x2="353.5142" y1="252.9453" y2="252.9453"/><text fill="#000000" font-family="sans-serif" font-size="13" font-weight="bold" lengthAdjust="spacing" textLength="7.1602" x="219.939" y="238.2849">2</text><text fill="#000000" font-family="sans-serif" font-size="13" lengthAdjust="spacing" textLength="65.6602" x="231.0991" y="229.4331">ixsl:onclick</text><text fill="#000000" font-family="sans-serif" font-size="13" lengthAdjust="spacing" textLength="79.9424" x="231.0991" y="247.1367">DOMActivate</text></g><g class="message" data-participant-1="ACTIONS" data-participant-2="SUBMISSION"><polygon fill="#181818" points="570.5396,298.3525,580.5396,302.3525,570.5396,306.3525,574.5396,302.3525" style="stroke:#181818;stroke-width:1;"/><line style="stroke:#181818;stroke-width:1;" x1="359.5142" x2="576.5396" y1="302.3525" y2="302.3525"/><text fill="#000000" font-family="sans-serif" font-size="13" font-weight="bold" lengthAdjust="spacing" textLength="7.1602" x="366.5142" y="287.6921">3</text><text fill="#000000" font-family="sans-serif" font-size="13" lengthAdjust="spacing" textLength="71.4873" x="377.6743" y="278.8403">action-send</text><text fill="#000000" font-family="sans-serif" font-size="13" lengthAdjust="spacing" textLength="167.6543" x="377.6743" y="296.5439">build submission from map</text></g><g class="message" data-participant-1="SUBMISSION" data-participant-2="RUNTIME"><polygon fill="#181818" points="1222.4536,347.7598,1232.4536,351.7598,1222.4536,355.7598,1226.4536,351.7598" style="stroke:#181818;stroke-width:1;"/><line style="stroke:#181818;stroke-width:1;" x1="582.5396" x2="1228.4536" y1="351.7598" y2="351.7598"/><text fill="#000000" font-family="sans-serif" font-size="13" font-weight="bold" lengthAdjust="spacing" textLength="7.1602" x="589.5396" y="337.0994">4</text><text fill="#000000" font-family="sans-serif" font-size="13" lengthAdjust="spacing" textLength="178.2676" x="600.6997" y="328.2476">serialize bound instance data</text><text fill="#000000" font-family="sans-serif" font-size="13" lengthAdjust="spacing" textLength="244.6958" x="600.6997" y="345.9512">(check-required/check-constraint gates)</text></g><g class="message" data-participant-1="RUNTIME" data-participant-2="MODEL"><polygon fill="#181818" points="1481.8447,397.167,1491.8447,401.167,1481.8447,405.167,1485.8447,401.167" style="stroke:#181818;stroke-width:1;"/><line style="stroke:#181818;stroke-width:1;" x1="1234.4536" x2="1487.8447" y1="401.167" y2="401.167"/><text fill="#000000" font-family="sans-serif" font-size="13" font-weight="bold" lengthAdjust="spacing" textLength="7.1602" x="1241.4536" y="386.5066">5</text><text fill="#000000" font-family="sans-serif" font-size="13" lengthAdjust="spacing" textLength="129.1494" x="1252.6138" y="377.6548">check-required-fields</text><text fill="#000000" font-family="sans-serif" font-size="13" lengthAdjust="spacing" textLength="164.709" x="1252.6138" y="395.3584">check-constraints-on-fields</text></g><path d="M121.4624,416.167 L183.9248,416.167 L183.9248,425.8706 L173.9248,435.8706 L121.4624,435.8706 L121.4624,416.167" fill="#EEEEEE" style="stroke:#000000;stroke-width:1.5;"/><rect fill="none" height="470.7905" style="stroke:#000000;stroke-width:1.5;" width="1434.6138" x="121.4624" y="416.167"/><text fill="#000000" font-family="sans-serif" font-size="13" font-weight="bold" lengthAdjust="spacing" textLength="17.4624" x="136.4624" y="431.062">alt</text><text fill="#000000" font-family="sans-serif" font-size="11" font-weight="bold" lengthAdjust="spacing" textLength="103.3291" x="198.9248" y="429.9243">[validation passes]</text><g class="message" data-participant-1="SUBMISSION" data-participant-2="HTTP"><polygon fill="#181818" points="805.9746,455.5742,815.9746,459.5742,805.9746,463.5742,809.9746,459.5742" style="stroke:#181818;stroke-width:1;"/><line style="stroke:#181818;stroke-width:1;" x1="582.5396" x2="811.9746" y1="459.5742" y2="459.5742"/><text fill="#000000" font-family="sans-serif" font-size="13" font-weight="bold" lengthAdjust="spacing" textLength="7.1602" x="589.5396" y="453.7656">6</text><text fill="#000000" font-family="sans-serif" font-size="13" lengthAdjust="spacing" textLength="200.2749" x="600.6997" y="453.7656">ixsl:schedule-action http-request</text></g><g class="message" data-participant-1="HTTP" data-participant-2="ENDPOINT"><polygon fill="#181818" points="1071.4087,487.2778,1081.4087,491.2778,1071.4087,495.2778,1075.4087,491.2778" style="stroke:#181818;stroke-width:1;"/><line style="stroke:#181818;stroke-width:1;" x1="817.9746" x2="1077.4087" y1="491.2778" y2="491.2778"/><text fill="#000000" font-family="sans-serif" font-size="13" font-weight="bold" lengthAdjust="spacing" textLength="7.1602" x="824.9746" y="485.4692">7</text><text fill="#000000" font-family="sans-serif" font-size="13" lengthAdjust="spacing" textLength="82.3228" x="836.1348" y="485.4692">HTTP request</text></g><g class="message" data-participant-1="ENDPOINT" data-participant-2="HTTP"><polygon fill="#181818" points="828.9746,518.9814,818.9746,522.9814,828.9746,526.9814,824.9746,522.9814" style="stroke:#181818;stroke-width:1;"/><line style="stroke:#181818;stroke-width:1;stroke-dasharray:2,2;" x1="822.9746" x2="1082.4087" y1="522.9814" y2="522.9814"/><text fill="#000000" font-family="sans-serif" font-size="13" font-weight="bold" lengthAdjust="spacing" textLength="7.1602" x="834.9746" y="517.1729">8</text><text fill="#000000" font-family="sans-serif" font-size="13" lengthAdjust="spacing" textLength="230.2739" x="846.1348" y="517.1729">response map (status, body, headers)</text></g><g class="message" data-participant-1="HTTP" data-participant-2="SUBMISSION"><polygon fill="#181818" points="593.5396,568.3887,583.5396,572.3887,593.5396,576.3887,589.5396,572.3887" style="stroke:#181818;stroke-width:1;"/><line style="stroke:#181818;stroke-width:1;" x1="587.5396" x2="816.9746" y1="572.3887" y2="572.3887"/><text fill="#000000" font-family="sans-serif" font-size="13" font-weight="bold" lengthAdjust="spacing" textLength="7.1602" x="599.5396" y="557.7283">9</text><text fill="#000000" font-family="sans-serif" font-size="13" lengthAdjust="spacing" textLength="126.5088" x="610.6997" y="548.8765">HTTPsubmit callback</text><text fill="#000000" font-family="sans-serif" font-size="13" lengthAdjust="spacing" textLength="169.2412" x="610.6997" y="566.5801">response-headers-to-nodes</text></g><path d="M131.4624,587.3887 L193.9248,587.3887 L193.9248,597.0923 L183.9248,607.0923 L131.4624,607.0923 L131.4624,587.3887" fill="#EEEEEE" style="stroke:#000000;stroke-width:1.5;"/><rect fill="none" height="180.478" style="stroke:#000000;stroke-width:1.5;" width="1414.6138" x="131.4624" y="587.3887"/><text fill="#000000" font-family="sans-serif" font-size="13" font-weight="bold" lengthAdjust="spacing" textLength="17.4624" x="146.4624" y="602.2837">alt</text><text fill="#000000" font-family="sans-serif" font-size="11" font-weight="bold" lengthAdjust="spacing" textLength="114.3237" x="208.9248" y="601.146">[replace="instance"]</text><g class="message" data-participant-1="SUBMISSION" data-participant-2="RUNTIME"><polygon fill="#181818" points="1222.4536,626.7959,1232.4536,630.7959,1222.4536,634.7959,1226.4536,630.7959" style="stroke:#181818;stroke-width:1;"/><line style="stroke:#181818;stroke-width:1;" x1="582.5396" x2="1228.4536" y1="630.7959" y2="630.7959"/><text fill="#000000" font-family="sans-serif" font-size="13" font-weight="bold" lengthAdjust="spacing" textLength="14.3203" x="589.5396" y="624.9873">10</text><text fill="#000000" font-family="sans-serif" font-size="13" lengthAdjust="spacing" textLength="123.5825" x="607.8599" y="624.9873">parse response XML</text></g><g class="message" data-participant-1="RUNTIME" data-participant-2="MODEL"><polygon fill="#181818" points="1481.8447,658.4995,1491.8447,662.4995,1481.8447,666.4995,1485.8447,662.4995" style="stroke:#181818;stroke-width:1;"/><line style="stroke:#181818;stroke-width:1;" x1="1234.4536" x2="1487.8447" y1="662.4995" y2="662.4995"/><text fill="#000000" font-family="sans-serif" font-size="13" font-weight="bold" lengthAdjust="spacing" textLength="14.3203" x="1241.4536" y="656.6909">11</text><text fill="#000000" font-family="sans-serif" font-size="13" lengthAdjust="spacing" textLength="130.1523" x="1259.7739" y="656.6909">replace instance data</text></g><line style="stroke:#000000;stroke-width:1;stroke-dasharray:2,2;" x1="131.4624" x2="1546.0762" y1="671.4995" y2="671.4995"/><text fill="#000000" font-family="sans-serif" font-size="11" font-weight="bold" lengthAdjust="spacing" textLength="80.8242" x="136.4624" y="683.2568">[replace="all"]</text><g class="message" data-participant-1="SUBMISSION" data-participant-2="DOM"><polygon fill="#181818" points="223.939,707.1831,213.939,711.1831,223.939,715.1831,219.939,711.1831" style="stroke:#181818;stroke-width:1;"/><line style="stroke:#181818;stroke-width:1;" x1="217.939" x2="581.5396" y1="711.1831" y2="711.1831"/><text fill="#000000" font-family="sans-serif" font-size="13" font-weight="bold" lengthAdjust="spacing" textLength="14.3203" x="229.939" y="705.3745">12</text><text fill="#000000" font-family="sans-serif" font-size="13" lengthAdjust="spacing" textLength="129.1812" x="248.2593" y="705.3745">replace page content</text></g><line style="stroke:#000000;stroke-width:1;stroke-dasharray:2,2;" x1="131.4624" x2="1546.0762" y1="720.1831" y2="720.1831"/><text fill="#000000" font-family="sans-serif" font-size="11" font-weight="bold" lengthAdjust="spacing" textLength="95.2349" x="136.4624" y="731.9404">[replace="none"]</text><g class="message" data-participant-1="SUBMISSION" data-participant-2="ACTIONS"><polygon fill="#181818" points="370.5142,755.8667,360.5142,759.8667,370.5142,763.8667,366.5142,759.8667" style="stroke:#181818;stroke-width:1;"/><line style="stroke:#181818;stroke-width:1;" x1="364.5142" x2="581.5396" y1="759.8667" y2="759.8667"/><text fill="#000000" font-family="sans-serif" font-size="13" font-weight="bold" lengthAdjust="spacing" textLength="14.3203" x="376.5142" y="754.0581">13</text><text fill="#000000" font-family="sans-serif" font-size="13" lengthAdjust="spacing" textLength="180.7051" x="394.8345" y="754.0581">dispatch xforms-submit-done</text></g><g class="message" data-participant-1="RUNTIME" data-participant-2="MODEL"><polygon fill="#181818" points="1481.8447,794.5703,1491.8447,798.5703,1481.8447,802.5703,1485.8447,798.5703" style="stroke:#181818;stroke-width:1;"/><line style="stroke:#181818;stroke-width:1;" x1="1234.4536" x2="1487.8447" y1="798.5703" y2="798.5703"/><text fill="#000000" font-family="sans-serif" font-size="13" font-weight="bold" lengthAdjust="spacing" textLength="14.3203" x="1241.4536" y="792.7617">14</text><text fill="#000000" font-family="sans-serif" font-size="13" lengthAdjust="spacing" textLength="217.0708" x="1259.7739" y="792.7617">xforms-rebuild / xforms-recalculate</text></g><g class="message" data-participant-1="RUNTIME" data-participant-2="DOM"><polygon fill="#181818" points="223.939,826.2739,213.939,830.2739,223.939,834.2739,219.939,830.2739" style="stroke:#181818;stroke-width:1;"/><line style="stroke:#181818;stroke-width:1;" x1="217.939" x2="1233.4536" y1="830.2739" y2="830.2739"/><text fill="#000000" font-family="sans-serif" font-size="13" font-weight="bold" lengthAdjust="spacing" textLength="14.3203" x="229.939" y="824.4653">15</text><text fill="#000000" font-family="sans-serif" font-size="13" lengthAdjust="spacing" textLength="91.5269" x="248.2593" y="824.4653">xforms-refresh</text></g><line style="stroke:#000000;stroke-width:1;stroke-dasharray:2,2;" x1="121.4624" x2="1556.0762" y1="839.2739" y2="839.2739"/><text fill="#000000" font-family="sans-serif" font-size="11" font-weight="bold" lengthAdjust="spacing" textLength="89.9067" x="126.4624" y="851.0313">[validation fails]</text><g class="message" data-participant-1="SUBMISSION" data-participant-2="ACTIONS"><polygon fill="#181818" points="370.5142,874.9575,360.5142,878.9575,370.5142,882.9575,366.5142,878.9575" style="stroke:#181818;stroke-width:1;"/><line style="stroke:#181818;stroke-width:1;" x1="364.5142" x2="581.5396" y1="878.9575" y2="878.9575"/><text fill="#000000" font-family="sans-serif" font-size="13" font-weight="bold" lengthAdjust="spacing" textLength="14.3203" x="376.5142" y="873.1489">16</text><text fill="#000000" font-family="sans-serif" font-size="13" lengthAdjust="spacing" textLength="134.437" x="394.8345" y="873.1489">dispatch-submit-error</text></g></g></svg>