<svg xmlns="http://www.w3.org/2000/svg" xmlns:xlink="http://www.w3.org/1999/xlink" contentStyleType="text/css" data-diagram-type="SEQUENCE" height="977px" preserveAspectRatio="none" style="width:1710px;height:977px;background:#FFFFFF;" version="1.1" viewBox="0 0 1710 977" width="1710px" zoomAndPan="magnify"><title>Submission flow sequence (action -&gt; transport -&gt; response update)</title><defs/><g><text fill="#000000" font-family="sans-serif" font-size="14" font-weight="bold" lengthAdjust="spacing" textLength="466.7031" x="623.0029" y="29.9639">Submission flow sequence (action -&gt; transport -&gt; response update)</text><rect fill="none" height="506.1978" style="stroke:#000000;stroke-width:1.5;" width="1584.9297" x="118.7793" y="370.4634"/><rect fill="none" height="180.478" style="stroke:#000000;stroke-width:1.5;" width="1564.9297" x="128.7793" y="559.3887"/><g><title>End User</title><rect fill="#000000" fill-opacity="0.00000" height="769.5303" width="8" x="33.6543" y="124.1309"/><line style="stroke:#181818;stroke-width:0.5;stroke-dasharray:5,5;" x1="37" x2="37" y1="124.1309" y2="893.6611"/></g><g><title>DOM Trigger</title><rect fill="#000000" fill-opacity="0.00000" height="769.5303" width="8" x="208.939" y="124.1309"/><line style="stroke:#181818;stroke-width:0.5;stroke-dasharray:5,5;" x1="212.7793" x2="212.7793" y1="124.1309" y2="893.6611"/></g><g><title>Action Dispatcher</title><rect fill="#000000" fill-opacity="0.00000" height="769.5303" width="8" x="372.0615" y="124.1309"/><line style="stroke:#181818;stroke-width:0.5;stroke-dasharray:5,5;" x1="375.2114" x2="375.2114" y1="124.1309" y2="893.6611"/></g><g><title>Submission Adapter</title><rect fill="#000000" fill-opacity="0.00000" height="769.5303" width="8" x="643.1069" y="124.1309"/><line style="stroke:#181818;stroke-width:0.5;stroke-dasharray:5,5;" x1="646.8721" x2="646.8721" y1="124.1309" y2="893.6611"/></g><g><title>HTTP Client</title><rect fill="#000000" fill-opacity="0.00000" height="769.5303" width="8" x="1007.3105" y="124.1309"/><line style="stroke:#181818;stroke-width:0.5;stroke-dasharray:5,5;" x1="1011.1636" x2="1011.1636" y1="124.1309" y2="893.6611"/></g><g><title>Remote Endpoint</title><rect fill="#000000" fill-opacity="0.00000" height="769.5303" width="8" x="1238.5435" y="124.1309"/><line style="stroke:#181818;stroke-width:0.5;stroke-dasharray:5,5;" x1="1242.4429" x2="1242.4429" y1="124.1309" y2="893.6611"/></g><g><title>SaxonJS.XSLT Runtime</title><rect fill="#000000" fill-opacity="0.00000" height="769.5303" width="8" x="1389.5884" y="124.1309"/><line style="stroke:#181818;stroke-width:0.5;stroke-dasharray:5,5;" x1="1392.644" x2="1392.644" y1="124.1309" y2="893.6611"/></g><g><title>Model State</title><rect fill="#000000" fill-opacity="0.00000" height="769.5303" width="8" x="1637.4775" y="124.1309"/><line style="stroke:#181818;stroke-width:0.5;stroke-dasharray:5,5;" x1="1641.2461" x2="1641.2461" y1="124.1309" y2="893.6611"/></g><g class="participant participant-head" data-participant="USER"><text fill="#000000" font-family="sans-serif" font-size="14" lengthAdjust="spacing" textLength="59.3086" x="5" y="120.0293">End User</text><ellipse cx="37.6543" cy="53.5654" fill="#E2E2F0" rx="8" ry="8" style="stroke:#181818;stroke-width:0.5;"/><path d="M37.6543,61.5654 L37.6543,88.5654 M24.6543,69.5654 L50.6543,69.5654 M37.6543,88.5654 L24.6543,103.5654 M37.6543,88.5654 L50.6543,103.5654" fill="none" style="stroke:#181818;stroke-width:0.5;"/></g><g class="participant participant-tail" data-participant="USER"><text fill="#000000" font-family="sans-serif" font-size="14" lengthAdjust="spacing" textLength="59.3086" x="5" y="907.625">End User</text><ellipse cx="37.6543" cy="920.2266" fill="#E2E2F0" rx="8" ry="8" style="stroke:#181818;stroke-width:0.5;"/><path d="M37.6543,928.2266 L37.6543,955.2266 M24.6543,936.2266 L50.6543,936.2266 M37.6543,955.2266 L24.6543,970.2266 M37.6543,955.2266 L50.6543,970.2266" fill="none" style="stroke:#181818;stroke-width:0.5;"/></g><g class="participant participant-head" data-participant="DOM"><rect fill="#E2E2F0" height="52.1309" rx="2.5" ry="2.5" style="stroke:#181818;stroke-width:0.5;" width="148.3193" x="138.7793" y="71"/><text fill="#000000" font-family="sans-serif" font-size="14" lengthAdjust="spacing" textLength="85.5723" x="170.1528" y="92.9639">DOM Trigger</text><text fill="#000000" font-family="sans-serif" font-size="14" lengthAdjust="spacing" textLength="134.3193" x="145.7793" y="112.0293">button[data-submit]</text></g><g class="participant participant-tail" data-participant="DOM"><rect fill="#E2E2F0" height="52.1309" rx="2.5" ry="2.5" style="stroke:#181818;stroke-width:0.5;" width="148.3193" x="138.7793" y="892.6611"/><text fill="#000000" font-family="sans-serif" font-size="14" lengthAdjust="spacing" textLength="85.5723" x="170.1528" y="914.625">DOM Trigger</text><text fill="#000000" font-family="sans-serif" font-size="14" lengthAdjust="spacing" textLength="134.3193" x="145.7793" y="933.6904">button[data-submit]</text></g><g class="participant participant-head" data-participant="ACTIONS"><rect fill="#E2E2F0" height="52.1309" rx="2.5" ry="2.5" style="stroke:#181818;stroke-width:0.5;" width="149.7002" x="301.2114" y="71"/><text fill="#000000" font-family="sans-serif" font-size="14" lengthAdjust="spacing" textLength="116.1973" x="317.9629" y="92.9639">Action Dispatcher</text><text fill="#000000" font-family="sans-serif" font-size="14" lengthAdjust="spacing" textLength="135.7002" x="308.2114" y="112.0293">applyActions (L4666)</text></g><g class="participant participant-tail" data-participant="ACTIONS"><rect fill="#E2E2F0" height="52.1309" rx="2.5" ry="2.5" style="stroke:#181818;stroke-width:0.5;" width="149.7002" x="301.2114" y="892.6611"/><text fill="#000000" font-family="sans-serif" font-size="14" lengthAdjust="spacing" textLength="116.1973" x="317.9629" y="914.625">Action Dispatcher</text><text fill="#000000" font-family="sans-serif" font-size="14" lengthAdjust="spacing" textLength="135.7002" x="308.2114" y="933.6904">applyActions (L4666)</text></g><g class="participant participant-head" data-participant="SUBMISSION"><rect fill="#E2E2F0" height="71.1963" rx="2.5" ry="2.5" style="stroke:#181818;stroke-width:0.5;" width="162.4697" x="565.8721" y="51.9346"/><text fill="#000000" font-family="sans-serif" font-size="14" lengthAdjust="spacing" textLength="132.1934" x="581.0103" y="73.8984">Submission Adapter</text><text fill="#000000" font-family="sans-serif" font-size="14" lengthAdjust="spacing" textLength="148.4697" x="572.8721" y="92.9639">xforms-submit (L5729)</text><text fill="#000000" font-family="sans-serif" font-size="14" lengthAdjust="spacing" textLength="147.1641" x="573.5249" y="112.0293">setSubmission (L4966)</text></g><g class="participant participant-tail" data-participant="SUBMISSION"><rect fill="#E2E2F0" height="71.1963" rx="2.5" ry="2.5" style="stroke:#181818;stroke-width:0.5;" width="162.4697" x="565.8721" y="892.6611"/><text fill="#000000" font-family="sans-serif" font-size="14" lengthAdjust="spacing" textLength="132.1934" x="581.0103" y="914.625">Submission Adapter</text><text fill="#000000" font-family="sans-serif" font-size="14" lengthAdjust="spacing" textLength="148.4697" x="572.8721" y="933.6904">xforms-submit (L5729)</text><text fill="#000000" font-family="sans-serif" font-size="14" lengthAdjust="spacing" textLength="147.1641" x="573.5249" y="952.7559">setSubmission (L4966)</text></g><g class="participant participant-head" data-participant="HTTP"><rect fill="#E2E2F0" height="52.1309" rx="2.5" ry="2.5" style="stroke:#181818;stroke-width:0.5;" width="140.2939" x="941.1636" y="71"/><text fill="#000000" font-family="sans-serif" font-size="14" lengthAdjust="spacing" textLength="75.7217" x="973.4497" y="92.9639">HTTP Client</text><text fill="#000000" font-family="sans-serif" font-size="14" lengthAdjust="spacing" textLength="126.2939" x="948.1636" y="112.0293">ixsl:promise (fetch)</text></g><g class="participant participant-tail" data-participant="HTTP"><rect fill="#E2E2F0" height="52.1309" rx="2.5" ry="2.5" style="stroke:#181818;stroke-width:0.5;" width="140.2939" x="941.1636" y="892.6611"/><text fill="#000000" font-family="sans-serif" font-size="14" lengthAdjust="spacing" textLength="75.7217" x="973.4497" y="914.625">HTTP Client</text><text fill="#000000" font-family="sans-serif" font-size="14" lengthAdjust="spacing" textLength="126.2939" x="948.1636" y="933.6904">ixsl:promise (fetch)</text></g><g class="participant participant-head" data-participant="ENDPOINT"><text fill="#000000" font-family="sans-serif" font-size="14" lengthAdjust="spacing" textLength="114.2012" x="1182.4429" y="120.0293">Remote Endpoint</text><path d="M1224.5435,69.0654 C1224.5435,59.0654 1242.5435,59.0654 1242.5435,59.0654 C1242.5435,59.0654 1260.5435,59.0654 1260.5435,69.0654 L1260.5435,95.0654 C1260.5435,105.0654 1242.5435,105.0654 1242.5435,105.0654 C1242.5435,105.0654 1224.5435,105.0654 1224.5435,95.0654 L1224.5435,69.0654" fill="#E2E2F0" style="stroke:#181818;stroke-width:0.5;"/><path d="M1224.5435,69.0654 C1224.5435,79.0654 1242.5435,79.0654 1242.5435,79.0654 C1242.5435,79.0654 1260.5435,79.0654 1260.5435,69.0654" fill="none" style="stroke:#181818;stroke-width:0.5;"/></g><g class="participant participant-tail" data-participant="ENDPOINT"><text fill="#000000" font-family="sans-serif" font-size="14" lengthAdjust="spacing" textLength="114.2012" x="1182.4429" y="907.625">Remote Endpoint</text><path d="M1224.5435,921.7266 C1224.5435,911.7266 1242.5435,911.7266 1242.5435,911.7266 C1242.5435,911.7266 1260.5435,911.7266 1260.5435,921.7266 L1260.5435,947.7266 C1260.5435,957.7266 1242.5435,957.7266 1242.5435,957.7266 C1242.5435,957.7266 1224.5435,957.7266 1224.5435,947.7266 L1224.5435,921.7266" fill="#E2E2F0" style="stroke:#181818;stroke-width:0.5;"/><path d="M1224.5435,921.7266 C1224.5435,931.7266 1242.5435,931.7266 1242.5435,931.7266 C1242.5435,931.7266 1260.5435,931.7266 1260.5435,921.7266" fill="none" style="stroke:#181818;stroke-width:0.5;"/></g><g class="participant participant-head" data-participant="RUNTIME"><rect fill="#E2E2F0" height="52.1309" rx="2.5" ry="2.5" style="stroke:#181818;stroke-width:0.5;" width="161.8887" x="1312.644" y="71"/><text fill="#000000" font-family="sans-serif" font-size="14" lengthAdjust="spacing" textLength="147.8887" x="1319.644" y="92.9639">SaxonJS/XSLT Runtime</text><text fill="#000000" font-family="sans-serif" font-size="14" lengthAdjust="spacing" textLength="111.5898" x="1337.7935" y="112.0293">saxon-xforms.xsl</text></g><g class="participant participant-tail" data-participant="RUNTIME"><rect fill="#E2E2F0" height="52.1309" rx="2.5" ry="2.5" style="stroke:#181818;stroke-width:0.5;" width="161.8887" x="1312.644" y="892.6611"/><text fill="#000000" font-family="sans-serif" font-size="14" lengthAdjust="spacing" textLength="147.8887" x="1319.644" y="914.625">SaxonJS/XSLT Runtime</text><text fill="#000000" font-family="sans-serif" font-size="14" lengthAdjust="spacing" textLength="111.5898" x="1337.7935" y="933.6904">saxon-xforms.xsl</text></g><g class="participant participant-head" data-participant="MODEL"><text fill="#000000" font-family="sans-serif" font-size="14" lengthAdjust="spacing" textLength="78.4629" x="1599.2461" y="120.0293">Model State</text><path d="M1623.4775,69.0654 C1623.4775,59.0654 1641.4775,59.0654 1641.4775,59.0654 C1641.4775,59.0654 1659.4775,59.0654 1659.4775,69.0654 L1659.4775,95.0654 C1659.4775,105.0654 1641.4775,105.0654 1641.4775,105.0654 C1641.4775,105.0654 1623.4775,105.0654 1623.4775,95.0654 L1623.4775,69.0654" fill="#E2E2F0" style="stroke:#181818;stroke-width:0.5;"/><path d="M1623.4775,69.0654 C1623.4775,79.0654 1641.4775,79.0654 1641.4775,79.0654 C1641.4775,79.0654 1659.4775,79.0654 1659.4775,69.0654" fill="none" style="stroke:#181818;stroke-width:0.5;"/></g><g class="participant participant-tail" data-participant="MODEL"><text fill="#000000" font-family="sans-serif" font-size="14" lengthAdjust="spacing" textLength="78.4629" x="1599.2461" y="907.625">Model State</text><path d="M1623.4775,921.7266 C1623.4775,911.7266 1641.4775,911.7266 1641.4775,911.7266 C1641.4775,911.7266 1659.4775,911.7266 1659.4775,921.7266 L1659.4775,947.7266 C1659.4775,957.7266 1641.4775,957.7266 1641.4775,957.7266 C1641.4775,957.7266 1623.4775,957.7266 1623.4775,947.7266 L1623.4775,921.7266" fill="#E2E2F0" style="stroke:#181818;stroke-width:0.5;"/><path d="M1623.4775,921.7266 C1623.4775,931.7266 1641.4775,931.7266 1641.4775,931.7266 C1641.4775,931.7266 1659.4775,931.7266 1659.4775,921.7266" fill="none" style="stroke:#181818;stroke-width:0.5;"/></g><g class="message" data-participant-1="USER" data-participant-2="DOM"><polygon fill="#181818" points="200.939,153.8345,210.939,157.8345,200.939,161.8345,204.939,157.8345" style="stroke:#181818;stroke-width:1;"/><line style="stroke:#181818;stroke-width:1;" x1="37.6543" x2="206.939" y1="157.8345" y2="157.8345"/><text fill="#000000" font-family="sans-serif" font-size="13" font-weight="bold" lengthAdjust="spacing" textLength="7.1602" x="44.6543" y="152.0259">1</text><text fill="#000000" font-family="sans-serif" font-size="13" lengthAdjust="spacing" textLength="140.1245" x="55.8145" y="152.0259">activate submit control</text></g><g class="message" data-participant-1="DOM" data-participant-2="ACTIONS"><polygon fill="#181818" points="364.0615,203.2417,374.0615,207.2417,364.0615,211.2417,368.0615,207.2417" style="stroke:#181818;stroke-width:1;"/><line style="stroke:#181818;stroke-width:1;" x1="212.939" x2="370.0615" y1="207.2417" y2="207.2417"/><text fill="#000000" font-family="sans-serif" font-size="13" font-weight="bold" lengthAdjust="spacing" textLength="7.1602" x="219.939" y="192.5813">2</text><text fill="#000000" font-family="sans-serif" font-size="13" lengthAdjust="spacing" textLength="113.6802" x="231.0991" y="183.7295">ixsl:onclick (L1783)</text><text fill="#000000" font-family="sans-serif" font-size="13" lengthAdjust="spacing" textLength="127.9624" x="231.0991" y="201.4331">DOMActivate (L6692)</text></g><g class="message" data-participant-1="ACTIONS" data-participant-2="SUBMISSION"><polygon fill="#181818" points="635.1069,252.6489,645.1069,256.6489,635.1069,260.6489,639.1069,256.6489" style="stroke:#181818;stroke-width:1;"/><line style="stroke:#181818;stroke-width:1;" x1="376.0615" x2="641.1069" y1="256.6489" y2="256.6489"/><text fill="#000000" font-family="sans-serif" font-size="13" font-weight="bold" lengthAdjust="spacing" textLength="7.1602" x="383.0615" y="241.9885">3</text><text fill="#000000" font-family="sans-serif" font-size="13" lengthAdjust="spacing" textLength="119.5073" x="394.2217" y="233.1367">action-send (L7825)</text><text fill="#000000" font-family="sans-serif" font-size="13" lengthAdjust="spacing" textLength="167.6543" x="394.2217" y="250.8403">build submission from map</text></g><g class="message" data-participant-1="SUBMISSION" data-participant-2="RUNTIME"><polygon fill="#181818" points="1381.5884,302.0562,1391.5884,306.0562,1381.5884,310.0562,1385.5884,306.0562" style="stroke:#181818;stroke-width:1;"/><line style="stroke:#181818;stroke-width:1;" x1="647.1069" x2="1387.5884" y1="306.0562" y2="306.0562"/><text fill="#000000" font-family="sans-serif" font-size="13" font-weight="bold" lengthAdjust="spacing" textLength="7.1602" x="654.1069" y="291.3958">4</text><text fill="#000000" font-family="sans-serif" font-size="13" lengthAdjust="spacing" textLength="178.2676" x="665.2671" y="282.5439">serialize bound instance data</text><text fill="#000000" font-family="sans-serif" font-size="13" lengthAdjust="spacing" textLength="156.019" x="665.2671" y="300.2476">(xforms-revalidate L5531)</text></g><g class="message" data-participant-1="RUNTIME" data-participant-2="MODEL"><polygon fill="#181818" points="1629.4775,351.4634,1639.4775,355.4634,1629.4775,359.4634,1633.4775,355.4634" style="stroke:#181818;stroke-width:1;"/><line style="stroke:#181818;stroke-width:1;" x1="1393.5884" x2="1635.4775" y1="355.4634" y2="355.4634"/><text fill="#000000" font-family="sans-serif" font-size="13" font-weight="bold" lengthAdjust="spacing" textLength="7.1602" x="1400.5884" y="340.803">5</text><text fill="#000000" font-family="sans-serif" font-size="13" lengthAdjust="spacing" textLength="177.1694" x="1411.7485" y="331.9512">check-required-fields (L1576)</text><text fill="#000000" font-family="sans-serif" font-size="13" lengthAdjust="spacing" textLength="212.729" x="1411.7485" y="349.6548">check-constraints-on-fields (L1626)</text></g><path d="M118.7793,370.4634 L181.2417,370.4634 L181.2417,380.167 L171.2417,390.167 L118.7793,390.167 L118.7793,370.4634" fill="#EEEEEE" style="stroke:#000000;stroke-width:1.5;"/><rect fill="none" height="506.1978" style="stroke:#000000;stroke-width:1.5;" width="1584.9297" x="118.7793" y="370.4634"/><text fill="#000000" font-family="sans-serif" font-size="13" font-weight="bold" lengthAdjust="spacing" textLength="17.4624" x="133.7793" y="385.3584">alt</text><text fill="#000000" font-family="sans-serif" font-size="11" font-weight="bold" lengthAdjust="spacing" textLength="103.3291" x="196.2417" y="384.2207">[validation passes]</text><g class="message" data-participant-1="SUBMISSION" data-participant-2="HTTP"><polygon fill="#181818" points="999.3105,427.5742,1009.3105,431.5742,999.3105,435.5742,1003.3105,431.5742" style="stroke:#181818;stroke-width:1;"/><line style="stroke:#181818;stroke-width:1;" x1="647.1069" x2="1005.3105" y1="431.5742" y2="431.5742"/><text fill="#000000" font-family="sans-serif" font-size="13" font-weight="bold" lengthAdjust="spacing" textLength="7.1602" x="654.1069" y="416.9138">6</text><text fill="#000000" font-family="sans-serif" font-size="13" lengthAdjust="spacing" textLength="122.4399" x="665.2671" y="408.062">HTTPsubmit (L1801)</text><text fill="#000000" font-family="sans-serif" font-size="13" lengthAdjust="spacing" textLength="329.0435" x="665.2671" y="425.7656">ixsl:promise fetch(resource, {method, headers, body})</text></g><g class="message" data-participant-1="HTTP" data-participant-2="ENDPOINT"><polygon fill="#181818" points="1230.5435,459.2778,1240.5435,463.2778,1230.5435,467.2778,1234.5435,463.2778" style="stroke:#181818;stroke-width:1;"/><line style="stroke:#181818;stroke-width:1;" x1="1011.3105" x2="1236.5435" y1="463.2778" y2="463.2778"/><text fill="#000000" font-family="sans-serif" font-size="13" font-weight="bold" lengthAdjust="spacing" textLength="7.1602" x="1018.3105" y="457.4692">7</text><text fill="#000000" font-family="sans-serif" font-size="13" lengthAdjust="spacing" textLength="82.3228" x="1029.4707" y="457.4692">HTTP request</text></g><g class="message" data-participant-1="ENDPOINT" data-participant-2="HTTP"><polygon fill="#181818" points="1022.3105,490.9814,1012.3105,494.9814,1022.3105,498.9814,1018.3105,494.9814" style="stroke:#181818;stroke-width:1;"/><line style="stroke:#181818;stroke-width:1;stroke-dasharray:2,2;" x1="1016.3105" x2="1241.5435" y1="494.9814" y2="494.9814"/><text fill="#000000" font-family="sans-serif" font-size="13" font-weight="bold" lengthAdjust="spacing" textLength="7.1602" x="1028.3105" y="489.1729">8</text><text fill="#000000" font-family="sans-serif" font-size="13" lengthAdjust="spacing" textLength="196.0728" x="1039.4707" y="489.1729">response(status, body, headers)</text></g><g class="message" data-participant-1="HTTP" data-participant-2="SUBMISSION"><polygon fill="#181818" points="658.1069,540.3887,648.1069,544.3887,658.1069,548.3887,654.1069,544.3887" style="stroke:#181818;stroke-width:1;"/><line style="stroke:#181818;stroke-width:1;" x1="652.1069" x2="1010.3105" y1="544.3887" y2="544.3887"/><text fill="#000000" font-family="sans-serif" font-size="13" font-weight="bold" lengthAdjust="spacing" textLength="7.1602" x="664.1069" y="529.7283">9</text><text fill="#000000" font-family="sans-serif" font-size="13" lengthAdjust="spacing" textLength="102.3877" x="675.2671" y="520.8765">promise callback</text><text fill="#000000" font-family="sans-serif" font-size="13" lengthAdjust="spacing" textLength="217.2612" x="675.2671" y="538.5801">response-headers-to-nodes (L1133)</text></g><path d="M128.7793,559.3887 L191.2417,559.3887 L191.2417,569.0923 L181.2417,579.0923 L128.7793,579.0923 L128.7793,559.3887" fill="#EEEEEE" style="stroke:#000000;stroke-width:1.5;"/><rect fill="none" height="180.478" style="stroke:#000000;stroke-width:1.5;" width="1564.9297" x="128.7793" y="559.3887"/><text fill="#000000" font-family="sans-serif" font-size="13" font-weight="bold" lengthAdjust="spacing" textLength="17.4624" x="143.7793" y="574.2837">alt</text><text fill="#000000" font-family="sans-serif" font-size="11" font-weight="bold" lengthAdjust="spacing" textLength="114.3237" x="206.2417" y="573.146">[replace="instance"]</text><g class="message" data-participant-1="SUBMISSION" data-participant-2="RUNTIME"><polygon fill="#181818" points="1381.5884,598.7959,1391.5884,602.7959,1381.5884,606.7959,1385.5884,602.7959" style="stroke:#181818;stroke-width:1;"/><line style="stroke:#181818;stroke-width:1;" x1="647.1069" x2="1387.5884" y1="602.7959" y2="602.7959"/><text fill="#000000" font-family="sans-serif" font-size="13" font-weight="bold" lengthAdjust="spacing" textLength="14.3203" x="654.1069" y="596.9873">10</text><text fill="#000000" font-family="sans-serif" font-size="13" lengthAdjust="spacing" textLength="123.5825" x="672.4272" y="596.9873">parse response XML</text></g><g class="message" data-participant-1="RUNTIME" data-participant-2="MODEL"><polygon fill="#181818" points="1629.4775,630.4995,1639.4775,634.4995,1629.4775,638.4995,1633.4775,634.4995" style="stroke:#181818;stroke-width:1;"/><line style="stroke:#181818;stroke-width:1;" x1="1393.5884" x2="1635.4775" y1="634.4995" y2="634.4995"/><text fill="#000000" font-family="sans-serif" font-size="13" font-weight="bold" lengthAdjust="spacing" textLength="14.3203" x="1400.5884" y="628.6909">11</text><text fill="#000000" font-family="sans-serif" font-size="13" lengthAdjust="spacing" textLength="130.1523" x="1418.9087" y="628.6909">replace instance data</text></g><line style="stroke:#000000;stroke-width:1;stroke-dasharray:2,2;" x1="128.7793" x2="1693.709" y1="643.4995" y2="643.4995"/><text fill="#000000" font-family="sans-serif" font-size="11" font-weight="bold" lengthAdjust="spacing" textLength="80.8242" x="133.7793" y="655.2568">[replace="all"]</text><g class="message" data-participant-1="SUBMISSION" data-participant-2="DOM"><polygon fill="#181818" points="223.939,679.1831,213.939,683.1831,223.939,687.1831,219.939,683.1831" style="stroke:#181818;stroke-width:1;"/><line style="stroke:#181818;stroke-width:1;" x1="217.939" x2="646.1069" y1="683.1831" y2="683.1831"/><text fill="#000000" font-family="sans-serif" font-size="13" font-weight="bold" lengthAdjust="spacing" textLength="14.3203" x="229.939" y="677.3745">12</text><text fill="#000000" font-family="sans-serif" font-size="13" lengthAdjust="spacing" textLength="129.1812" x="248.2593" y="677.3745">replace page content</text></g><line style="stroke:#000000;stroke-width:1;stroke-dasharray:2,2;" x1="128.7793" x2="1693.709" y1="692.1831" y2="692.1831"/><text fill="#000000" font-family="sans-serif" font-size="11" font-weight="bold" lengthAdjust="spacing" textLength="95.2349" x="133.7793" y="703.9404">[replace="none"]</text><g class="message" data-participant-1="SUBMISSION" data-participant-2="ACTIONS"><polygon fill="#181818" points="387.0615,727.8667,377.0615,731.8667,387.0615,735.8667,383.0615,731.8667" style="stroke:#181818;stroke-width:1;"/><line style="stroke:#181818;stroke-width:1;" x1="381.0615" x2="646.1069" y1="731.8667" y2="731.8667"/><text fill="#000000" font-family="sans-serif" font-size="13" font-weight="bold" lengthAdjust="spacing" textLength="14.3203" x="393.0615" y="726.0581">13</text><text fill="#000000" font-family="sans-serif" font-size="13" lengthAdjust="spacing" textLength="228.7251" x="411.3818" y="726.0581">dispatch xforms-submit-done (L6545)</text></g><g class="message" data-participant-1="RUNTIME" data-participant-2="MODEL"><polygon fill="#181818" points="1629.4775,784.2739,1639.4775,788.2739,1629.4775,792.2739,1633.4775,788.2739" style="stroke:#181818;stroke-width:1;"/><line style="stroke:#181818;stroke-width:1;" x1="1393.5884" x2="1635.4775" y1="788.2739" y2="788.2739"/><text fill="#000000" font-family="sans-serif" font-size="13" font-weight="bold" lengthAdjust="spacing" textLength="14.3203" x="1400.5884" y="773.6135">14</text><text fill="#000000" font-family="sans-serif" font-size="13" lengthAdjust="spacing" textLength="138.8423" x="1418.9087" y="764.7617">xforms-rebuild (L5296)</text><text fill="#000000" font-family="sans-serif" font-size="13" lengthAdjust="spacing" textLength="161.9351" x="1418.9087" y="782.4653">xforms-recalculate (L5392)</text></g><g class="message" data-participant-1="RUNTIME" data-participant-2="DOM"><polygon fill="#181818" points="223.939,815.9775,213.939,819.9775,223.939,823.9775,219.939,819.9775" style="stroke:#181818;stroke-width:1;"/><line style="stroke:#181818;stroke-width:1;" x1="217.939" x2="1392.5884" y1="819.9775" y2="819.9775"/><text fill="#000000" font-family="sans-serif" font-size="13" font-weight="bold" lengthAdjust="spacing" textLength="14.3203" x="229.939" y="814.1689">15</text><text fill="#000000" font-family="sans-serif" font-size="13" lengthAdjust="spacing" textLength="139.5469" x="248.2593" y="814.1689">xforms-refresh (L5622)</text></g><line style="stroke:#000000;stroke-width:1;stroke-dasharray:2,2;" x1="118.7793" x2="1703.709" y1="828.9775" y2="828.9775"/><text fill="#000000" font-family="sans-serif" font-size="11" font-weight="bold" lengthAdjust="spacing" textLength="89.9067" x="123.7793" y="840.7349">[validation fails]</text><g class="message" data-participant-1="SUBMISSION" data-participant-2="ACTIONS"><polygon fill="#181818" points="387.0615,864.6611,377.0615,868.6611,387.0615,872.6611,383.0615,868.6611" style="stroke:#181818;stroke-width:1;"/><line style="stroke:#181818;stroke-width:1;" x1="381.0615" x2="646.1069" y1="868.6611" y2="868.6611"/><text fill="#000000" font-family="sans-serif" font-size="13" font-weight="bold" lengthAdjust="spacing" textLength="14.3203" x="393.0615" y="862.8525">16</text><text fill="#000000" font-family="sans-serif" font-size="13" lengthAdjust="spacing" textLength="182.457" x="411.3818" y="862.8525">dispatch-submit-error (L5658)</text></g><!--SRC=[RLHTRzem57tFhx1u8bAp3MW2LDeaLf3MYO-AW5HfxC4afbWrTcOxNRjf_tt7-G3I8Y41zhddtdlkkRRS2aRYV7lWnd0boKwetyImNpcJ2IDjcbXt6dmXLbDfCgMj-wCPVah3I9wbr3BVexbLCZzicVOyn2XDMXEPahLXkaMe8UjuilGogYrFU4Qb9QtnOaPMcZy-ChsHszmY_WUuQ61SCVPd4GPGCsfKrZFc9gCssRjOccNYjJmtf3szZgB8Bu97jwkxnJnk4forEaffPXt3oqxfWwaIWoBiTuV-1ktPCpIOXpLplFuwkujZi3V9lwrMz-HMS2RjHl8N8suohK008NSCvPRH3kMvLhSKDwqbEoZB2EJA59UsW4pcu_l5tNprfdRwekJt-ED3F5sHPIujFp2KwKw3ieSFo5aGBDVprTriSfPcfb8cI6mnhW8nMumdKyzpWt4JTUEu8MxSpq2GIej4IQkLyDmjG9MY01RDAPa8dZn1cav_q8DYW8rgXlOqYePTtwjZ47wIhKg5kWs3JThJ_g0R-iu7NAHbyigEq8ySQEQTnOAfQWyqC1YdWlzXPAjoK75fB7NMTPrlPBkQhMRFG3clacaOzZg-LrE0hP02NF1JyWJehvnhbWOxpaJgBDK9-n6AAwyXYS4kO58cGFqdKDIDV9XVM5AbSlLdr1XcF4AQzHT6kIc-Zgxh33vr_3UsALpJnhQfN2ViYlmzCBjNwHNPCveoRQxGTVhwpqU2WXBKjNKgUkBQOSO2SRm9JXNKYzo6QZQl-8xqvxoDuTNr9LI8BKsUDh8c2ghGmAf0mdA5D9rUpr7Xu-JHB1CqOPzRzQnQk7Yhq6d2M05aEhuu3xDf0RymluguwG60cIW8ggme-LB2SW5gYem-iiBzMELt35B9YpMVrYEjtYVIU5g2585kCSBhqEa1wvUgNEZbwDjo9V0eTOVEXCTpI9_aejoqiESshS5JjdD4xw3VtY6ZBf15EsSktL4ktflqVJjr7qnhlF2EBHo0JQR_0G00]--></g></svg>