<svg xmlns="http://www.w3.org/2000/svg" xmlns:xlink="http://www.w3.org/1999/xlink" contentStyleType="text/css" data-diagram-type="SEQUENCE" height="1357px" preserveAspectRatio="none" style="width:1522px;height:1357px;background:#FFFFFF;" version="1.1" viewBox="0 0 1522 1357" width="1522px" zoomAndPan="magnify"><title>Action dispatch sequence (event -&gt; action resolution -&gt; execution)</title><defs/><g><text fill="#000000" font-family="sans-serif" font-size="14" font-weight="bold" lengthAdjust="spacing" textLength="462.1709" x="531.6357" y="29.9639">Action dispatch sequence (event -&gt; action resolution -&gt; execution)</text><rect fill="none" height="809.7666" style="stroke:#000000;stroke-width:1.5;" width="1407.3979" x="109.0444" y="365.7598"/><rect fill="none" height="695.9521" style="stroke:#000000;stroke-width:1.5;" width="1387.3979" x="119.0444" y="472.5742"/><g><title>End User</title><rect fill="#000000" fill-opacity="0.00000" height="1149.5063" width="8" x="33.6543" y="124.1309"/><line style="stroke:#181818;stroke-width:0.5;stroke-dasharray:5,5;" x1="37" x2="37" y1="124.1309" y2="1273.6372"/></g><g><title>DOM Control</title><rect fill="#000000" fill-opacity="0.00000" height="1149.5063" width="8" x="201.4805" y="124.1309"/><line style="stroke:#181818;stroke-width:0.5;stroke-dasharray:5,5;" x1="205.0444" x2="205.0444" y1="124.1309" y2="1273.6372"/></g><g><title>Event Bridge</title><rect fill="#000000" fill-opacity="0.00000" height="1149.5063" width="8" x="399.1025" y="124.1309"/><line style="stroke:#181818;stroke-width:0.5;stroke-dasharray:5,5;" x1="403.0566" x2="403.0566" y1="124.1309" y2="1273.6372"/></g><g><title>Action Dispatcher</title><rect fill="#000000" fill-opacity="0.00000" height="1149.5063" width="8" x="618.9414" y="124.1309"/><line style="stroke:#181818;stroke-width:0.5;stroke-dasharray:5,5;" x1="622.8428" x2="622.8428" y1="124.1309" y2="1273.6372"/></g><g><title>Event Handler</title><rect fill="#000000" fill-opacity="0.00000" height="1149.5063" width="8" x="834.2456" y="124.1309"/><line style="stroke:#181818;stroke-width:0.5;stroke-dasharray:5,5;" x1="838.1895" x2="838.1895" y1="124.1309" y2="1273.6372"/></g><g><title>Action Templates</title><rect fill="#000000" fill-opacity="0.00000" height="1149.5063" width="8" x="1029.6841" y="124.1309"/><line style="stroke:#181818;stroke-width:0.5;stroke-dasharray:5,5;" x1="1033.3018" x2="1033.3018" y1="124.1309" y2="1273.6372"/></g><g><title>SaxonJS.XSLT Runtime</title><rect fill="#000000" fill-opacity="0.00000" height="1149.5063" width="8" x="1216.2549" y="124.1309"/><line style="stroke:#181818;stroke-width:0.5;stroke-dasharray:5,5;" x1="1219.3105" x2="1219.3105" y1="124.1309" y2="1273.6372"/></g><g><title>Model State</title><rect fill="#000000" fill-opacity="0.00000" height="1149.5063" width="8" x="1450.2109" y="124.1309"/><line style="stroke:#181818;stroke-width:0.5;stroke-dasharray:5,5;" x1="1453.9795" x2="1453.9795" y1="124.1309" y2="1273.6372"/></g><g class="participant participant-head" data-participant="USER"><text fill="#000000" font-family="sans-serif" font-size="14" lengthAdjust="spacing" textLength="59.3086" x="5" y="120.0293">End User</text><ellipse cx="37.6543" cy="53.5654" fill="#E2E2F0" rx="8" ry="8" style="stroke:#181818;stroke-width:0.5;"/><path d="M37.6543,61.5654 L37.6543,88.5654 M24.6543,69.5654 L50.6543,69.5654 M37.6543,88.5654 L24.6543,103.5654 M37.6543,88.5654 L50.6543,103.5654" fill="none" style="stroke:#181818;stroke-width:0.5;"/></g><g class="participant participant-tail" data-participant="USER"><text fill="#000000" font-family="sans-serif" font-size="14" lengthAdjust="spacing" textLength="59.3086" x="5" y="1287.6011">End User</text><ellipse cx="37.6543" cy="1300.2026" fill="#E2E2F0" rx="8" ry="8" style="stroke:#181818;stroke-width:0.5;"/><path d="M37.6543,1308.2026 L37.6543,1335.2026 M24.6543,1316.2026 L50.6543,1316.2026 M37.6543,1335.2026 L24.6543,1350.2026 M37.6543,1335.2026 L50.6543,1350.2026" fill="none" style="stroke:#181818;stroke-width:0.5;"/></g><g class="participant participant-head" data-participant="DOM"><rect fill="#E2E2F0" height="52.1309" rx="2.5" ry="2.5" style="stroke:#181818;stroke-width:0.5;" width="152.8721" x="129.0444" y="71"/><text fill="#000000" font-family="sans-serif" font-size="14" lengthAdjust="spacing" textLength="86.3721" x="162.2944" y="92.9639">DOM Control</text><text fill="#000000" font-family="sans-serif" font-size="14" lengthAdjust="spacing" textLength="138.8721" x="136.0444" y="112.0293">(button/input/select)</text></g><g class="participant participant-tail" data-participant="DOM"><rect fill="#E2E2F0" height="52.1309" rx="2.5" ry="2.5" style="stroke:#181818;stroke-width:0.5;" width="152.8721" x="129.0444" y="1272.6372"/><text fill="#000000" font-family="sans-serif" font-size="14" lengthAdjust="spacing" textLength="86.3721" x="162.2944" y="1294.6011">DOM Control</text><text fill="#000000" font-family="sans-serif" font-size="14" lengthAdjust="spacing" textLength="138.8721" x="136.0444" y="1313.6665">(button/input/select)</text></g><g class="participant participant-head" data-participant="BRIDGE"><rect fill="#E2E2F0" height="71.1963" rx="2.5" ry="2.5" style="stroke:#181818;stroke-width:0.5;" width="100.0918" x="353.0566" y="51.9346"/><text fill="#000000" font-family="sans-serif" font-size="14" lengthAdjust="spacing" textLength="83.7471" x="361.229" y="73.8984">Event Bridge</text><text fill="#000000" font-family="sans-serif" font-size="14" lengthAdjust="spacing" textLength="70.7109" x="367.7471" y="92.9639">ixsl:onclick</text><text fill="#000000" font-family="sans-serif" font-size="14" lengthAdjust="spacing" textLength="86.0918" x="360.0566" y="112.0293">DOMActivate</text></g><g class="participant participant-tail" data-participant="BRIDGE"><rect fill="#E2E2F0" height="71.1963" rx="2.5" ry="2.5" style="stroke:#181818;stroke-width:0.5;" width="100.0918" x="353.0566" y="1272.6372"/><text fill="#000000" font-family="sans-serif" font-size="14" lengthAdjust="spacing" textLength="83.7471" x="361.229" y="1294.6011">Event Bridge</text><text fill="#000000" font-family="sans-serif" font-size="14" lengthAdjust="spacing" textLength="70.7109" x="367.7471" y="1313.6665">ixsl:onclick</text><text fill="#000000" font-family="sans-serif" font-size="14" lengthAdjust="spacing" textLength="86.0918" x="360.0566" y="1332.7319">DOMActivate</text></g><g class="participant participant-head" data-participant="DISPATCHER"><rect fill="#E2E2F0" height="52.1309" rx="2.5" ry="2.5" style="stroke:#181818;stroke-width:0.5;" width="130.1973" x="557.8428" y="71"/><text fill="#000000" font-family="sans-serif" font-size="14" lengthAdjust="spacing" textLength="116.1973" x="564.8428" y="92.9639">Action Dispatcher</text><text fill="#000000" font-family="sans-serif" font-size="14" lengthAdjust="spacing" textLength="83.9863" x="580.9482" y="112.0293">applyActions</text></g><g class="participant participant-tail" data-participant="DISPATCHER"><rect fill="#E2E2F0" height="52.1309" rx="2.5" ry="2.5" style="stroke:#181818;stroke-width:0.5;" width="130.1973" x="557.8428" y="1272.6372"/><text fill="#000000" font-family="sans-serif" font-size="14" lengthAdjust="spacing" textLength="116.1973" x="564.8428" y="1294.6011">Action Dispatcher</text><text fill="#000000" font-family="sans-serif" font-size="14" lengthAdjust="spacing" textLength="83.9863" x="580.9482" y="1313.6665">applyActions</text></g><g class="participant participant-head" data-participant="HANDLER"><rect fill="#E2E2F0" height="71.1963" rx="2.5" ry="2.5" style="stroke:#181818;stroke-width:0.5;" width="184.1123" x="746.1895" y="51.9346"/><text fill="#000000" font-family="sans-serif" font-size="14" lengthAdjust="spacing" textLength="92.9209" x="791.7852" y="73.8984">Event Handler</text><text fill="#000000" font-family="sans-serif" font-size="14" lengthAdjust="spacing" textLength="170.1123" x="753.1895" y="92.9639">outermost-action-handler</text><text fill="#000000" font-family="sans-serif" font-size="14" lengthAdjust="spacing" textLength="143.459" x="766.5161" y="112.0293">xforms-event-handler</text></g><g class="participant participant-tail" data-participant="HANDLER"><rect fill="#E2E2F0" height="71.1963" rx="2.5" ry="2.5" style="stroke:#181818;stroke-width:0.5;" width="184.1123" x="746.1895" y="1272.6372"/><text fill="#000000" font-family="sans-serif" font-size="14" lengthAdjust="spacing" textLength="92.9209" x="791.7852" y="1294.6011">Event Handler</text><text fill="#000000" font-family="sans-serif" font-size="14" lengthAdjust="spacing" textLength="170.1123" x="753.1895" y="1313.6665">outermost-action-handler</text><text fill="#000000" font-family="sans-serif" font-size="14" lengthAdjust="spacing" textLength="143.459" x="766.5161" y="1332.7319">xforms-event-handler</text></g><g class="participant participant-head" data-participant="ACTIONS"><rect fill="#E2E2F0" height="52.1309" rx="2.5" ry="2.5" style="stroke:#181818;stroke-width:0.5;" width="186.7646" x="940.3018" y="71"/><text fill="#000000" font-family="sans-serif" font-size="14" lengthAdjust="spacing" textLength="113.5928" x="976.8877" y="92.9639">Action Templates</text><text fill="#000000" font-family="sans-serif" font-size="14" lengthAdjust="spacing" textLength="172.7646" x="947.3018" y="112.0293">action-* named templates</text></g><g class="participant participant-tail" data-participant="ACTIONS"><rect fill="#E2E2F0" height="52.1309" rx="2.5" ry="2.5" style="stroke:#181818;stroke-width:0.5;" width="186.7646" x="940.3018" y="1272.6372"/><text fill="#000000" font-family="sans-serif" font-size="14" lengthAdjust="spacing" textLength="113.5928" x="976.8877" y="1294.6011">Action Templates</text><text fill="#000000" font-family="sans-serif" font-size="14" lengthAdjust="spacing" textLength="172.7646" x="947.3018" y="1313.6665">action-* named templates</text></g><g class="participant participant-head" data-participant="RUNTIME"><rect fill="#E2E2F0" height="33.0654" rx="2.5" ry="2.5" style="stroke:#181818;stroke-width:0.5;" width="161.8887" x="1139.3105" y="90.0654"/><text fill="#000000" font-family="sans-serif" font-size="14" lengthAdjust="spacing" textLength="147.8887" x="1146.3105" y="112.0293">SaxonJS/XSLT Runtime</text></g><g class="participant participant-tail" data-participant="RUNTIME"><rect fill="#E2E2F0" height="33.0654" rx="2.5" ry="2.5" style="stroke:#181818;stroke-width:0.5;" width="161.8887" x="1139.3105" y="1272.6372"/><text fill="#000000" font-family="sans-serif" font-size="14" lengthAdjust="spacing" textLength="147.8887" x="1146.3105" y="1294.6011">SaxonJS/XSLT Runtime</text></g><g class="participant participant-head" data-participant="MODEL"><text fill="#000000" font-family="sans-serif" font-size="14" lengthAdjust="spacing" textLength="78.4629" x="1411.9795" y="120.0293">Model State</text><path d="M1436.2109,69.0654 C1436.2109,59.0654 1454.2109,59.0654 1454.2109,59.0654 C1454.2109,59.0654 1472.2109,59.0654 1472.2109,69.0654 L1472.2109,95.0654 C1472.2109,105.0654 1454.2109,105.0654 1454.2109,105.0654 C1454.2109,105.0654 1436.2109,105.0654 1436.2109,95.0654 L1436.2109,69.0654" fill="#E2E2F0" style="stroke:#181818;stroke-width:0.5;"/><path d="M1436.2109,69.0654 C1436.2109,79.0654 1454.2109,79.0654 1454.2109,79.0654 C1454.2109,79.0654 1472.2109,79.0654 1472.2109,69.0654" fill="none" style="stroke:#181818;stroke-width:0.5;"/></g><g class="participant participant-tail" data-participant="MODEL"><text fill="#000000" font-family="sans-serif" font-size="14" lengthAdjust="spacing" textLength="78.4629" x="1411.9795" y="1287.6011">Model State</text><path d="M1436.2109,1301.7026 C1436.2109,1291.7026 1454.2109,1291.7026 1454.2109,1291.7026 C1454.2109,1291.7026 1472.2109,1291.7026 1472.2109,1301.7026 L1472.2109,1327.7026 C1472.2109,1337.7026 1454.2109,1337.7026 1454.2109,1337.7026 C1454.2109,1337.7026 1436.2109,1337.7026 1436.2109,1327.7026 L1436.2109,1301.7026" fill="#E2E2F0" style="stroke:#181818;stroke-width:0.5;"/><path d="M1436.2109,1301.7026 C1436.2109,1311.7026 1454.2109,1311.7026 1454.2109,1311.7026 C1454.2109,1311.7026 1472.2109,1311.7026 1472.2109,1301.7026" fill="none" style="stroke:#181818;stroke-width:0.5;"/></g><g class="message" data-participant-1="USER" data-participant-2="DOM"><polygon fill="#181818" points="193.4805,153.8345,203.4805,157.8345,193.4805,161.8345,197.4805,157.8345" style="stroke:#181818;stroke-width:1;"/><line style="stroke:#181818;stroke-width:1;" x1="37.6543" x2="199.4805" y1="157.8345" y2="157.8345"/><text fill="#000000" font-family="sans-serif" font-size="13" font-weight="bold" lengthAdjust="spacing" textLength="7.1602" x="44.6543" y="152.0259">1</text><text fill="#000000" font-family="sans-serif" font-size="13" lengthAdjust="spacing" textLength="132.666" x="55.8145" y="152.0259">click / change / keyup</text></g><g class="message" data-participant-1="DOM" data-participant-2="BRIDGE"><polygon fill="#181818" points="391.1025,185.5381,401.1025,189.5381,391.1025,193.5381,395.1025,189.5381" style="stroke:#181818;stroke-width:1;"/><line style="stroke:#181818;stroke-width:1;" x1="205.4805" x2="397.1025" y1="189.5381" y2="189.5381"/><text fill="#000000" font-family="sans-serif" font-size="13" font-weight="bold" lengthAdjust="spacing" textLength="7.1602" x="212.4805" y="183.7295">2</text><text fill="#000000" font-family="sans-serif" font-size="13" lengthAdjust="spacing" textLength="162.4619" x="223.6406" y="183.7295">ixsl:onclick / ixsl:onchange</text></g><g class="message" data-participant-1="BRIDGE" data-participant-2="DISPATCHER"><polygon fill="#181818" points="610.9414,234.9453,620.9414,238.9453,610.9414,242.9453,614.9414,238.9453" style="stroke:#181818;stroke-width:1;"/><line style="stroke:#181818;stroke-width:1;" x1="403.1025" x2="616.9414" y1="238.9453" y2="238.9453"/><text fill="#000000" font-family="sans-serif" font-size="13" font-weight="bold" lengthAdjust="spacing" textLength="7.1602" x="410.1025" y="224.2849">3</text><text fill="#000000" font-family="sans-serif" font-size="13" lengthAdjust="spacing" textLength="87.1787" x="421.2627" y="215.4331">applyActions()</text><text fill="#000000" font-family="sans-serif" font-size="13" lengthAdjust="spacing" textLength="184.6787" x="421.2627" y="233.1367">resolve action-map for control</text></g><g class="message" data-participant-1="DISPATCHER" data-participant-2="DISPATCHER"><line style="stroke:#181818;stroke-width:1;" x1="622.9414" x2="664.9414" y1="288.3525" y2="288.3525"/><line style="stroke:#181818;stroke-width:1;" x1="664.9414" x2="664.9414" y1="288.3525" y2="301.3525"/><line style="stroke:#181818;stroke-width:1;" x1="623.9414" x2="664.9414" y1="301.3525" y2="301.3525"/><polygon fill="#181818" points="633.9414,297.3525,623.9414,301.3525,633.9414,305.3525,629.9414,301.3525" style="stroke:#181818;stroke-width:1;"/><text fill="#000000" font-family="sans-serif" font-size="13" font-weight="bold" lengthAdjust="spacing" textLength="7.1602" x="629.9414" y="273.6921">4</text><text fill="#000000" font-family="sans-serif" font-size="13" lengthAdjust="spacing" textLength="168.7715" x="641.1016" y="264.8403">get-matching-event-actions</text><text fill="#000000" font-family="sans-serif" font-size="13" lengthAdjust="spacing" textLength="190.144" x="641.1016" y="282.5439">filter by event name + observer</text></g><g class="message" data-participant-1="DISPATCHER" data-participant-2="HANDLER"><polygon fill="#181818" points="826.2456,346.7598,836.2456,350.7598,826.2456,354.7598,830.2456,350.7598" style="stroke:#181818;stroke-width:1;"/><line style="stroke:#181818;stroke-width:1;" x1="622.9414" x2="832.2456" y1="350.7598" y2="350.7598"/><text fill="#000000" font-family="sans-serif" font-size="13" font-weight="bold" lengthAdjust="spacing" textLength="7.1602" x="629.9414" y="336.0994">5</text><text fill="#000000" font-family="sans-serif" font-size="13" lengthAdjust="spacing" textLength="157.9614" x="641.1016" y="327.2476">outermost-action-handler</text><text fill="#000000" font-family="sans-serif" font-size="13" lengthAdjust="spacing" textLength="175.8047" x="641.1016" y="344.9512">check if/while/iterate guards</text></g><path d="M109.0444,365.7598 L182.3359,365.7598 L182.3359,375.4634 L172.3359,385.4634 L109.0444,385.4634 L109.0444,365.7598" fill="#EEEEEE" style="stroke:#000000;stroke-width:1.5;"/><rect fill="none" height="809.7666" style="stroke:#000000;stroke-width:1.5;" width="1407.3979" x="109.0444" y="365.7598"/><text fill="#000000" font-family="sans-serif" font-size="13" font-weight="bold" lengthAdjust="spacing" textLength="28.2915" x="124.0444" y="380.6548">loop</text><text fill="#000000" font-family="sans-serif" font-size="11" font-weight="bold" lengthAdjust="spacing" textLength="146.3623" x="197.3359" y="379.5171">[for each matching action]</text><g class="message" data-participant-1="HANDLER" data-participant-2="HANDLER"><line style="stroke:#181818;stroke-width:1;" x1="838.2456" x2="880.2456" y1="444.5742" y2="444.5742"/><line style="stroke:#181818;stroke-width:1;" x1="880.2456" x2="880.2456" y1="444.5742" y2="457.5742"/><line style="stroke:#181818;stroke-width:1;" x1="839.2456" x2="880.2456" y1="457.5742" y2="457.5742"/><polygon fill="#181818" points="849.2456,453.5742,839.2456,457.5742,849.2456,461.5742,845.2456,457.5742" style="stroke:#181818;stroke-width:1;"/><text fill="#000000" font-family="sans-serif" font-size="13" font-weight="bold" lengthAdjust="spacing" textLength="7.1602" x="845.2456" y="421.062">6</text><text fill="#000000" font-family="sans-serif" font-size="13" lengthAdjust="spacing" textLength="92.2568" x="856.4058" y="403.3584">getIfStatement</text><text fill="#000000" font-family="sans-serif" font-size="13" lengthAdjust="spacing" textLength="117.5396" x="856.4058" y="421.062">getWhileStatement</text><text fill="#000000" font-family="sans-serif" font-size="13" lengthAdjust="spacing" textLength="124.4902" x="856.4058" y="438.7656">getIterateStatement</text></g><path d="M119.0444,472.5742 L181.5068,472.5742 L181.5068,482.2778 L171.5068,492.2778 L119.0444,492.2778 L119.0444,472.5742" fill="#EEEEEE" style="stroke:#000000;stroke-width:1.5;"/><rect fill="none" height="695.9521" style="stroke:#000000;stroke-width:1.5;" width="1387.3979" x="119.0444" y="472.5742"/><text fill="#000000" font-family="sans-serif" font-size="13" font-weight="bold" lengthAdjust="spacing" textLength="17.4624" x="134.0444" y="487.4692">alt</text><text fill="#000000" font-family="sans-serif" font-size="11" font-weight="bold" lengthAdjust="spacing" textLength="101.7607" x="196.5068" y="486.3315">[action = setvalue]</text><g class="message" data-participant-1="HANDLER" data-participant-2="ACTIONS"><polygon fill="#181818" points="1021.6841,529.6851,1031.6841,533.6851,1021.6841,537.6851,1025.6841,533.6851" style="stroke:#181818;stroke-width:1;"/><line style="stroke:#181818;stroke-width:1;" x1="838.2456" x2="1027.6841" y1="533.6851" y2="533.6851"/><text fill="#000000" font-family="sans-serif" font-size="13" font-weight="bold" lengthAdjust="spacing" textLength="7.1602" x="845.2456" y="519.0247">7</text><text fill="#000000" font-family="sans-serif" font-size="13" lengthAdjust="spacing" textLength="92.7583" x="856.4058" y="510.1729">action-setvalue</text><text fill="#000000" font-family="sans-serif" font-size="13" lengthAdjust="spacing" textLength="129.3018" x="856.4058" y="527.8765">action-setvalue-inner</text></g><g class="message" data-participant-1="ACTIONS" data-participant-2="MODEL"><polygon fill="#181818" points="1442.2109,561.3887,1452.2109,565.3887,1442.2109,569.3887,1446.2109,565.3887" style="stroke:#181818;stroke-width:1;"/><line style="stroke:#181818;stroke-width:1;" x1="1033.6841" x2="1448.2109" y1="565.3887" y2="565.3887"/><text fill="#000000" font-family="sans-serif" font-size="13" font-weight="bold" lengthAdjust="spacing" textLength="7.1602" x="1040.6841" y="559.5801">8</text><text fill="#000000" font-family="sans-serif" font-size="13" lengthAdjust="spacing" textLength="198.3833" x="1051.8442" y="559.5801">evaluate + update instance node</text></g><g class="message" data-participant-1="ACTIONS" data-participant-2="DOM"><polygon fill="#181818" points="216.4805,593.0923,206.4805,597.0923,216.4805,601.0923,212.4805,597.0923" style="stroke:#181818;stroke-width:1;"/><line style="stroke:#181818;stroke-width:1;" x1="210.4805" x2="1032.6841" y1="597.0923" y2="597.0923"/><text fill="#000000" font-family="sans-serif" font-size="13" font-weight="bold" lengthAdjust="spacing" textLength="7.1602" x="222.4805" y="591.2837">9</text><text fill="#000000" font-family="sans-serif" font-size="13" lengthAdjust="spacing" textLength="174.8779" x="233.6406" y="591.2837">action-setvalue-form-control</text></g><line style="stroke:#000000;stroke-width:1;stroke-dasharray:2,2;" x1="119.0444" x2="1506.4424" y1="606.0923" y2="606.0923"/><text fill="#000000" font-family="sans-serif" font-size="11" font-weight="bold" lengthAdjust="spacing" textLength="87.3555" x="124.0444" y="617.8496">[action = insert]</text><g class="message" data-participant-1="HANDLER" data-participant-2="ACTIONS"><polygon fill="#181818" points="1021.6841,641.7759,1031.6841,645.7759,1021.6841,649.7759,1025.6841,645.7759" style="stroke:#181818;stroke-width:1;"/><line style="stroke:#181818;stroke-width:1;" x1="838.2456" x2="1027.6841" y1="645.7759" y2="645.7759"/><text fill="#000000" font-family="sans-serif" font-size="13" font-weight="bold" lengthAdjust="spacing" textLength="14.3203" x="845.2456" y="639.9673">10</text><text fill="#000000" font-family="sans-serif" font-size="13" lengthAdjust="spacing" textLength="76.9019" x="863.5659" y="639.9673">action-insert</text></g><g class="message" data-participant-1="ACTIONS" data-participant-2="MODEL"><polygon fill="#181818" points="1442.2109,673.4795,1452.2109,677.4795,1442.2109,681.4795,1446.2109,677.4795" style="stroke:#181818;stroke-width:1;"/><line style="stroke:#181818;stroke-width:1;" x1="1033.6841" x2="1448.2109" y1="677.4795" y2="677.4795"/><text fill="#000000" font-family="sans-serif" font-size="13" font-weight="bold" lengthAdjust="spacing" textLength="14.3203" x="1040.6841" y="671.6709">11</text><text fill="#000000" font-family="sans-serif" font-size="13" lengthAdjust="spacing" textLength="116.3525" x="1059.0044" y="671.6709">clone + insert node</text></g><g class="message" data-participant-1="ACTIONS" data-participant-2="RUNTIME"><polygon fill="#181818" points="1208.2549,705.1831,1218.2549,709.1831,1208.2549,713.1831,1212.2549,709.1831" style="stroke:#181818;stroke-width:1;"/><line style="stroke:#181818;stroke-width:1;" x1="1033.6841" x2="1214.2549" y1="709.1831" y2="709.1831"/><text fill="#000000" font-family="sans-serif" font-size="13" font-weight="bold" lengthAdjust="spacing" textLength="14.3203" x="1040.6841" y="703.3745">12</text><text fill="#000000" font-family="sans-serif" font-size="13" lengthAdjust="spacing" textLength="113.915" x="1059.0044" y="703.3745">xforms-recalculate</text></g><line style="stroke:#000000;stroke-width:1;stroke-dasharray:2,2;" x1="119.0444" x2="1506.4424" y1="718.1831" y2="718.1831"/><text fill="#000000" font-family="sans-serif" font-size="11" font-weight="bold" lengthAdjust="spacing" textLength="89.6221" x="124.0444" y="729.9404">[action = delete]</text><g class="message" data-participant-1="HANDLER" data-participant-2="ACTIONS"><polygon fill="#181818" points="1021.6841,753.8667,1031.6841,757.8667,1021.6841,761.8667,1025.6841,757.8667" style="stroke:#181818;stroke-width:1;"/><line style="stroke:#181818;stroke-width:1;" x1="838.2456" x2="1027.6841" y1="757.8667" y2="757.8667"/><text fill="#000000" font-family="sans-serif" font-size="13" font-weight="bold" lengthAdjust="spacing" textLength="14.3203" x="845.2456" y="752.0581">13</text><text fill="#000000" font-family="sans-serif" font-size="13" lengthAdjust="spacing" textLength="79.9297" x="863.5659" y="752.0581">action-delete</text></g><g class="message" data-participant-1="ACTIONS" data-participant-2="MODEL"><polygon fill="#181818" points="1442.2109,785.5703,1452.2109,789.5703,1442.2109,793.5703,1446.2109,789.5703" style="stroke:#181818;stroke-width:1;"/><line style="stroke:#181818;stroke-width:1;" x1="1033.6841" x2="1448.2109" y1="789.5703" y2="789.5703"/><text fill="#000000" font-family="sans-serif" font-size="13" font-weight="bold" lengthAdjust="spacing" textLength="14.3203" x="1040.6841" y="783.7617">14</text><text fill="#000000" font-family="sans-serif" font-size="13" lengthAdjust="spacing" textLength="96.6812" x="1059.0044" y="783.7617">remove node(s)</text></g><g class="message" data-participant-1="ACTIONS" data-participant-2="RUNTIME"><polygon fill="#181818" points="1208.2549,817.2739,1218.2549,821.2739,1208.2549,825.2739,1212.2549,821.2739" style="stroke:#181818;stroke-width:1;"/><line style="stroke:#181818;stroke-width:1;" x1="1033.6841" x2="1214.2549" y1="821.2739" y2="821.2739"/><text fill="#000000" font-family="sans-serif" font-size="13" font-weight="bold" lengthAdjust="spacing" textLength="14.3203" x="1040.6841" y="815.4653">15</text><text fill="#000000" font-family="sans-serif" font-size="13" lengthAdjust="spacing" textLength="113.915" x="1059.0044" y="815.4653">xforms-recalculate</text></g><line style="stroke:#000000;stroke-width:1;stroke-dasharray:2,2;" x1="119.0444" x2="1506.4424" y1="830.2739" y2="830.2739"/><text fill="#000000" font-family="sans-serif" font-size="11" font-weight="bold" lengthAdjust="spacing" textLength="90.3955" x="124.0444" y="842.0313">[action = toggle]</text><g class="message" data-participant-1="HANDLER" data-participant-2="ACTIONS"><polygon fill="#181818" points="1021.6841,865.9575,1031.6841,869.9575,1021.6841,873.9575,1025.6841,869.9575" style="stroke:#181818;stroke-width:1;"/><line style="stroke:#181818;stroke-width:1;" x1="838.2456" x2="1027.6841" y1="869.9575" y2="869.9575"/><text fill="#000000" font-family="sans-serif" font-size="13" font-weight="bold" lengthAdjust="spacing" textLength="14.3203" x="845.2456" y="864.1489">16</text><text fill="#000000" font-family="sans-serif" font-size="13" lengthAdjust="spacing" textLength="81.1294" x="863.5659" y="864.1489">action-toggle</text></g><g class="message" data-participant-1="ACTIONS" data-participant-2="DOM"><polygon fill="#181818" points="216.4805,897.6611,206.4805,901.6611,216.4805,905.6611,212.4805,901.6611" style="stroke:#181818;stroke-width:1;"/><line style="stroke:#181818;stroke-width:1;" x1="210.4805" x2="1032.6841" y1="901.6611" y2="901.6611"/><text fill="#000000" font-family="sans-serif" font-size="13" font-weight="bold" lengthAdjust="spacing" textLength="14.3203" x="222.4805" y="895.8525">17</text><text fill="#000000" font-family="sans-serif" font-size="13" lengthAdjust="spacing" textLength="154.9463" x="240.8008" y="895.8525">show/hide case elements</text></g><line style="stroke:#000000;stroke-width:1;stroke-dasharray:2,2;" x1="119.0444" x2="1506.4424" y1="910.6611" y2="910.6611"/><text fill="#000000" font-family="sans-serif" font-size="11" font-weight="bold" lengthAdjust="spacing" textLength="102.083" x="124.0444" y="922.4185">[action = dispatch]</text><g class="message" data-participant-1="HANDLER" data-participant-2="ACTIONS"><polygon fill="#181818" points="1021.6841,946.3447,1031.6841,950.3447,1021.6841,954.3447,1025.6841,950.3447" style="stroke:#181818;stroke-width:1;"/><line style="stroke:#181818;stroke-width:1;" x1="838.2456" x2="1027.6841" y1="950.3447" y2="950.3447"/><text fill="#000000" font-family="sans-serif" font-size="13" font-weight="bold" lengthAdjust="spacing" textLength="14.3203" x="845.2456" y="944.5361">18</text><text fill="#000000" font-family="sans-serif" font-size="13" lengthAdjust="spacing" textLength="93.7295" x="863.5659" y="944.5361">action-dispatch</text></g><g class="message" data-participant-1="ACTIONS" data-participant-2="DISPATCHER"><polygon fill="#181818" points="633.9414,978.0483,623.9414,982.0483,633.9414,986.0483,629.9414,982.0483" style="stroke:#181818;stroke-width:1;"/><line style="stroke:#181818;stroke-width:1;" x1="627.9414" x2="1032.6841" y1="982.0483" y2="982.0483"/><text fill="#000000" font-family="sans-serif" font-size="13" font-weight="bold" lengthAdjust="spacing" textLength="14.3203" x="639.9414" y="976.2397">19</text><text fill="#000000" font-family="sans-serif" font-size="13" lengthAdjust="spacing" textLength="137.2236" x="658.2617" y="976.2397">recursive applyActions</text></g><line style="stroke:#000000;stroke-width:1;stroke-dasharray:2,2;" x1="119.0444" x2="1506.4424" y1="991.0483" y2="991.0483"/><text fill="#000000" font-family="sans-serif" font-size="11" font-weight="bold" lengthAdjust="spacing" textLength="81.1895" x="124.0444" y="1002.8057">[action = send]</text><g class="message" data-participant-1="HANDLER" data-participant-2="ACTIONS"><polygon fill="#181818" points="1021.6841,1026.7319,1031.6841,1030.7319,1021.6841,1034.7319,1025.6841,1030.7319" style="stroke:#181818;stroke-width:1;"/><line style="stroke:#181818;stroke-width:1;" x1="838.2456" x2="1027.6841" y1="1030.7319" y2="1030.7319"/><text fill="#000000" font-family="sans-serif" font-size="13" font-weight="bold" lengthAdjust="spacing" textLength="14.3203" x="845.2456" y="1024.9233">20</text><text fill="#000000" font-family="sans-serif" font-size="13" lengthAdjust="spacing" textLength="71.4873" x="863.5659" y="1024.9233">action-send</text></g><g class="message" data-participant-1="ACTIONS" data-participant-2="RUNTIME"><polygon fill="#181818" points="1208.2549,1058.4355,1218.2549,1062.4355,1208.2549,1066.4355,1212.2549,1062.4355" style="stroke:#181818;stroke-width:1;"/><line style="stroke:#181818;stroke-width:1;" x1="1033.6841" x2="1214.2549" y1="1062.4355" y2="1062.4355"/><text fill="#000000" font-family="sans-serif" font-size="13" font-weight="bold" lengthAdjust="spacing" textLength="14.3203" x="1040.6841" y="1056.627">21</text><text fill="#000000" font-family="sans-serif" font-size="13" lengthAdjust="spacing" textLength="144.2505" x="1059.0044" y="1056.627">trigger submission flow</text></g><line style="stroke:#000000;stroke-width:1;stroke-dasharray:2,2;" x1="119.0444" x2="1506.4424" y1="1071.4355" y2="1071.4355"/><text fill="#000000" font-family="sans-serif" font-size="11" font-weight="bold" lengthAdjust="spacing" textLength="120.9194" x="124.0444" y="1083.1929">[action = load / script]</text><g class="message" data-participant-1="HANDLER" data-participant-2="ACTIONS"><polygon fill="#181818" points="1021.6841,1124.8228,1031.6841,1128.8228,1021.6841,1132.8228,1025.6841,1128.8228" style="stroke:#181818;stroke-width:1;"/><line style="stroke:#181818;stroke-width:1;" x1="838.2456" x2="1027.6841" y1="1128.8228" y2="1128.8228"/><text fill="#000000" font-family="sans-serif" font-size="13" font-weight="bold" lengthAdjust="spacing" textLength="14.3203" x="845.2456" y="1114.1624">22</text><text fill="#000000" font-family="sans-serif" font-size="13" lengthAdjust="spacing" textLength="68.4023" x="863.5659" y="1105.3105">action-load</text><text fill="#000000" font-family="sans-serif" font-size="13" lengthAdjust="spacing" textLength="92.3838" x="863.5659" y="1123.0142">or action-script</text></g><g class="message" data-participant-1="ACTIONS" data-participant-2="DOM"><polygon fill="#181818" points="216.4805,1156.5264,206.4805,1160.5264,216.4805,1164.5264,212.4805,1160.5264" style="stroke:#181818;stroke-width:1;"/><line style="stroke:#181818;stroke-width:1;" x1="210.4805" x2="1032.6841" y1="1160.5264" y2="1160.5264"/><text fill="#000000" font-family="sans-serif" font-size="13" font-weight="bold" lengthAdjust="spacing" textLength="14.3203" x="222.4805" y="1154.7178">23</text><text fill="#000000" font-family="sans-serif" font-size="13" lengthAdjust="spacing" textLength="133.377" x="240.8008" y="1154.7178">JS eval / window.open</text></g><g class="message" data-participant-1="RUNTIME" data-participant-2="MODEL"><polygon fill="#181818" points="1442.2109,1219.9336,1452.2109,1223.9336,1442.2109,1227.9336,1446.2109,1223.9336" style="stroke:#181818;stroke-width:1;"/><line style="stroke:#181818;stroke-width:1;" x1="1220.2549" x2="1448.2109" y1="1223.9336" y2="1223.9336"/><text fill="#000000" font-family="sans-serif" font-size="13" font-weight="bold" lengthAdjust="spacing" textLength="14.3203" x="1227.2549" y="1209.2732">24</text><text fill="#000000" font-family="sans-serif" font-size="13" lengthAdjust="spacing" textLength="133.0977" x="1245.5752" y="1200.4214">deferred update cycle</text><text fill="#000000" font-family="sans-serif" font-size="13" lengthAdjust="spacing" textLength="191.6357" x="1245.5752" y="1218.125">(recalculate/revalidate/refresh)</text></g><g class="message" data-participant-1="RUNTIME" data-participant-2="DOM"><polygon fill="#181818" points="216.4805,1251.6372,206.4805,1255.6372,216.4805,1259.6372,212.4805,1255.6372" style="stroke:#181818;stroke-width:1;"/><line style="stroke:#181818;stroke-width:1;" x1="210.4805" x2="1219.2549" y1="1255.6372" y2="1255.6372"/><text fill="#000000" font-family="sans-serif" font-size="13" font-weight="bold" lengthAdjust="spacing" textLength="14.3203" x="222.4805" y="1249.8286">25</text><text fill="#000000" font-family="sans-serif" font-size="13" lengthAdjust="spacing" textLength="91.5269" x="240.8008" y="1249.8286">xforms-refresh</text></g></g></svg>