<svg xmlns="http://www.w3.org/2000/svg" xmlns:xlink="http://www.w3.org/1999/xlink" contentStyleType="text/css" data-diagram-type="SEQUENCE" height="1630px" preserveAspectRatio="none" style="width:1590px;height:1630px;background:#FFFFFF;" version="1.1" viewBox="0 0 1590 1630" width="1590px" zoomAndPan="magnify"><title>Processing model sequence (construct -&gt; ready -&gt; interaction cycle)</title><defs/><g><text fill="#000000" font-family="sans-serif" font-size="14" font-weight="bold" lengthAdjust="spacing" textLength="471.5088" x="555.7454" y="29.9639">Processing model sequence (construct -&gt; ready -&gt; interaction cycle)</text><g><title>End User</title><rect fill="#000000" fill-opacity="0.00000" height="1400.7734" width="8" x="33.6543" y="129.1963"/><line style="stroke:#181818;stroke-width:0.5;stroke-dasharray:5,5;" x1="37" x2="37" y1="129.1963" y2="1529.9697"/></g><g><title>DOM</title><rect fill="#000000" fill-opacity="0.00000" height="1400.7734" width="8" x="277.7983" y="129.1963"/><line style="stroke:#181818;stroke-width:0.5;stroke-dasharray:5,5;" x1="280.8726" x2="280.8726" y1="129.1963" y2="1529.9697"/></g><g><title>Event Bridge</title><rect fill="#000000" fill-opacity="0.00000" height="1400.7734" width="8" x="479.2036" y="129.1963"/><line style="stroke:#181818;stroke-width:0.5;stroke-dasharray:5,5;" x1="483.1123" x2="483.1123" y1="129.1963" y2="1529.9697"/></g><g><title>Action Dispatcher</title><rect fill="#000000" fill-opacity="0.00000" height="1400.7734" width="8" x="717.9854" y="129.1963"/><line style="stroke:#181818;stroke-width:0.5;stroke-dasharray:5,5;" x1="721.2949" x2="721.2949" y1="129.1963" y2="1529.9697"/></g><g><title>SaxonJS.XSLT Runtime</title><rect fill="#000000" fill-opacity="0.00000" height="1400.7734" width="8" x="991.9063" y="129.1963"/><line style="stroke:#181818;stroke-width:0.5;stroke-dasharray:5,5;" x1="994.9619" x2="994.9619" y1="129.1963" y2="1529.9697"/></g><g><title>Model State</title><rect fill="#000000" fill-opacity="0.00000" height="1400.7734" width="8" x="1251.2402" y="129.1963"/><line style="stroke:#181818;stroke-width:0.5;stroke-dasharray:5,5;" x1="1254.8198" x2="1254.8198" y1="129.1963" y2="1529.9697"/></g><g><title>Validation MIP Registry</title><rect fill="#000000" fill-opacity="0.00000" height="1400.7734" width="8" x="1458.3301" y="129.1963"/><line style="stroke:#181818;stroke-width:0.5;stroke-dasharray:5,5;" x1="1461.6606" x2="1461.6606" y1="129.1963" y2="1529.9697"/></g><g class="participant participant-head" data-participant="USER"><text fill="#000000" font-family="sans-serif" font-size="14" lengthAdjust="spacing" textLength="59.3086" x="5" y="125.0947">End User</text><ellipse cx="37.6543" cy="58.6309" fill="#E2E2F0" rx="8" ry="8" style="stroke:#181818;stroke-width:0.5;"/><path d="M37.6543,66.6309 L37.6543,93.6309 M24.6543,74.6309 L50.6543,74.6309 M37.6543,93.6309 L24.6543,108.6309 M37.6543,93.6309 L50.6543,108.6309" fill="none" style="stroke:#181818;stroke-width:0.5;"/></g><g class="participant participant-tail" data-participant="USER"><text fill="#000000" font-family="sans-serif" font-size="14" lengthAdjust="spacing" textLength="59.3086" x="5" y="1543.9336">End User</text><ellipse cx="37.6543" cy="1556.5352" fill="#E2E2F0" rx="8" ry="8" style="stroke:#181818;stroke-width:0.5;"/><path d="M37.6543,1564.5352 L37.6543,1591.5352 M24.6543,1572.5352 L50.6543,1572.5352 M37.6543,1591.5352 L24.6543,1606.5352 M37.6543,1591.5352 L50.6543,1606.5352" fill="none" style="stroke:#181818;stroke-width:0.5;"/></g><g class="participant participant-head" data-participant="DOM"><rect fill="#E2E2F0" height="33.0654" rx="2.5" ry="2.5" style="stroke:#181818;stroke-width:0.5;" width="47.8516" x="257.8726" y="95.1309"/><text fill="#000000" font-family="sans-serif" font-size="14" lengthAdjust="spacing" textLength="33.8516" x="264.8726" y="117.0947">DOM</text></g><g class="participant participant-tail" data-participant="DOM"><rect fill="#E2E2F0" height="33.0654" rx="2.5" ry="2.5" style="stroke:#181818;stroke-width:0.5;" width="47.8516" x="257.8726" y="1528.9697"/><text fill="#000000" font-family="sans-serif" font-size="14" lengthAdjust="spacing" textLength="33.8516" x="264.8726" y="1550.9336">DOM</text></g><g class="participant participant-head" data-participant="BRIDGE"><rect fill="#E2E2F0" height="52.1309" rx="2.5" ry="2.5" style="stroke:#181818;stroke-width:0.5;" width="176.1826" x="395.1123" y="76.0654"/><text fill="#000000" font-family="sans-serif" font-size="14" lengthAdjust="spacing" textLength="83.7471" x="441.3301" y="98.0293">Event Bridge</text><text fill="#000000" font-family="sans-serif" font-size="14" lengthAdjust="spacing" textLength="162.1826" x="402.1123" y="117.0947">ixsl:on* mode templates</text></g><g class="participant participant-tail" data-participant="BRIDGE"><rect fill="#E2E2F0" height="52.1309" rx="2.5" ry="2.5" style="stroke:#181818;stroke-width:0.5;" width="176.1826" x="395.1123" y="1528.9697"/><text fill="#000000" font-family="sans-serif" font-size="14" lengthAdjust="spacing" textLength="83.7471" x="441.3301" y="1550.9336">Event Bridge</text><text fill="#000000" font-family="sans-serif" font-size="14" lengthAdjust="spacing" textLength="162.1826" x="402.1123" y="1569.999">ixsl:on* mode templates</text></g><g class="participant participant-head" data-participant="ACTIONS"><rect fill="#E2E2F0" height="52.1309" rx="2.5" ry="2.5" style="stroke:#181818;stroke-width:0.5;" width="281.3809" x="581.2949" y="76.0654"/><text fill="#000000" font-family="sans-serif" font-size="14" lengthAdjust="spacing" textLength="116.1973" x="663.8867" y="98.0293">Action Dispatcher</text><text fill="#000000" font-family="sans-serif" font-size="14" lengthAdjust="spacing" textLength="267.3809" x="588.2949" y="117.0947">applyActions / outermost-action-handler</text></g><g class="participant participant-tail" data-participant="ACTIONS"><rect fill="#E2E2F0" height="52.1309" rx="2.5" ry="2.5" style="stroke:#181818;stroke-width:0.5;" width="281.3809" x="581.2949" y="1528.9697"/><text fill="#000000" font-family="sans-serif" font-size="14" lengthAdjust="spacing" textLength="116.1973" x="663.8867" y="1550.9336">Action Dispatcher</text><text fill="#000000" font-family="sans-serif" font-size="14" lengthAdjust="spacing" textLength="267.3809" x="588.2949" y="1569.999">applyActions / outermost-action-handler</text></g><g class="participant participant-head" data-participant="RUNTIME"><rect fill="#E2E2F0" height="52.1309" rx="2.5" ry="2.5" style="stroke:#181818;stroke-width:0.5;" width="161.8887" x="914.9619" y="76.0654"/><text fill="#000000" font-family="sans-serif" font-size="14" lengthAdjust="spacing" textLength="147.8887" x="921.9619" y="98.0293">SaxonJS/XSLT Runtime</text><text fill="#000000" font-family="sans-serif" font-size="14" lengthAdjust="spacing" textLength="111.5898" x="940.1113" y="117.0947">saxon-xforms.xsl</text></g><g class="participant participant-tail" data-participant="RUNTIME"><rect fill="#E2E2F0" height="52.1309" rx="2.5" ry="2.5" style="stroke:#181818;stroke-width:0.5;" width="161.8887" x="914.9619" y="1528.9697"/><text fill="#000000" font-family="sans-serif" font-size="14" lengthAdjust="spacing" textLength="147.8887" x="921.9619" y="1550.9336">SaxonJS/XSLT Runtime</text><text fill="#000000" font-family="sans-serif" font-size="14" lengthAdjust="spacing" textLength="111.5898" x="940.1113" y="1569.999">saxon-xforms.xsl</text></g><g class="participant participant-head" data-participant="MODEL"><text fill="#000000" font-family="sans-serif" font-size="14" lengthAdjust="spacing" textLength="78.4629" x="1213.0088" y="106.0293">Model State</text><text fill="#000000" font-family="sans-serif" font-size="14" lengthAdjust="spacing" textLength="154.8408" x="1174.8198" y="125.0947">(instances, binds, MIPs)</text><path d="M1237.2402,55.0654 C1237.2402,45.0654 1255.2402,45.0654 1255.2402,45.0654 C1255.2402,45.0654 1273.2402,45.0654 1273.2402,55.0654 L1273.2402,81.0654 C1273.2402,91.0654 1255.2402,91.0654 1255.2402,91.0654 C1255.2402,91.0654 1237.2402,91.0654 1237.2402,81.0654 L1237.2402,55.0654" fill="#E2E2F0" style="stroke:#181818;stroke-width:0.5;"/><path d="M1237.2402,55.0654 C1237.2402,65.0654 1255.2402,65.0654 1255.2402,65.0654 C1255.2402,65.0654 1273.2402,65.0654 1273.2402,55.0654" fill="none" style="stroke:#181818;stroke-width:0.5;"/></g><g class="participant participant-tail" data-participant="MODEL"><text fill="#000000" font-family="sans-serif" font-size="14" lengthAdjust="spacing" textLength="78.4629" x="1213.0088" y="1543.9336">Model State</text><text fill="#000000" font-family="sans-serif" font-size="14" lengthAdjust="spacing" textLength="154.8408" x="1174.8198" y="1562.999">(instances, binds, MIPs)</text><path d="M1237.2402,1577.1006 C1237.2402,1567.1006 1255.2402,1567.1006 1255.2402,1567.1006 C1255.2402,1567.1006 1273.2402,1567.1006 1273.2402,1577.1006 L1273.2402,1603.1006 C1273.2402,1613.1006 1255.2402,1613.1006 1255.2402,1613.1006 C1255.2402,1613.1006 1237.2402,1613.1006 1237.2402,1603.1006 L1237.2402,1577.1006" fill="#E2E2F0" style="stroke:#181818;stroke-width:0.5;"/><path d="M1237.2402,1577.1006 C1237.2402,1587.1006 1255.2402,1587.1006 1255.2402,1587.1006 C1255.2402,1587.1006 1273.2402,1587.1006 1273.2402,1577.1006" fill="none" style="stroke:#181818;stroke-width:0.5;"/></g><g class="participant participant-head" data-participant="VMIP"><rect fill="#E2E2F0" height="52.1309" style="stroke:#181818;stroke-width:0.5;" width="229.3389" x="1349.6606" y="72.0654"/><rect fill="#E2E2F0" height="52.1309" style="stroke:#181818;stroke-width:0.5;" width="229.3389" x="1345.6606" y="76.0654"/><text fill="#000000" font-family="sans-serif" font-size="14" lengthAdjust="spacing" textLength="152.4209" x="1384.1196" y="98.0293">Validation MIP Registry</text><text fill="#000000" font-family="sans-serif" font-size="14" lengthAdjust="spacing" textLength="215.3389" x="1352.6606" y="117.0947">(instanceId|ref -&gt; valid,required)</text></g><g class="participant participant-tail" data-participant="VMIP"><rect fill="#E2E2F0" height="52.1309" style="stroke:#181818;stroke-width:0.5;" width="229.3389" x="1349.6606" y="1528.9697"/><rect fill="#E2E2F0" height="52.1309" style="stroke:#181818;stroke-width:0.5;" width="229.3389" x="1345.6606" y="1532.9697"/><text fill="#000000" font-family="sans-serif" font-size="14" lengthAdjust="spacing" textLength="152.4209" x="1384.1196" y="1554.9336">Validation MIP Registry</text><text fill="#000000" font-family="sans-serif" font-size="14" lengthAdjust="spacing" textLength="215.3389" x="1352.6606" y="1573.999">(instanceId|ref -&gt; valid,required)</text></g><rect fill="#EEEEEE" height="3" style="stroke:#EEEEEE;stroke-width:1;" width="1583.9995" x="0" y="161.0481"/><line style="stroke:#000000;stroke-width:1;" x1="0" x2="1583.9995" y1="161.0481" y2="161.0481"/><line style="stroke:#000000;stroke-width:1;" x1="0" x2="1583.9995" y1="164.0481" y2="164.0481"/><rect fill="#EEEEEE" height="25.7036" style="stroke:#000000;stroke-width:2;" width="145.2505" x="719.3745" y="149.1963"/><text fill="#000000" font-family="sans-serif" font-size="13" font-weight="bold" lengthAdjust="spacing" textLength="127.8735" x="725.3745" y="167.0913">Model Construction</text><g class="message" data-participant-1="RUNTIME" data-participant-2="RUNTIME"><line style="stroke:#181818;stroke-width:1;" x1="995.9063" x2="1037.9063" y1="226.3071" y2="226.3071"/><line style="stroke:#181818;stroke-width:1;" x1="1037.9063" x2="1037.9063" y1="226.3071" y2="239.3071"/><line style="stroke:#181818;stroke-width:1;" x1="996.9063" x2="1037.9063" y1="239.3071" y2="239.3071"/><polygon fill="#181818" points="1006.9063,235.3071,996.9063,239.3071,1006.9063,243.3071,1002.9063,239.3071" style="stroke:#181818;stroke-width:1;"/><text fill="#000000" font-family="sans-serif" font-size="13" font-weight="bold" lengthAdjust="spacing" textLength="7.1602" x="1002.9063" y="211.6467">1</text><text fill="#000000" font-family="sans-serif" font-size="13" lengthAdjust="spacing" textLength="87.8008" x="1014.0664" y="202.7949">xformsjs-main</text><text fill="#000000" font-family="sans-serif" font-size="13" lengthAdjust="spacing" textLength="173.3481" x="1014.0664" y="220.4985">parse xform, resolve models</text></g><g class="message" data-participant-1="RUNTIME" data-participant-2="MODEL"><polygon fill="#181818" points="1243.2402,284.7144,1253.2402,288.7144,1243.2402,292.7144,1247.2402,288.7144" style="stroke:#181818;stroke-width:1;"/><line style="stroke:#181818;stroke-width:1;" x1="995.9063" x2="1249.2402" y1="288.7144" y2="288.7144"/><text fill="#000000" font-family="sans-serif" font-size="13" font-weight="bold" lengthAdjust="spacing" textLength="7.1602" x="1002.9063" y="274.054">2</text><text fill="#000000" font-family="sans-serif" font-size="13" lengthAdjust="spacing" textLength="147.9004" x="1014.0664" y="265.2021">xforms-model-construct</text><text fill="#000000" font-family="sans-serif" font-size="13" lengthAdjust="spacing" textLength="158.5581" x="1014.0664" y="282.9058">initialize instances + binds</text></g><g class="message" data-participant-1="RUNTIME" data-participant-2="MODEL"><polygon fill="#181818" points="1243.2402,334.1216,1253.2402,338.1216,1243.2402,342.1216,1247.2402,338.1216" style="stroke:#181818;stroke-width:1;"/><line style="stroke:#181818;stroke-width:1;" x1="995.9063" x2="1249.2402" y1="338.1216" y2="338.1216"/><text fill="#000000" font-family="sans-serif" font-size="13" font-weight="bold" lengthAdjust="spacing" textLength="7.1602" x="1002.9063" y="323.4612">3</text><text fill="#000000" font-family="sans-serif" font-size="13" lengthAdjust="spacing" textLength="90.8223" x="1014.0664" y="314.6094">xforms-rebuild</text><text fill="#000000" font-family="sans-serif" font-size="13" lengthAdjust="spacing" textLength="150.1602" x="1014.0664" y="332.313">(add-context over binds)</text></g><g class="message" data-participant-1="RUNTIME" data-participant-2="MODEL"><polygon fill="#181818" points="1243.2402,383.5288,1253.2402,387.5288,1243.2402,391.5288,1247.2402,387.5288" style="stroke:#181818;stroke-width:1;"/><line style="stroke:#181818;stroke-width:1;" x1="995.9063" x2="1249.2402" y1="387.5288" y2="387.5288"/><text fill="#000000" font-family="sans-serif" font-size="13" font-weight="bold" lengthAdjust="spacing" textLength="7.1602" x="1002.9063" y="372.8684">4</text><text fill="#000000" font-family="sans-serif" font-size="13" lengthAdjust="spacing" textLength="113.915" x="1014.0664" y="364.0166">xforms-recalculate</text><text fill="#000000" font-family="sans-serif" font-size="13" lengthAdjust="spacing" textLength="224.1738" x="1014.0664" y="381.7202">evaluate calculate/relevant/readonly</text></g><g class="message" data-participant-1="RUNTIME" data-participant-2="ACTIONS"><polygon fill="#181818" points="732.9854,415.2324,722.9854,419.2324,732.9854,423.2324,728.9854,419.2324" style="stroke:#181818;stroke-width:1;"/><line style="stroke:#181818;stroke-width:1;" x1="726.9854" x2="994.9063" y1="419.2324" y2="419.2324"/><text fill="#000000" font-family="sans-serif" font-size="13" font-weight="bold" lengthAdjust="spacing" textLength="7.1602" x="738.9854" y="413.4238">5</text><text fill="#000000" font-family="sans-serif" font-size="13" lengthAdjust="spacing" textLength="203.1123" x="750.1455" y="413.4238">dispatch xforms-model-construct</text></g><g class="message" data-participant-1="RUNTIME" data-participant-2="ACTIONS"><polygon fill="#181818" points="732.9854,446.936,722.9854,450.936,732.9854,454.936,728.9854,450.936" style="stroke:#181818;stroke-width:1;"/><line style="stroke:#181818;stroke-width:1;" x1="726.9854" x2="994.9063" y1="450.936" y2="450.936"/><text fill="#000000" font-family="sans-serif" font-size="13" font-weight="bold" lengthAdjust="spacing" textLength="7.1602" x="738.9854" y="445.1274">6</text><text fill="#000000" font-family="sans-serif" font-size="13" lengthAdjust="spacing" textLength="238.7607" x="750.1455" y="445.1274">dispatch xforms-model-construct-done</text></g><g class="message" data-participant-1="ACTIONS" data-participant-2="DOM"><polygon fill="#181818" points="292.7983,496.3433,282.7983,500.3433,292.7983,504.3433,288.7983,500.3433" style="stroke:#181818;stroke-width:1;"/><line style="stroke:#181818;stroke-width:1;" x1="286.7983" x2="720.9854" y1="500.3433" y2="500.3433"/><text fill="#000000" font-family="sans-serif" font-size="13" font-weight="bold" lengthAdjust="spacing" textLength="7.1602" x="298.7983" y="485.6829">7</text><text fill="#000000" font-family="sans-serif" font-size="13" lengthAdjust="spacing" textLength="131.2632" x="309.9585" y="476.8311">render initial controls</text><text fill="#000000" font-family="sans-serif" font-size="13" lengthAdjust="spacing" textLength="170.1172" x="309.9585" y="494.5347">(xforms:* match templates)</text></g><g class="message" data-participant-1="RUNTIME" data-participant-2="ACTIONS"><polygon fill="#181818" points="732.9854,528.0469,722.9854,532.0469,732.9854,536.0469,728.9854,532.0469" style="stroke:#181818;stroke-width:1;"/><line style="stroke:#181818;stroke-width:1;" x1="726.9854" x2="994.9063" y1="532.0469" y2="532.0469"/><text fill="#000000" font-family="sans-serif" font-size="13" font-weight="bold" lengthAdjust="spacing" textLength="7.1602" x="738.9854" y="526.2383">8</text><text fill="#000000" font-family="sans-serif" font-size="13" lengthAdjust="spacing" textLength="137.2173" x="750.1455" y="526.2383">dispatch xforms-ready</text></g><rect fill="#EEEEEE" height="3" style="stroke:#EEEEEE;stroke-width:1;" width="1583.9995" x="0" y="561.8987"/><line style="stroke:#000000;stroke-width:1;" x1="0" x2="1583.9995" y1="561.8987" y2="561.8987"/><line style="stroke:#000000;stroke-width:1;" x1="0" x2="1583.9995" y1="564.8987" y2="564.8987"/><rect fill="#EEEEEE" height="25.7036" style="stroke:#000000;stroke-width:2;" width="161.583" x="711.2083" y="550.0469"/><text fill="#000000" font-family="sans-serif" font-size="13" font-weight="bold" lengthAdjust="spacing" textLength="144.2061" x="717.2083" y="567.9419">User Interaction Cycle</text><g class="message" data-participant-1="USER" data-participant-2="DOM"><polygon fill="#181818" points="269.7983,605.4541,279.7983,609.4541,269.7983,613.4541,273.7983,609.4541" style="stroke:#181818;stroke-width:1;"/><line style="stroke:#181818;stroke-width:1;" x1="37.6543" x2="275.7983" y1="609.4541" y2="609.4541"/><text fill="#000000" font-family="sans-serif" font-size="13" font-weight="bold" lengthAdjust="spacing" textLength="7.1602" x="44.6543" y="603.6455">9</text><text fill="#000000" font-family="sans-serif" font-size="13" lengthAdjust="spacing" textLength="127.7212" x="55.8145" y="603.6455">change control value</text></g><g class="message" data-participant-1="DOM" data-participant-2="BRIDGE"><polygon fill="#181818" points="471.2036,637.1577,481.2036,641.1577,471.2036,645.1577,475.2036,641.1577" style="stroke:#181818;stroke-width:1;"/><line style="stroke:#181818;stroke-width:1;" x1="281.7983" x2="477.2036" y1="641.1577" y2="641.1577"/><text fill="#000000" font-family="sans-serif" font-size="13" font-weight="bold" lengthAdjust="spacing" textLength="14.3203" x="288.7983" y="635.3491">10</text><text fill="#000000" font-family="sans-serif" font-size="13" lengthAdjust="spacing" textLength="138.8867" x="307.1187" y="635.3491">native onchange event</text></g><g class="message" data-participant-1="BRIDGE" data-participant-2="ACTIONS"><polygon fill="#181818" points="709.9854,668.8613,719.9854,672.8613,709.9854,676.8613,713.9854,672.8613" style="stroke:#181818;stroke-width:1;"/><line style="stroke:#181818;stroke-width:1;" x1="483.2036" x2="715.9854" y1="672.8613" y2="672.8613"/><text fill="#000000" font-family="sans-serif" font-size="13" font-weight="bold" lengthAdjust="spacing" textLength="14.3203" x="490.2036" y="667.0527">11</text><text fill="#000000" font-family="sans-serif" font-size="13" lengthAdjust="spacing" textLength="137.3506" x="508.5239" y="667.0527">xforms-value-changed</text></g><g class="message" data-participant-1="ACTIONS" data-participant-2="RUNTIME"><polygon fill="#181818" points="983.9063,700.5649,993.9063,704.5649,983.9063,708.5649,987.9063,704.5649" style="stroke:#181818;stroke-width:1;"/><line style="stroke:#181818;stroke-width:1;" x1="721.9854" x2="989.9063" y1="704.5649" y2="704.5649"/><text fill="#000000" font-family="sans-serif" font-size="13" font-weight="bold" lengthAdjust="spacing" textLength="14.3203" x="728.9854" y="698.7563">12</text><text fill="#000000" font-family="sans-serif" font-size="13" lengthAdjust="spacing" textLength="176.6045" x="747.3057" y="698.7563">invoke deferred update cycle</text></g><g class="message" data-participant-1="RUNTIME" data-participant-2="MODEL"><polygon fill="#181818" points="1243.2402,749.9722,1253.2402,753.9722,1243.2402,757.9722,1247.2402,753.9722" style="stroke:#181818;stroke-width:1;"/><line style="stroke:#181818;stroke-width:1;" x1="995.9063" x2="1249.2402" y1="753.9722" y2="753.9722"/><text fill="#000000" font-family="sans-serif" font-size="13" font-weight="bold" lengthAdjust="spacing" textLength="14.3203" x="1002.9063" y="739.3118">13</text><text fill="#000000" font-family="sans-serif" font-size="13" lengthAdjust="spacing" textLength="113.915" x="1021.2266" y="730.46">xforms-recalculate</text><text fill="#000000" font-family="sans-serif" font-size="13" lengthAdjust="spacing" textLength="117.7173" x="1021.2266" y="748.1636">recalculate-binding</text></g><g class="message" data-participant-1="RUNTIME" data-participant-2="MODEL"><polygon fill="#181818" points="1243.2402,817.083,1253.2402,821.083,1243.2402,825.083,1247.2402,821.083" style="stroke:#181818;stroke-width:1;"/><line style="stroke:#181818;stroke-width:1;" x1="995.9063" x2="1249.2402" y1="821.083" y2="821.083"/><text fill="#000000" font-family="sans-serif" font-size="13" font-weight="bold" lengthAdjust="spacing" textLength="14.3203" x="1002.9063" y="797.5708">14</text><text fill="#000000" font-family="sans-serif" font-size="13" lengthAdjust="spacing" textLength="107.999" x="1021.2266" y="779.8672">xforms-revalidate</text><text fill="#000000" font-family="sans-serif" font-size="13" lengthAdjust="spacing" textLength="129.1494" x="1021.2266" y="797.5708">check-required-fields</text><text fill="#000000" font-family="sans-serif" font-size="13" lengthAdjust="spacing" textLength="164.709" x="1021.2266" y="815.2744">check-constraints-on-fields</text></g><g class="message" data-participant-1="RUNTIME" data-participant-2="VMIP"><polygon fill="#181818" points="1450.3301,848.7866,1460.3301,852.7866,1450.3301,856.7866,1454.3301,852.7866" style="stroke:#181818;stroke-width:1;"/><line style="stroke:#181818;stroke-width:1;" x1="995.9063" x2="1456.3301" y1="852.7866" y2="852.7866"/><text fill="#000000" font-family="sans-serif" font-size="13" font-weight="bold" lengthAdjust="spacing" textLength="14.3203" x="1002.9063" y="846.978">15</text><text fill="#000000" font-family="sans-serif" font-size="13" lengthAdjust="spacing" textLength="130.1016" x="1021.2266" y="846.978">clearValidationMIPs()</text></g><g class="message" data-participant-1="RUNTIME" data-participant-2="VMIP"><polygon fill="#181818" points="1450.3301,898.1938,1460.3301,902.1938,1450.3301,906.1938,1454.3301,902.1938" style="stroke:#181818;stroke-width:1;"/><line style="stroke:#181818;stroke-width:1;" x1="995.9063" x2="1456.3301" y1="902.1938" y2="902.1938"/><text fill="#000000" font-family="sans-serif" font-size="13" font-weight="bold" lengthAdjust="spacing" textLength="14.3203" x="1002.9063" y="887.5334">16</text><text fill="#000000" font-family="sans-serif" font-size="13" lengthAdjust="spacing" textLength="198.6055" x="1021.2266" y="878.6816">setValidationMIP(instanceId, ref,</text><text fill="#000000" font-family="sans-serif" font-size="13" lengthAdjust="spacing" textLength="192.7656" x="1021.2266" y="896.3853">valid, required) for each control</text></g><g class="message" data-participant-1="MODEL" data-participant-2="RUNTIME"><polygon fill="#181818" points="1006.9063,929.8975,996.9063,933.8975,1006.9063,937.8975,1002.9063,933.8975" style="stroke:#181818;stroke-width:1;"/><line style="stroke:#181818;stroke-width:1;stroke-dasharray:2,2;" x1="1000.9063" x2="1254.2402" y1="933.8975" y2="933.8975"/><text fill="#000000" font-family="sans-serif" font-size="13" font-weight="bold" lengthAdjust="spacing" textLength="14.3203" x="1012.9063" y="928.0889">17</text><text fill="#000000" font-family="sans-serif" font-size="13" lengthAdjust="spacing" textLength="164.2646" x="1031.2266" y="928.0889">updated values + MIP flags</text></g><g class="message" data-participant-1="VMIP" data-participant-2="RUNTIME"><polygon fill="#181818" points="1006.9063,961.6011,996.9063,965.6011,1006.9063,969.6011,1002.9063,965.6011" style="stroke:#181818;stroke-width:1;"/><line style="stroke:#181818;stroke-width:1;stroke-dasharray:2,2;" x1="1000.9063" x2="1461.3301" y1="965.6011" y2="965.6011"/><text fill="#000000" font-family="sans-serif" font-size="13" font-weight="bold" lengthAdjust="spacing" textLength="14.3203" x="1012.9063" y="959.7925">18</text><text fill="#000000" font-family="sans-serif" font-size="13" lengthAdjust="spacing" textLength="195.9966" x="1031.2266" y="959.7925">getValidationMIPValid/Required</text></g><g class="message" data-participant-1="RUNTIME" data-participant-2="DOM"><polygon fill="#181818" points="292.7983,1046.4155,282.7983,1050.4155,292.7983,1054.4155,288.7983,1050.4155" style="stroke:#181818;stroke-width:1;"/><line style="stroke:#181818;stroke-width:1;" x1="286.7983" x2="994.9063" y1="1050.4155" y2="1050.4155"/><text fill="#000000" font-family="sans-serif" font-size="13" font-weight="bold" lengthAdjust="spacing" textLength="14.3203" x="298.7983" y="1018.0515">19</text><text fill="#000000" font-family="sans-serif" font-size="13" lengthAdjust="spacing" textLength="91.5269" x="317.1187" y="991.4961">xforms-refresh</text><text fill="#000000" font-family="sans-serif" font-size="13" lengthAdjust="spacing" textLength="109.0718" x="317.1187" y="1009.1997">refreshOutputs-JS</text><text fill="#000000" font-family="sans-serif" font-size="13" lengthAdjust="spacing" textLength="108.2021" x="317.1187" y="1026.9033">refreshRepeats-JS</text><text fill="#000000" font-family="sans-serif" font-size="13" lengthAdjust="spacing" textLength="146.9736" x="317.1187" y="1044.6069">refreshRelevantFields-JS</text></g><g class="message" data-participant-1="ACTIONS" data-participant-2="DOM"><polygon fill="#181818" points="292.7983,1078.1191,282.7983,1082.1191,292.7983,1086.1191,288.7983,1082.1191" style="stroke:#181818;stroke-width:1;"/><line style="stroke:#181818;stroke-width:1;" x1="286.7983" x2="720.9854" y1="1082.1191" y2="1082.1191"/><text fill="#000000" font-family="sans-serif" font-size="13" font-weight="bold" lengthAdjust="spacing" textLength="14.3203" x="298.7983" y="1076.3105">20</text><text fill="#000000" font-family="sans-serif" font-size="13" lengthAdjust="spacing" textLength="272.8921" x="317.1187" y="1076.3105">emit xforms-valid / xforms-invalid as needed</text></g><rect fill="#EEEEEE" height="3" style="stroke:#EEEEEE;stroke-width:1;" width="1583.9995" x="0" y="1111.9709"/><line style="stroke:#000000;stroke-width:1;" x1="0" x2="1583.9995" y1="1111.9709" y2="1111.9709"/><line style="stroke:#000000;stroke-width:1;" x1="0" x2="1583.9995" y1="1114.9709" y2="1114.9709"/><rect fill="#EEEEEE" height="25.7036" style="stroke:#000000;stroke-width:2;" width="143.4414" x="720.2791" y="1100.1191"/><text fill="#000000" font-family="sans-serif" font-size="13" font-weight="bold" lengthAdjust="spacing" textLength="126.0645" x="726.2791" y="1118.0142">Explicit Action Path</text><g class="message" data-participant-1="USER" data-participant-2="DOM"><polygon fill="#181818" points="269.7983,1155.5264,279.7983,1159.5264,269.7983,1163.5264,273.7983,1159.5264" style="stroke:#181818;stroke-width:1;"/><line style="stroke:#181818;stroke-width:1;" x1="37.6543" x2="275.7983" y1="1159.5264" y2="1159.5264"/><text fill="#000000" font-family="sans-serif" font-size="13" font-weight="bold" lengthAdjust="spacing" textLength="14.3203" x="44.6543" y="1153.7178">21</text><text fill="#000000" font-family="sans-serif" font-size="13" lengthAdjust="spacing" textLength="201.8237" x="62.9746" y="1153.7178">activate trigger with xf:revalidate</text></g><g class="message" data-participant-1="DOM" data-participant-2="BRIDGE"><polygon fill="#181818" points="471.2036,1187.23,481.2036,1191.23,471.2036,1195.23,475.2036,1191.23" style="stroke:#181818;stroke-width:1;"/><line style="stroke:#181818;stroke-width:1;" x1="281.7983" x2="477.2036" y1="1191.23" y2="1191.23"/><text fill="#000000" font-family="sans-serif" font-size="13" font-weight="bold" lengthAdjust="spacing" textLength="14.3203" x="288.7983" y="1185.4214">22</text><text fill="#000000" font-family="sans-serif" font-size="13" lengthAdjust="spacing" textLength="159.085" x="307.1187" y="1185.4214">native click / DOMActivate</text></g><g class="message" data-participant-1="BRIDGE" data-participant-2="ACTIONS"><polygon fill="#181818" points="709.9854,1218.9336,719.9854,1222.9336,709.9854,1226.9336,713.9854,1222.9336" style="stroke:#181818;stroke-width:1;"/><line style="stroke:#181818;stroke-width:1;" x1="483.2036" x2="715.9854" y1="1222.9336" y2="1222.9336"/><text fill="#000000" font-family="sans-serif" font-size="13" font-weight="bold" lengthAdjust="spacing" textLength="14.3203" x="490.2036" y="1217.125">23</text><text fill="#000000" font-family="sans-serif" font-size="13" lengthAdjust="spacing" textLength="156.2729" x="508.5239" y="1217.125">applyActions('revalidate')</text></g><g class="message" data-participant-1="ACTIONS" data-participant-2="RUNTIME"><polygon fill="#181818" points="983.9063,1250.6372,993.9063,1254.6372,983.9063,1258.6372,987.9063,1254.6372" style="stroke:#181818;stroke-width:1;"/><line style="stroke:#181818;stroke-width:1;" x1="721.9854" x2="989.9063" y1="1254.6372" y2="1254.6372"/><text fill="#000000" font-family="sans-serif" font-size="13" font-weight="bold" lengthAdjust="spacing" textLength="14.3203" x="728.9854" y="1248.8286">24</text><text fill="#000000" font-family="sans-serif" font-size="13" lengthAdjust="spacing" textLength="102.5083" x="747.3057" y="1248.8286">action-revalidate</text></g><g class="message" data-participant-1="RUNTIME" data-participant-2="MODEL"><polygon fill="#181818" points="1243.2402,1282.3408,1253.2402,1286.3408,1243.2402,1290.3408,1247.2402,1286.3408" style="stroke:#181818;stroke-width:1;"/><line style="stroke:#181818;stroke-width:1;" x1="995.9063" x2="1249.2402" y1="1286.3408" y2="1286.3408"/><text fill="#000000" font-family="sans-serif" font-size="13" font-weight="bold" lengthAdjust="spacing" textLength="14.3203" x="1002.9063" y="1280.5322">25</text><text fill="#000000" font-family="sans-serif" font-size="13" lengthAdjust="spacing" textLength="107.999" x="1021.2266" y="1280.5322">xforms-revalidate</text></g><g class="message" data-participant-1="RUNTIME" data-participant-2="VMIP"><polygon fill="#181818" points="1450.3301,1314.0444,1460.3301,1318.0444,1450.3301,1322.0444,1454.3301,1318.0444" style="stroke:#181818;stroke-width:1;"/><line style="stroke:#181818;stroke-width:1;" x1="995.9063" x2="1456.3301" y1="1318.0444" y2="1318.0444"/><text fill="#000000" font-family="sans-serif" font-size="13" font-weight="bold" lengthAdjust="spacing" textLength="14.3203" x="1002.9063" y="1312.2358">26</text><text fill="#000000" font-family="sans-serif" font-size="13" lengthAdjust="spacing" textLength="156.9902" x="1021.2266" y="1312.2358">rebuild validation registry</text></g><g class="message" data-participant-1="USER" data-participant-2="DOM"><polygon fill="#181818" points="269.7983,1345.748,279.7983,1349.748,269.7983,1353.748,273.7983,1349.748" style="stroke:#181818;stroke-width:1;"/><line style="stroke:#181818;stroke-width:1;" x1="37.6543" x2="275.7983" y1="1349.748" y2="1349.748"/><text fill="#000000" font-family="sans-serif" font-size="13" font-weight="bold" lengthAdjust="spacing" textLength="14.3203" x="44.6543" y="1343.9395">27</text><text fill="#000000" font-family="sans-serif" font-size="13" lengthAdjust="spacing" textLength="185.3516" x="62.9746" y="1343.9395">activate trigger with xf:refresh</text></g><g class="message" data-participant-1="DOM" data-participant-2="BRIDGE"><polygon fill="#181818" points="471.2036,1377.4517,481.2036,1381.4517,471.2036,1385.4517,475.2036,1381.4517" style="stroke:#181818;stroke-width:1;"/><line style="stroke:#181818;stroke-width:1;" x1="281.7983" x2="477.2036" y1="1381.4517" y2="1381.4517"/><text fill="#000000" font-family="sans-serif" font-size="13" font-weight="bold" lengthAdjust="spacing" textLength="14.3203" x="288.7983" y="1375.6431">28</text><text fill="#000000" font-family="sans-serif" font-size="13" lengthAdjust="spacing" textLength="159.085" x="307.1187" y="1375.6431">native click / DOMActivate</text></g><g class="message" data-participant-1="BRIDGE" data-participant-2="ACTIONS"><polygon fill="#181818" points="709.9854,1409.1553,719.9854,1413.1553,709.9854,1417.1553,713.9854,1413.1553" style="stroke:#181818;stroke-width:1;"/><line style="stroke:#181818;stroke-width:1;" x1="483.2036" x2="715.9854" y1="1413.1553" y2="1413.1553"/><text fill="#000000" font-family="sans-serif" font-size="13" font-weight="bold" lengthAdjust="spacing" textLength="14.3203" x="490.2036" y="1407.3467">29</text><text fill="#000000" font-family="sans-serif" font-size="13" lengthAdjust="spacing" textLength="139.8008" x="508.5239" y="1407.3467">applyActions('refresh')</text></g><g class="message" data-participant-1="ACTIONS" data-participant-2="RUNTIME"><polygon fill="#181818" points="983.9063,1440.8589,993.9063,1444.8589,983.9063,1448.8589,987.9063,1444.8589" style="stroke:#181818;stroke-width:1;"/><line style="stroke:#181818;stroke-width:1;" x1="721.9854" x2="989.9063" y1="1444.8589" y2="1444.8589"/><text fill="#000000" font-family="sans-serif" font-size="13" font-weight="bold" lengthAdjust="spacing" textLength="14.3203" x="728.9854" y="1439.0503">30</text><text fill="#000000" font-family="sans-serif" font-size="13" lengthAdjust="spacing" textLength="86.0361" x="747.3057" y="1439.0503">action-refresh</text></g><g class="message" data-participant-1="RUNTIME" data-participant-2="DOM"><polygon fill="#181818" points="292.7983,1507.9697,282.7983,1511.9697,292.7983,1515.9697,288.7983,1511.9697" style="stroke:#181818;stroke-width:1;"/><line style="stroke:#181818;stroke-width:1;" x1="286.7983" x2="994.9063" y1="1511.9697" y2="1511.9697"/><text fill="#000000" font-family="sans-serif" font-size="13" font-weight="bold" lengthAdjust="spacing" textLength="14.3203" x="298.7983" y="1488.4575">31</text><text fill="#000000" font-family="sans-serif" font-size="13" lengthAdjust="spacing" textLength="91.5269" x="317.1187" y="1470.7539">xforms-refresh</text><text fill="#000000" font-family="sans-serif" font-size="13" lengthAdjust="spacing" textLength="167.7686" x="317.1187" y="1488.4575">project xforms-valid/invalid</text><text fill="#000000" font-family="sans-serif" font-size="13" lengthAdjust="spacing" textLength="166.7402" x="317.1187" y="1506.1611">+ xforms-required/optional</text></g></g></svg>