<svg xmlns="http://www.w3.org/2000/svg" xmlns:xlink="http://www.w3.org/1999/xlink" contentStyleType="text/css" data-diagram-type="DESCRIPTION" height="823px" preserveAspectRatio="none" style="width:533px;height:823px;background:#FFFFFF;" version="1.1" viewBox="0 0 533 823" width="533px" zoomAndPan="magnify"><title>SaxonForms implementation use-cases</title><defs/><g><g class="title" data-source-line="1"><text fill="#000000" font-family="sans-serif" font-size="14" font-weight="bold" lengthAdjust="spacing" textLength="273.6084" x="122.6958" y="24.9639">SaxonForms implementation use-cases</text></g><!--cluster SaxonForms Runtime--><g class="cluster" data-entity="SaxonForms Runtime" data-source-line="10" data-uid="ent0006" id="cluster_SaxonForms Runtime"><rect fill="none" height="770" rx="2.5" ry="2.5" style="stroke:#181818;stroke-width:1;" width="332" x="195" y="47.0654"/><text fill="#000000" font-family="sans-serif" font-size="14" font-weight="bold" lengthAdjust="spacing" textLength="149.1943" x="286.4028" y="64.0293">SaxonForms Runtime</text></g><!--entity UC_RENDER--><g class="entity" data-entity="UC_RENDER" data-source-line="11" data-uid="ent0007" id="entity_UC_RENDER"><ellipse cx="361.0619" cy="532.0778" fill="#F1F1F1" rx="143.0619" ry="31.0124" style="stroke:#181818;stroke-width:0.5;"/><text fill="#000000" font-family="sans-serif" font-size="14" lengthAdjust="spacing" textLength="159.9336" x="281.0951" y="524.6453">Render XForms Controls</text><text fill="#000000" font-family="sans-serif" font-size="14" lengthAdjust="spacing" textLength="235.7305" x="243.1967" y="543.7107">(input/output/select/repeat/switch)</text></g><!--entity UC_XPATH--><g class="entity" data-entity="UC_XPATH" data-source-line="12" data-uid="ent0008" id="entity_UC_XPATH"><ellipse cx="361.2118" cy="425.2276" fill="#F1F1F1" rx="150.2118" ry="41.1621" style="stroke:#181818;stroke-width:0.5;"/><text fill="#000000" font-family="sans-serif" font-size="14" lengthAdjust="spacing" textLength="220.6367" x="250.8935" y="415.5245">Evaluate XPath/XForms Functions</text><text fill="#000000" font-family="sans-serif" font-size="14" lengthAdjust="spacing" textLength="219.9053" x="251.2592" y="434.59">(xforms:impose, xforms:instance,</text><text fill="#000000" font-family="sans-serif" font-size="14" lengthAdjust="spacing" textLength="161.2734" x="280.5751" y="453.6554">xforms:id, xforms:index)</text></g><!--entity UC_ACTIONS--><g class="entity" data-entity="UC_ACTIONS" data-source-line="13" data-uid="ent0009" id="entity_UC_ACTIONS"><ellipse cx="360.9923" cy="310.1123" fill="#F1F1F1" rx="131.9923" ry="39.0468" style="stroke:#181818;stroke-width:0.5;"/><text fill="#000000" font-family="sans-serif" font-size="14" lengthAdjust="spacing" textLength="77.8135" x="322.0855" y="291.3096">Run Actions</text><text fill="#000000" font-family="sans-serif" font-size="14" lengthAdjust="spacing" textLength="204.6748" x="258.6549" y="310.3751">(insert/delete/toggle/setvalue/</text><text fill="#000000" font-family="sans-serif" font-size="14" lengthAdjust="spacing" textLength="199.6572" x="261.1636" y="329.4405">setindex/dispatch/load/script)</text></g><!--entity UC_SUBMIT--><g class="entity" data-entity="UC_SUBMIT" data-source-line="14" data-uid="ent0010" id="entity_UC_SUBMIT"><ellipse cx="360.9947" cy="113.8374" fill="#F1F1F1" rx="122.4947" ry="28.772" style="stroke:#181818;stroke-width:0.5;"/><text fill="#000000" font-family="sans-serif" font-size="14" lengthAdjust="spacing" textLength="141.2373" x="290.3761" y="108.6129">Submit Instance Data</text><text fill="#000000" font-family="sans-serif" font-size="14" lengthAdjust="spacing" textLength="176.7979" x="272.5958" y="127.6783">(HTTPsubmit, ixsl:promise)</text></g><!--entity UC_EVENTS--><g class="entity" data-entity="UC_EVENTS" data-source-line="15" data-uid="ent0011" id="entity_UC_EVENTS"><ellipse cx="361.0125" cy="639.8288" fill="#F1F1F1" rx="139.5125" ry="41.7633" style="stroke:#181818;stroke-width:0.5;"/><text fill="#000000" font-family="sans-serif" font-size="14" lengthAdjust="spacing" textLength="163.6455" x="279.1898" y="624.3655">Dispatch Lifecycle Events</text><text fill="#000000" font-family="sans-serif" font-size="14" lengthAdjust="spacing" textLength="162.4971" x="279.764" y="643.4309">(model-construct/ready/</text><text fill="#000000" font-family="sans-serif" font-size="14" lengthAdjust="spacing" textLength="201.4277" x="260.2987" y="662.4963">recalculate/revalidate/refresh)</text></g><!--entity UC_W3C--><g class="entity" data-entity="UC_W3C" data-source-line="16" data-uid="ent0012" id="entity_UC_W3C"><ellipse cx="361.0122" cy="759.2234" fill="#F1F1F1" rx="118.0122" ry="42.158" style="stroke:#181818;stroke-width:0.5;"/><text fill="#000000" font-family="sans-serif" font-size="14" lengthAdjust="spacing" textLength="167.9932" x="277.0156" y="748.0401">Validate Conformance via</text><text fill="#000000" font-family="sans-serif" font-size="14" lengthAdjust="spacing" textLength="139.5352" x="291.2446" y="767.1056">W3C Playwright Suite</text><text fill="#000000" font-family="sans-serif" font-size="14" lengthAdjust="spacing" textLength="144.6416" x="288.6914" y="786.171">(ch02-ch11, appendix)</text></g><!--entity UC_UPLOAD--><g class="entity" data-entity="UC_UPLOAD" data-source-line="17" data-uid="ent0013" id="entity_UC_UPLOAD"><ellipse cx="360.9702" cy="206.8963" fill="#F1F1F1" rx="102.9702" ry="28.3309" style="stroke:#181818;stroke-width:0.5;"/><text fill="#000000" font-family="sans-serif" font-size="14" lengthAdjust="spacing" textLength="150.4863" x="285.727" y="205.7835">Upload File to Instance</text><text fill="#000000" font-family="sans-serif" font-size="14" lengthAdjust="spacing" textLength="106.3193" x="307.8105" y="224.849">(readFileAsXML)</text></g><!--entity AUTHOR--><g class="entity" data-entity="AUTHOR" data-source-line="5" data-uid="ent0002" id="entity_AUTHOR"><ellipse cx="78.4043" cy="444.0654" fill="#F1F1F1" rx="8" ry="8" style="stroke:#181818;stroke-width:0.5;"/><path d="M78.4043,452.0654 L78.4043,479.0654 M65.4043,460.0654 L91.4043,460.0654 M78.4043,479.0654 L65.4043,494.0654 M78.4043,479.0654 L91.4043,494.0654" fill="none" style="stroke:#181818;stroke-width:0.5;"/><text fill="#000000" font-family="sans-serif" font-size="14" lengthAdjust="spacing" textLength="83.8086" x="36.5" y="510.5293">Form Author</text></g><!--entity DEV--><g class="entity" data-entity="DEV" data-source-line="6" data-uid="ent0003" id="entity_DEV"><ellipse cx="78.4404" cy="176.0654" fill="#F1F1F1" rx="8" ry="8" style="stroke:#181818;stroke-width:0.5;"/><path d="M78.4404,184.0654 L78.4404,211.0654 M65.4404,192.0654 L91.4404,192.0654 M78.4404,211.0654 L65.4404,226.0654 M78.4404,211.0654 L91.4404,226.0654" fill="none" style="stroke:#181818;stroke-width:0.5;"/><text fill="#000000" font-family="sans-serif" font-size="14" lengthAdjust="spacing" textLength="144.8809" x="6" y="242.5293">Application Developer</text></g><!--entity USER--><g class="entity" data-entity="USER" data-source-line="7" data-uid="ent0004" id="entity_USER"><ellipse cx="78.6543" cy="584.0654" fill="#F1F1F1" rx="8" ry="8" style="stroke:#181818;stroke-width:0.5;"/><path d="M78.6543,592.0654 L78.6543,619.0654 M65.6543,600.0654 L91.6543,600.0654 M78.6543,619.0654 L65.6543,634.0654 M78.6543,619.0654 L91.6543,634.0654" fill="none" style="stroke:#181818;stroke-width:0.5;"/><text fill="#000000" font-family="sans-serif" font-size="14" lengthAdjust="spacing" textLength="59.3086" x="49" y="650.5293">End User</text></g><!--entity QA--><g class="entity" data-entity="QA" data-source-line="8" data-uid="ent0005" id="entity_QA"><ellipse cx="78.7036" cy="700.0654" fill="#F1F1F1" rx="8" ry="8" style="stroke:#181818;stroke-width:0.5;"/><path d="M78.7036,708.0654 L78.7036,735.0654 M65.7036,716.0654 L91.7036,716.0654 M78.7036,735.0654 L65.7036,750.0654 M78.7036,735.0654 L91.7036,750.0654" fill="none" style="stroke:#181818;stroke-width:0.5;"/><text fill="#000000" font-family="sans-serif" font-size="14" lengthAdjust="spacing" textLength="82.4072" x="37.5" y="766.5293">QA Engineer</text></g><!--link AUTHOR to UC_RENDER--><g class="link" data-entity-1="AUTHOR" data-entity-2="UC_RENDER" data-source-line="20" data-uid="lnk14" id="link_AUTHOR_UC_RENDER"><path d="M120.59,483.4154 C156.12,490.6354 203.1604,500.1895 250.2104,509.7595" fill="none" id="AUTHOR-to-UC_RENDER" style="stroke:#181818;stroke-width:1;"/><polygon fill="#181818" points="256.09,510.9554,248.0679,505.2418,251.1903,509.9588,246.4733,513.0813,256.09,510.9554" style="stroke:#181818;stroke-width:1;"/></g><!--link AUTHOR to UC_XPATH--><g class="link" data-entity-1="AUTHOR" data-entity-2="UC_XPATH" data-source-line="21" data-uid="lnk15" id="link_AUTHOR_UC_XPATH"><path d="M120.59,467.7454 C150.87,462.3454 187.8732,455.749 229.0232,448.409" fill="none" id="AUTHOR-to-UC_XPATH" style="stroke:#181818;stroke-width:1;"/><polygon fill="#181818" points="234.93,447.3554,225.3674,444.998,230.0077,448.2334,226.7722,452.8737,234.93,447.3554" style="stroke:#181818;stroke-width:1;"/></g><!--link DEV to UC_ACTIONS--><g class="link" data-entity-1="DEV" data-entity-2="UC_ACTIONS" data-source-line="22" data-uid="lnk16" id="link_DEV_UC_ACTIONS"><path d="M151.14,238.7354 C163.05,243.7054 175.32,248.6554 187,253.0654 C213.48,263.0654 236.879,271.175 263.549,279.925" fill="none" id="DEV-to-UC_ACTIONS" style="stroke:#181818;stroke-width:1;"/><polygon fill="#181818" points="269.25,281.7954,261.9454,275.1891,264.4992,280.2368,259.4515,282.7905,269.25,281.7954" style="stroke:#181818;stroke-width:1;"/></g><!--link DEV to UC_SUBMIT--><g class="link" data-entity-1="DEV" data-entity-2="UC_SUBMIT" data-source-line="23" data-uid="lnk17" id="link_DEV_UC_SUBMIT"><path d="M151.24,174.7354 C163.08,169.8754 175.3,165.1354 187,161.0654 C215.22,151.2454 240.8014,143.7271 269.0114,136.2271" fill="none" id="DEV-to-UC_SUBMIT" style="stroke:#181818;stroke-width:1;"/><polygon fill="#181818" points="274.81,134.6854,265.0844,133.1322,269.9779,135.9701,267.1399,140.8636,274.81,134.6854" style="stroke:#181818;stroke-width:1;"/></g><!--link DEV to UC_UPLOAD--><g class="link" data-entity-1="DEV" data-entity-2="UC_UPLOAD" data-source-line="24" data-uid="lnk18" id="link_DEV_UC_UPLOAD"><path d="M151.01,207.0654 C183.47,207.0654 216.46,207.0654 251.93,207.0654" fill="none" id="DEV-to-UC_UPLOAD" style="stroke:#181818;stroke-width:1;"/><polygon fill="#181818" points="257.93,207.0654,248.93,203.0654,252.93,207.0654,248.93,211.0654,257.93,207.0654" style="stroke:#181818;stroke-width:1;"/></g><!--link USER to UC_EVENTS--><g class="link" data-entity-1="USER" data-entity-2="UC_EVENTS" data-source-line="25" data-uid="lnk19" id="link_USER_UC_EVENTS"><path d="M108.2,617.6254 C136.61,620.1554 176.2436,623.6939 220.8836,627.6639" fill="none" id="USER-to-UC_EVENTS" style="stroke:#181818;stroke-width:1;"/><polygon fill="#181818" points="226.86,628.1954,218.2497,623.4139,221.8797,627.7525,217.541,631.3824,226.86,628.1954" style="stroke:#181818;stroke-width:1;"/></g><!--link USER to UC_RENDER--><g class="link" data-entity-1="USER" data-entity-2="UC_RENDER" data-source-line="26" data-uid="lnk20" id="link_USER_UC_RENDER"><path d="M108.14,605.3654 C129.73,598.1354 160.13,588.1654 187,580.0654 C214.01,571.9254 237.7571,565.1449 264.6571,557.7049" fill="none" id="USER-to-UC_RENDER" style="stroke:#181818;stroke-width:1;"/><polygon fill="#181818" points="270.44,556.1054,260.6994,554.6493,265.6209,557.4383,262.832,562.3598,270.44,556.1054" style="stroke:#181818;stroke-width:1;"/></g><!--link QA to UC_W3C--><g class="link" data-entity-1="QA" data-entity-2="UC_W3C" data-source-line="27" data-uid="lnk21" id="link_QA_UC_W3C"><path d="M119.69,735.0754 C153.02,738.4054 196.0996,742.71 241.2196,747.21" fill="none" id="QA-to-UC_W3C" style="stroke:#181818;stroke-width:1;"/><polygon fill="#181818" points="247.19,747.8054,238.6314,742.932,242.2147,747.3092,237.8375,750.8925,247.19,747.8054" style="stroke:#181818;stroke-width:1;"/></g><!--link QA to UC_EVENTS--><g class="link" data-entity-1="QA" data-entity-2="UC_EVENTS" data-source-line="28" data-uid="lnk22" id="link_QA_UC_EVENTS"><path d="M119.69,718.0254 C157.56,705.7454 210.0328,688.7169 259.6628,672.6169" fill="none" id="QA-to-UC_EVENTS" style="stroke:#181818;stroke-width:1;"/><polygon fill="#181818" points="265.37,670.7654,255.5749,669.7378,260.614,672.3083,258.0435,677.3474,265.37,670.7654" style="stroke:#181818;stroke-width:1;"/></g></g></svg>